<svg xmlns="http://www.w3.org/2000/svg" xmlns:xlink="http://www.w3.org/1999/xlink" xmlns:lucid="lucid" width="2213.29" height="1178.07"><g transform="translate(1713.291675259982 678.0737483510554)" lucid:page-tab-id="0_0"><path d="M-2000-1000H500V500h-2500z" fill="#fff"/><path d="M260 440h240v60H260z" fill="none"/><path d="M-1684.1-513.47h258.72v104h-258.7z" fill="#fff"/><path d="M-1684.1-473.47v33h258.72v-33" fill="#fff"/><path d="M-1684.1-441.47v32h258.72v-32" fill="#fff"/><path d="M-1684.1-473.47v-40h258.72v40" fill="#ccc"/><path d="M-1684.1-513.47h258.72v104h-258.7zM-1684.1-473.47h258.72M-1624.1-473.47v64" stroke="#333" fill="none"/><use xlink:href="#a" transform="matrix(1,0,0,1,-1679.0852075983641,-470.97022628433865) translate(0 17.1)"/><use xlink:href="#b" transform="matrix(1,0,0,1,-1619.0852075983641,-470.97022628433865) translate(0 17.1)"/><use xlink:href="#c" transform="matrix(1,0,0,1,-1619.0852075983641,-470.97022628433865) translate(74.85000000000001 17.1)"/><use xlink:href="#d" transform="matrix(1,0,0,1,-1679.0852075983641,-438.97022628433865) translate(0 17.1)"/><use xlink:href="#e" transform="matrix(1,0,0,1,-1619.0852075983641,-438.97022628433865) translate(0 17.1)"/><use xlink:href="#c" transform="matrix(1,0,0,1,-1619.0852075983641,-438.97022628433865) translate(61.85 17.1)"/><path d="M-1682.8-513.47h258.7v40h-258.7z" stroke="#333" fill="#ffb781"/><use xlink:href="#f" transform="matrix(1,0,0,1,-1677.991675259982,-508.67022628433864) translate(94.2641975308642 19.359722222222224)"/><path d="M-1541.4-669.07a8 8 0 0 1 8-8h836.74a8 8 0 0 1 8 8v25.15a8 8 0 0 1-8 8h-836.75a8 8 0 0 1-8-8z" stroke="#000" stroke-opacity="0" stroke-width="2" fill="#fff" fill-opacity="0"/><use xlink:href="#g" transform="matrix(1,0,0,1,-1537.4093345149868,-673.0737483510554) translate(254.74641975308646 25.782777777777778)"/><use xlink:href="#h" transform="matrix(1,0,0,1,-1537.4093345149868,-673.0737483510554) translate(381.34148148148154 25.782777777777778)"/><use xlink:href="#i" transform="matrix(1,0,0,1,-1537.4093345149868,-673.0737483510554) translate(443.8377777777778 25.782777777777778)"/><use xlink:href="#j" transform="matrix(1,0,0,1,-1537.4093345149868,-673.0737483510554) translate(459.78962962962964 25.782777777777778)"/><path d="M-1478.55-637.26h735.36M-1478.53-637.26h-1.02M-743.2-637.26h1" stroke="#a9afb8" stroke-width="2" fill="none"/><path d="M-1541.4-627.92a8 8 0 0 1 8-8h837.7a8 8 0 0 1 8 8v2.85a8 8 0 0 1-8 8h-837.7a8 8 0 0 1-8-8z" stroke="#000" stroke-opacity="0" stroke-width="2" fill="#fff" fill-opacity="0"/><use xlink:href="#k" transform="matrix(1,0,0,1,-1537.4093345149863,-631.9185243941566) translate(252.42085390946505 14.917037037037037)"/><use xlink:href="#l" transform="matrix(1,0,0,1,-1537.4093345149863,-631.9185243941566) translate(307.5725 14.917037037037037)"/><use xlink:href="#m" transform="matrix(1,0,0,1,-1537.4093345149863,-631.9185243941566) translate(333.0238374485597 14.917037037037037)"/><use xlink:href="#n" transform="matrix(1,0,0,1,-1537.4093345149863,-631.9185243941566) translate(389.91756172839507 14.917037037037037)"/><use xlink:href="#o" transform="matrix(1,0,0,1,-1537.4093345149863,-631.9185243941566) translate(490.87311728395065 14.917037037037037)"/><use xlink:href="#p" transform="matrix(1,0,0,1,-1537.4093345149863,-631.9185243941566) translate(503.32260288065845 14.917037037037037)"/><use xlink:href="#q" transform="matrix(1,0,0,1,-1537.4093345149863,-631.9185243941566) translate(540.7135493827161 14.917037037037037)"/><use xlink:href="#r" transform="matrix(1,0,0,1,-1537.4093345149863,-631.9185243941566) translate(566.2073765432099 14.917037037037037)"/><path d="M-1704.1-333.47h301.3v168h-301.3z" fill="#fff"/><path d="M-1704.1-293.47v33h301.3v-33" fill="#fff"/><path d="M-1704.1-261.47v33h301.3v-33" fill="#fff"/><path d="M-1704.1-229.47v33h301.3v-33" fill="#fff"/><path d="M-1704.1-197.47v32h301.3v-32" fill="#fff"/><path d="M-1704.1-293.47v-40h301.3v40" fill="#ccc"/><path d="M-1704.1-333.47h301.3v168h-301.3zM-1704.1-293.47h301.3M-1644.1-293.47v128" stroke="#333" fill="none"/><use xlink:href="#a" transform="matrix(1,0,0,1,-1699.0852075983641,-290.97022628433865) translate(13 17.1)"/><use xlink:href="#e" transform="matrix(1,0,0,1,-1639.0852075983641,-290.97022628433865) translate(0 17.1)"/><use xlink:href="#c" transform="matrix(1,0,0,1,-1639.0852075983641,-290.97022628433865) translate(61.85 17.1)"/><use xlink:href="#s" transform="matrix(1,0,0,1,-1639.0852075983641,-258.97022628433865) translate(0 17.1)"/><use xlink:href="#t" transform="matrix(1,0,0,1,-1639.0852075983641,-258.97022628433865) translate(92.85000000000001 17.1)"/><use xlink:href="#u" transform="matrix(1,0,0,1,-1639.0852075983641,-226.97022628433865) translate(0 17.1)"/><use xlink:href="#t" transform="matrix(1,0,0,1,-1639.0852075983641,-226.97022628433865) translate(89.80000000000001 17.1)"/><use xlink:href="#v" transform="matrix(1,0,0,1,-1639.0852075983641,-194.97022628433865) translate(0 17.1)"/><use xlink:href="#w" transform="matrix(1,0,0,1,-1639.0852075983641,-194.97022628433865) translate(79.9 17.1)"/><path d="M-1704.1-333.47h301.3v40h-301.3z" stroke="#333" fill="#ffb781"/><use xlink:href="#x" transform="matrix(1,0,0,1,-1699.2852075983642,-328.67022628433864) translate(121.68395061728395 19.359722222222224)"/><path d="M-1712.8 119.65h318.7v104h-318.7z" fill="#fff"/><path d="M-1712.8 159.65v33h318.7v-33" fill="#fff"/><path d="M-1712.8 191.65v32h318.7v-32" fill="#fff"/><path d="M-1712.8 159.65v-40h318.7v40" fill="#ccc"/><path d="M-1712.8 119.65h318.7v104h-318.7zM-1712.8 159.65h318.7M-1652.8 159.65v64" stroke="#333" fill="none"/><use xlink:href="#a" transform="matrix(1,0,0,1,-1707.791675259982,162.14849102776543) translate(13 17.1)"/><use xlink:href="#y" transform="matrix(1,0,0,1,-1647.791675259982,162.14849102776543) translate(0 17.1)"/><use xlink:href="#c" transform="matrix(1,0,0,1,-1647.791675259982,162.14849102776543) translate(73.9 17.1)"/><use xlink:href="#z" transform="matrix(1,0,0,1,-1647.791675259982,194.14849102776543) translate(0 17.1)"/><use xlink:href="#t" transform="matrix(1,0,0,1,-1647.791675259982,194.14849102776543) translate(96.85000000000001 17.1)"/><path d="M-1712.8 119.65h318.7v41.12h-318.7z" stroke="#333" fill="#ffb781"/><use xlink:href="#A" transform="matrix(1,0,0,1,-1707.991675259982,124.44849102776543) translate(93.1530864197531 19.422222222222224)"/><path d="M-1236.28-560h300v232h-300z" fill="#fff"/><path d="M-1236.28-520v33h300v-33" fill="#fff"/><path d="M-1236.28-488v33h300v-33" fill="#fff"/><path d="M-1236.28-456v33h300v-33" fill="#fff"/><path d="M-1236.28-424v33h300v-33" fill="#fff"/><path d="M-1236.28-392v33h300v-33" fill="#fff"/><path d="M-1236.28-360v32h300v-32" fill="#fff"/><path d="M-1236.28-520v-40h300v40" fill="#ccc"/><path d="M-1236.28-560h300v232h-300zM-1236.28-520h300M-1176.28-520v192" stroke="#333" fill="none"/><use xlink:href="#a" transform="matrix(1,0,0,1,-1231.2774853018766,-517.5) translate(13 17.1)"/><use xlink:href="#B" transform="matrix(1,0,0,1,-1171.2774853018766,-517.5) translate(0 17.1)"/><use xlink:href="#c" transform="matrix(1,0,0,1,-1171.2774853018766,-517.5) translate(59.900000000000006 17.1)"/><use xlink:href="#C" transform="matrix(1,0,0,1,-1171.2774853018766,-485.5) translate(0 17.1)"/><use xlink:href="#D" transform="matrix(1,0,0,1,-1171.2774853018766,-485.5) translate(90.9 17.1)"/><use xlink:href="#E" transform="matrix(1,0,0,1,-1171.2774853018766,-453.5) translate(0 17.1)"/><use xlink:href="#F" transform="matrix(1,0,0,1,-1171.2774853018766,-453.5) translate(73 17.1)"/><use xlink:href="#G" transform="matrix(1,0,0,1,-1171.2774853018766,-421.5) translate(0 17.1)"/><use xlink:href="#w" transform="matrix(1,0,0,1,-1171.2774853018766,-421.5) translate(23.95 17.1)"/><use xlink:href="#H" transform="matrix(1,0,0,1,-1171.2774853018766,-389.5) translate(0 17.1)"/><use xlink:href="#I" transform="matrix(1,0,0,1,-1171.2774853018766,-389.5) translate(68.9 17.1)"/><use xlink:href="#J" transform="matrix(1,0,0,1,-1171.2774853018766,-357.5) translate(0 17.1)"/><use xlink:href="#I" transform="matrix(1,0,0,1,-1171.2774853018766,-357.5) translate(70.9 17.1)"/><path d="M-1236.28-560h300v40h-300z" stroke="#333" fill="#ffb781"/><use xlink:href="#K" transform="matrix(1,0,0,1,-1231.4774853018766,-555.2) translate(122.14691358024692 19.359722222222224)"/><path d="M-797.28 76.88h278.6v136h-278.6z" fill="#fff"/><path d="M-797.28 116.88v33h278.6v-33" fill="#fff"/><path d="M-797.28 148.88v33h278.6v-33" fill="#fff"/><path d="M-797.28 180.88v32h278.6v-32" fill="#fff"/><path d="M-797.28 116.88v-40h278.6v40" fill="#ccc"/><path d="M-797.28 76.88h278.6v136h-278.6zM-797.28 116.88h278.6M-737.28 116.88v96" stroke="#333" fill="none"/><use xlink:href="#a" transform="matrix(1,0,0,1,-792.2774853018766,119.38128268789592) translate(13 17.1)"/><use xlink:href="#L" transform="matrix(1,0,0,1,-732.2774853018766,119.38128268789592) translate(0 17.1)"/><use xlink:href="#c" transform="matrix(1,0,0,1,-732.2774853018766,119.38128268789592) translate(111.85000000000001 17.1)"/><use xlink:href="#d" transform="matrix(1,0,0,1,-792.2774853018766,151.38128268789592) translate(13.524999999999999 17.1)"/><use xlink:href="#B" transform="matrix(1,0,0,1,-732.2774853018766,151.38128268789592) translate(0 17.1)"/><use xlink:href="#c" transform="matrix(1,0,0,1,-732.2774853018766,151.38128268789592) translate(59.900000000000006 17.1)"/><use xlink:href="#d" transform="matrix(1,0,0,1,-792.2774853018766,183.38128268789592) translate(13.524999999999999 17.1)"/><use xlink:href="#M" transform="matrix(1,0,0,1,-732.2774853018766,183.38128268789592) translate(0 17.1)"/><use xlink:href="#c" transform="matrix(1,0,0,1,-732.2774853018766,183.38128268789592) translate(135.75 17.1)"/><path d="M-795.88 76.88h278.6v35.8h-278.6z" stroke="#333" fill="#ffb781"/><use xlink:href="#N" transform="matrix(1,0,0,1,-791.0844504759266,81.68128268789592) translate(85.99259259259259 19.109722222222224)"/><path d="M-1277.05-240h380v200h-380z" fill="#fff"/><path d="M-1277.05-200v33h380v-33" fill="#fff"/><path d="M-1277.05-168v33h380v-33" fill="#fff"/><path d="M-1277.05-136v33h380v-33" fill="#fff"/><path d="M-1277.05-104v33h380v-33" fill="#fff"/><path d="M-1277.05-72v32h380v-32" fill="#fff"/><path d="M-1277.05-200v-40h380v40" fill="#ccc"/><path d="M-1277.05-240h380v200h-380zM-1277.05-200h380M-1217.05-200v160" stroke="#333" fill="none"/><use xlink:href="#a" transform="matrix(1,0,0,1,-1272.0455201277912,-197.5) translate(13 17.1)"/><use xlink:href="#O" transform="matrix(1,0,0,1,-1212.0455201277912,-197.5) translate(0 17.1)"/><use xlink:href="#c" transform="matrix(1,0,0,1,-1212.0455201277912,-197.5) translate(100.85000000000001 17.1)"/><use xlink:href="#d" transform="matrix(1,0,0,1,-1272.0455201277912,-165.5) translate(13.524999999999999 17.1)"/><use xlink:href="#B" transform="matrix(1,0,0,1,-1212.0455201277912,-165.5) translate(0 17.1)"/><use xlink:href="#c" transform="matrix(1,0,0,1,-1212.0455201277912,-165.5) translate(59.900000000000006 17.1)"/><use xlink:href="#P" transform="matrix(1,0,0,1,-1212.0455201277912,-133.5) translate(0 17.1)"/><use xlink:href="#I" transform="matrix(1,0,0,1,-1212.0455201277912,-133.5) translate(131.85000000000002 17.1)"/><use xlink:href="#Q" transform="matrix(1,0,0,1,-1212.0455201277912,-101.5) translate(0 17.1)"/><use xlink:href="#R" transform="matrix(1,0,0,1,-1212.0455201277912,-101.5) translate(52.95 17.1)"/><use xlink:href="#S" transform="matrix(1,0,0,1,-1212.0455201277912,-69.5) translate(0 17.1)"/><use xlink:href="#t" transform="matrix(1,0,0,1,-1212.0455201277912,-69.5) translate(169.7 17.1)"/><path d="M-1275.5-240h378.45v43.3h-378.46z" stroke="#333" fill="#ffb781"/><use xlink:href="#T" transform="matrix(1,0,0,1,-1270.7094504759625,-235.2) translate(140.9246913580247 19.547222222222224)"/><path d="M-1248.74 55.6h338v200h-338z" fill="#fff"/><path d="M-1248.74 95.6v33h338v-33" fill="#fff"/><path d="M-1248.74 127.6v33h338v-33" fill="#fff"/><path d="M-1248.74 159.6v33h338v-33" fill="#fff"/><path d="M-1248.74 191.6v33h338v-33" fill="#fff"/><path d="M-1248.74 223.6v32h338v-32" fill="#fff"/><path d="M-1248.74 95.6v-40h338v40" fill="#ccc"/><path d="M-1248.74 55.6h338v200h-338zM-1248.74 95.6h338M-1188.74 95.6v160" stroke="#333" fill="none"/><use xlink:href="#a" transform="matrix(1,0,0,1,-1243.7377978313036,98.10187188916515) translate(13 17.1)"/><use xlink:href="#U" transform="matrix(1,0,0,1,-1183.7377978313036,98.10187188916515) translate(0 17.1)"/><use xlink:href="#c" transform="matrix(1,0,0,1,-1183.7377978313036,98.10187188916515) translate(60.85 17.1)"/><use xlink:href="#d" transform="matrix(1,0,0,1,-1243.7377978313036,130.10187188916515) translate(13.524999999999999 17.1)"/><use xlink:href="#O" transform="matrix(1,0,0,1,-1183.7377978313036,130.10187188916515) translate(0 17.1)"/><use xlink:href="#c" transform="matrix(1,0,0,1,-1183.7377978313036,130.10187188916515) translate(100.85000000000001 17.1)"/><use xlink:href="#V" transform="matrix(1,0,0,1,-1183.7377978313036,162.10187188916515) translate(0 17.1)"/><use xlink:href="#t" transform="matrix(1,0,0,1,-1183.7377978313036,162.10187188916515) translate(130.75 17.1)"/><use xlink:href="#d" transform="matrix(1,0,0,1,-1243.7377978313036,194.10187188916515) translate(13.524999999999999 17.1)"/><use xlink:href="#W" transform="matrix(1,0,0,1,-1183.7377978313036,194.10187188916515) translate(0 17.1)"/><use xlink:href="#c" transform="matrix(1,0,0,1,-1183.7377978313036,194.10187188916515) translate(112.15 17.1)"/><use xlink:href="#X" transform="matrix(1,0,0,1,-1183.7377978313036,226.10187188916515) translate(0 17.1)"/><use xlink:href="#I" transform="matrix(1,0,0,1,-1183.7377978313036,226.10187188916515) translate(58 17.1)"/><path d="M-1247.05 55.6h338v36.8h-338z" stroke="#333" fill="#ffb781"/><use xlink:href="#Y" transform="matrix(1,0,0,1,-1242.2477487947801,60.40187188916514) translate(140.67777777777778 19.172222222222224)"/><path d="M-788.62-197.28h261.3v168h-261.3z" fill="#fff"/><path d="M-788.62-157.28v33h261.3v-33" fill="#fff"/><path d="M-788.62-125.28v33h261.3v-33" fill="#fff"/><path d="M-788.62-93.28v33h261.3v-33" fill="#fff"/><path d="M-788.62-61.28v32h261.3v-32" fill="#fff"/><path d="M-788.62-157.28v-40h261.3v40" fill="#ccc"/><path d="M-788.62-197.28h261.3v168h-261.3zM-788.62-157.28h261.3M-728.62-157.28v128" stroke="#333" fill="none"/><use xlink:href="#a" transform="matrix(1,0,0,1,-783.6207688840427,-154.7832356014632) translate(13 17.1)"/><use xlink:href="#Z" transform="matrix(1,0,0,1,-723.6207688840427,-154.7832356014632) translate(0 17.1)"/><use xlink:href="#c" transform="matrix(1,0,0,1,-723.6207688840427,-154.7832356014632) translate(79.8 17.1)"/><use xlink:href="#d" transform="matrix(1,0,0,1,-783.6207688840427,-122.78323560146319) translate(13.524999999999999 17.1)"/><use xlink:href="#O" transform="matrix(1,0,0,1,-723.6207688840427,-122.78323560146319) translate(0 17.1)"/><use xlink:href="#c" transform="matrix(1,0,0,1,-723.6207688840427,-122.78323560146319) translate(100.85000000000001 17.1)"/><use xlink:href="#aa" transform="matrix(1,0,0,1,-723.6207688840427,-90.78323560146319) translate(0 17.1)"/><use xlink:href="#ab" transform="matrix(1,0,0,1,-723.6207688840427,-90.78323560146319) translate(84.7 17.1)"/><use xlink:href="#Q" transform="matrix(1,0,0,1,-723.6207688840427,-58.78323560146319) translate(0 17.1)"/><use xlink:href="#R" transform="matrix(1,0,0,1,-723.6207688840427,-58.78323560146319) translate(52.95 17.1)"/><path d="M-787.33-197.28h258.7v40h-258.7z" stroke="#333" fill="#ffb781"/><use xlink:href="#ac" transform="matrix(1,0,0,1,-782.5272365456606,-192.48323560146318) translate(91.81975308641975 19.359722222222224)"/><path d="M-1712.8-90.9h318.7v136h-318.7z" fill="#fff"/><path d="M-1712.8-50.9v33h318.7v-33" fill="#fff"/><path d="M-1712.8-18.9v33h318.7v-33" fill="#fff"/><path d="M-1712.8 13.1v32h318.7v-32" fill="#fff"/><path d="M-1712.8-50.9v-40h318.7v40" fill="#ccc"/><path d="M-1712.8-90.9h318.7v136h-318.7zM-1712.8-50.9h318.7M-1652.8-50.9v96" stroke="#333" fill="none"/><g><use xlink:href="#a" transform="matrix(1,0,0,1,-1707.791675259982,-48.41086762828661) translate(13 17.1)"/></g><g><use xlink:href="#ad" transform="matrix(1,0,0,1,-1647.791675259982,-48.41086762828661) translate(0 17.1)"/><use xlink:href="#c" transform="matrix(1,0,0,1,-1647.791675259982,-48.41086762828661) translate(50.9 17.1)"/></g><g><use xlink:href="#d" transform="matrix(1,0,0,1,-1707.791675259982,-16.41086762828661) translate(13.524999999999999 17.1)"/></g><g><use xlink:href="#e" transform="matrix(1,0,0,1,-1647.791675259982,-16.41086762828661) translate(0 17.1)"/><use xlink:href="#c" transform="matrix(1,0,0,1,-1647.791675259982,-16.41086762828661) translate(61.85 17.1)"/></g><g><use xlink:href="#d" transform="matrix(1,0,0,1,-1707.791675259982,15.58913237171339) translate(13.524999999999999 17.1)"/></g><g><use xlink:href="#y" transform="matrix(1,0,0,1,-1647.791675259982,15.58913237171339) translate(0 17.1)"/><use xlink:href="#c" transform="matrix(1,0,0,1,-1647.791675259982,15.58913237171339) translate(73.9 17.1)"/></g><path d="M-1712.8-90.9h318.7v41.1h-318.7z" stroke="#333" fill="#ffb781"/><g><use xlink:href="#ae" transform="matrix(1,0,0,1,-1707.991675259982,-86.11086762828661) translate(98.60987654320988 19.422222222222224)"/></g><path d="M-1553.44-334.97v-55.5" stroke="#5e5e5e" stroke-width="2" fill="none"/><path d="M-1552.46-333.97h-1.95V-335h1.94z" stroke="#5e5e5e" stroke-width=".05" fill="#5e5e5e"/><path d="M-1553.44-405.73l4.64 14.26h-9.27z" stroke="#5e5e5e" stroke-width="2" fill="#5e5e5e"/><path d="M-1553.44-144.97v34.74M-1553.44-164.97v20m-10 0h20M-1553.44-91.86v-20m10 20l-10-20m-10 20l10-20M-1553.44 65.6v34.73M-1553.44 45.6v20m-10 0h20M-1553.44 118.7v-20m10 20l-10-20m-10 20l10-20M-1086.28-307.5v48.18M-1086.28-327.5v20m-10 0h20M-1086.28-240.95v-20m10 20l-10-20m-10 20l10-20M-1087.05-19.5v55.78M-1087.05-39.5v20m-10 0h20M-1087.05 54.66v-20m10 20l-10-20m-10 20l10-20M-657.97-8.78v66.34M-657.97-28.78v20m-10 0h20M-657.97 75.93v-20m10 20l-10-20m-10 20l10-20M-876.55-119.95h68.6M-896.55-119.95h20m0 10v-20M-789.57-119.95h-20m20-10l-20 10m20 10l-20-10M-1268.06 175.66h-105.53M-1249.68 175.66h-20m20-10l-20 10m20 10l-20-10M-1393.6 175.66h20m0 10v-20" stroke="#5e5e5e" stroke-width="2" fill="none"/><defs><path d="M30-248c87 1 191-15 191 75 0 78-77 80-158 76V0H30v-248zm33 125c57 0 124 11 124-50 0-59-68-47-124-48v98" id="af"/><path d="M194 0L95-120 63-95V0H30v-248h33v124l119-124h40L117-140 236 0h-42" id="ag"/><g id="a"><use transform="matrix(0.05,0,0,0.05,0,0)" xlink:href="#af"/><use transform="matrix(0.05,0,0,0.05,12,0)" xlink:href="#ag"/></g><path fill="#333" d="M50-231l6-30h32l-6 30H50zM6 0l37-190h31L37 0H6" id="ah"/><path fill="#333" d="M133-28C103 26-5 8 13-77c13-62 24-115 90-117 29-1 46 15 56 35l19-102h32L160 0h-30zM45-64c-2 27 10 43 35 43 54-1 69-50 69-103 0-29-15-46-42-46-53-1-58 58-62 106" id="ai"/><path fill="#333" d="M187 0l-14-72H61L19 0h-37l149-248h38L221 0h-34zm-19-99l-22-123L76-99h92" id="aj"/><path fill="#333" d="M248-111c6-24 9-61-24-58-72 9-57 108-77 169h-31l26-142c3-37-50-30-64-10C52-115 50-51 37 0H6l36-190h30c-1 10-6 24-4 32 13-43 101-52 105 5 13-22 29-41 61-41 90 0 28 129 23 194h-31" id="ak"/><path fill="#333" d="M67-158c22-48 132-52 116 29L158 0h-32l25-140c3-38-53-32-70-12C52-117 51-52 38 0H6l36-190h30" id="al"/><path fill="#333" d="M44-154l7-36h35l-8 36H44zM14 0l7-36h35L49 0H14" id="am"/><g id="b"><use transform="matrix(0.05,0,0,0.05,0,0)" xlink:href="#ah"/><use transform="matrix(0.05,0,0,0.05,3.95,0)" xlink:href="#ai"/><use transform="matrix(0.05,0,0,0.05,13.949999999999998,0)" xlink:href="#aj"/><use transform="matrix(0.05,0,0,0.05,25.950000000000003,0)" xlink:href="#ai"/><use transform="matrix(0.05,0,0,0.05,35.95,0)" xlink:href="#ak"/><use transform="matrix(0.05,0,0,0.05,50.900000000000006,0)" xlink:href="#ah"/><use transform="matrix(0.05,0,0,0.05,54.85,0)" xlink:href="#al"/><use transform="matrix(0.05,0,0,0.05,64.85000000000001,0)" xlink:href="#am"/></g><path fill="#333" d="M14 0l48-248h34L48 0H14" id="an"/><path fill="#333" d="M173 0L80-213 41 0H11l48-248h37l94 214 40-214h30L212 0h-39" id="ao"/><path fill="#333" d="M151-220L108 0H75l42-220H32l6-28h203l-5 28h-85" id="ap"/><g id="c"><use transform="matrix(0.05,0,0,0.05,0,0)" xlink:href="#an"/><use transform="matrix(0.05,0,0,0.05,5,0)" xlink:href="#ao"/><use transform="matrix(0.05,0,0,0.05,17.950000000000003,0)" xlink:href="#ap"/></g><path d="M63-220v92h138v28H63V0H30v-248h175v28H63" id="aq"/><g id="d"><use transform="matrix(0.05,0,0,0.05,0,0)" xlink:href="#aq"/><use transform="matrix(0.05,0,0,0.05,10.950000000000001,0)" xlink:href="#ag"/></g><path fill="#333" d="M62-99C39-31 123 0 170-40s38-139 58-208h34C234-144 253 4 115 4 49 4 18-43 31-112l26-136h34" id="ar"/><path fill="#333" d="M55-144c13 50 104 24 104 88C159 21 15 23 1-39l26-10c6 40 102 42 102-4-13-50-104-23-104-87 0-71 143-71 148-8l-29 4c-5-35-85-37-89 0" id="as"/><path fill="#333" d="M111-194c62-3 86 47 72 106H45c-7 38 6 69 45 68 27-1 43-14 53-32l24 11C152-15 129 4 87 4 38 3 12-23 12-71c0-70 32-119 99-123zm44 81c14-66-71-72-95-28-4 8-8 17-11 28h106" id="at"/><path fill="#333" d="M66-151c12-25 30-51 66-40l-6 26C45-176 58-65 38 0H6l36-190h30" id="au"/><g id="e"><use transform="matrix(0.05,0,0,0.05,0,0)" xlink:href="#ah"/><use transform="matrix(0.05,0,0,0.05,3.95,0)" xlink:href="#ai"/><use transform="matrix(0.05,0,0,0.05,13.949999999999998,0)" xlink:href="#ar"/><use transform="matrix(0.05,0,0,0.05,26.899999999999995,0)" xlink:href="#as"/><use transform="matrix(0.05,0,0,0.05,35.9,0)" xlink:href="#at"/><use transform="matrix(0.05,0,0,0.05,45.9,0)" xlink:href="#au"/><use transform="matrix(0.05,0,0,0.05,51.85,0)" xlink:href="#am"/></g><g id="f"><use transform="matrix(0.04938271604938272,0,0,0.04938271604938272,0,0)" xlink:href="#aj"/><use transform="matrix(0.04938271604938272,0,0,0.04938271604938272,11.851851851851853,0)" xlink:href="#ai"/><use transform="matrix(0.04938271604938272,0,0,0.04938271604938272,21.7283950617284,0)" xlink:href="#ak"/><use transform="matrix(0.04938271604938272,0,0,0.04938271604938272,36.49382716049384,0)" xlink:href="#ah"/><use transform="matrix(0.04938271604938272,0,0,0.04938271604938272,40.39506172839507,0)" xlink:href="#al"/></g><path d="M24-248c120-7 223 5 221 122C244-46 201 0 124 0H24v-248zM76-40c74 7 117-18 117-86 0-67-45-88-117-82v168" id="av"/><path d="M25-224v-37h50v37H25zM25 0v-190h50V0H25" id="aw"/><path d="M133-34C117-15 103 5 69 4 32 3 11-16 11-54c-1-60 55-63 116-61 1-26-3-47-28-47-18 1-26 9-28 27l-52-2c7-38 36-58 82-57s74 22 75 68l1 82c-1 14 12 18 25 15v27c-30 8-71 5-69-32zm-48 3c29 0 43-24 42-57-32 0-66-3-65 30 0 17 8 27 23 27" id="ax"/><path d="M195-6C206 82 75 100 31 46c-4-6-6-13-8-21l49-6c3 16 16 24 34 25 40 0 42-37 40-79-11 22-30 35-61 35-53 0-70-43-70-97 0-56 18-96 73-97 30 0 46 14 59 34l2-30h47zm-90-29c32 0 41-27 41-63 0-35-9-62-40-62-32 0-39 29-40 63 0 36 9 62 39 62" id="ay"/><path d="M135-150c-39-12-60 13-60 57V0H25l-1-190h47c2 13-1 29 3 40 6-28 27-53 61-41v41" id="az"/><path d="M220-157c-53 9-28 100-34 157h-49v-107c1-27-5-49-29-50C55-147 81-57 75 0H25l-1-190h47c2 12-1 28 3 38 10-53 101-56 108 0 13-22 24-43 59-42 82 1 51 116 57 194h-49v-107c-1-25-5-48-29-50" id="aA"/><g id="g"><use transform="matrix(0.0728395061728395,0,0,0.0728395061728395,0,0)" xlink:href="#av"/><use transform="matrix(0.0728395061728395,0,0,0.0728395061728395,18.86543209876543,0)" xlink:href="#aw"/><use transform="matrix(0.0728395061728395,0,0,0.0728395061728395,26.14938271604938,0)" xlink:href="#ax"/><use transform="matrix(0.0728395061728395,0,0,0.0728395061728395,40.717283950617286,0)" xlink:href="#ay"/><use transform="matrix(0.0728395061728395,0,0,0.0728395061728395,56.66913580246913,0)" xlink:href="#az"/><use transform="matrix(0.0728395061728395,0,0,0.0728395061728395,66.86666666666666,0)" xlink:href="#ax"/><use transform="matrix(0.0728395061728395,0,0,0.0728395061728395,81.43456790123457,0)" xlink:href="#aA"/><use transform="matrix(0.0728395061728395,0,0,0.0728395061728395,104.7432098765432,0)" xlink:href="#ax"/></g><path d="M24 0v-248h195v40H76v63h132v40H76v65h150V0H24" id="aB"/><path d="M240-174c0 40-23 61-54 70L253 0h-59l-57-94H76V0H24v-248c93 4 217-23 216 74zM76-134c48-2 112 12 112-38 0-48-66-32-112-35v73" id="aC"/><g id="h"><use transform="matrix(0.0728395061728395,0,0,0.0728395061728395,0,0)" xlink:href="#av"/><use transform="matrix(0.0728395061728395,0,0,0.0728395061728395,18.86543209876543,0)" xlink:href="#aB"/><use transform="matrix(0.0728395061728395,0,0,0.0728395061728395,36.34691358024691,0)" xlink:href="#aC"/></g><path d="M14-72v-43h91v43H14" id="aD"/><use transform="matrix(0.0728395061728395,0,0,0.0728395061728395,0,0)" xlink:href="#aD" id="i"/><path d="M67-125c0 53 21 87 73 88 37 1 54-22 65-47l45 17C233-25 199 4 140 4 58 4 20-42 15-125 8-235 124-281 211-232c18 10 29 29 36 50l-46 12c-8-25-30-41-62-41-52 0-71 34-72 86" id="aE"/><path d="M110-194c64 0 96 36 96 99 0 64-35 99-97 99-61 0-95-36-95-99 0-62 34-99 96-99zm-1 164c35 0 45-28 45-65 0-40-10-65-43-65-34 0-45 26-45 65 0 36 10 65 43 65" id="aF"/><path d="M185-48c-13 30-37 53-82 52C43 2 14-33 14-96s30-98 90-98c62 0 83 45 84 108H66c0 31 8 55 39 56 18 0 30-7 34-22zm-45-69c5-46-57-63-70-21-2 6-4 13-4 21h74" id="aG"/><path d="M275 0h-61l-44-196L126 0H64L0-248h53L97-49l45-199h58l43 199 44-199h52" id="aH"/><path d="M115-3C79 11 28 4 28-45v-112H4v-33h27l15-45h31v45h36v33H77v99c-1 23 16 31 38 25v30" id="aI"/><path d="M190-63c-7 42-38 67-86 67-59 0-84-38-90-98-12-110 154-137 174-36l-49 2c-2-19-15-32-35-32-30 0-35 28-38 64-6 74 65 87 74 30" id="aJ"/><path d="M114-157C55-157 80-60 75 0H25v-261h50l-1 109c12-26 28-41 61-42 86-1 58 113 63 194h-50c-7-57 23-157-34-157" id="aK"/><g id="j"><use transform="matrix(0.0728395061728395,0,0,0.0728395061728395,0,0)" xlink:href="#aE"/><use transform="matrix(0.0728395061728395,0,0,0.0728395061728395,18.86543209876543,0)" xlink:href="#aF"/><use transform="matrix(0.0728395061728395,0,0,0.0728395061728395,34.81728395061728,0)" xlink:href="#az"/><use transform="matrix(0.0728395061728395,0,0,0.0728395061728395,45.01481481481481,0)" xlink:href="#aG"/><use transform="matrix(0.0728395061728395,0,0,0.0728395061728395,59.582716049382704,0)" xlink:href="#aH"/><use transform="matrix(0.0728395061728395,0,0,0.0728395061728395,83.3283950617284,0)" xlink:href="#ax"/><use transform="matrix(0.0728395061728395,0,0,0.0728395061728395,97.89629629629628,0)" xlink:href="#aI"/><use transform="matrix(0.0728395061728395,0,0,0.0728395061728395,106.56419753086419,0)" xlink:href="#aJ"/><use transform="matrix(0.0728395061728395,0,0,0.0728395061728395,121.13209876543209,0)" xlink:href="#aK"/></g><path d="M30 0v-248h33v221h125V0H30" id="aL"/><path d="M232-93c-1 65-40 97-104 97C67 4 28-28 28-90v-158h33c8 89-33 224 67 224 102 0 64-133 71-224h33v155" id="aM"/><path d="M212-179c-10-28-35-45-73-45-59 0-87 40-87 99 0 60 29 101 89 101 43 0 62-24 78-52l27 14C228-24 195 4 139 4 59 4 22-46 18-125c-6-104 99-153 187-111 19 9 31 26 39 46" id="aN"/><path d="M205 0l-28-72H64L36 0H1l101-248h38L239 0h-34zm-38-99l-47-123c-12 45-31 82-46 123h93" id="aO"/><path d="M185-189c-5-48-123-54-124 2 14 75 158 14 163 119 3 78-121 87-175 55-17-10-28-26-33-46l33-7c5 56 141 63 141-1 0-78-155-14-162-118-5-82 145-84 179-34 5 7 8 16 11 25" id="aP"/><g id="k"><use transform="matrix(0.04248971193415638,0,0,0.04248971193415638,0,0)" xlink:href="#aL"/><use transform="matrix(0.04248971193415638,0,0,0.04248971193415638,8.497942386831275,0)" xlink:href="#aM"/><use transform="matrix(0.04248971193415638,0,0,0.04248971193415638,19.502777777777776,0)" xlink:href="#aN"/><use transform="matrix(0.04248971193415638,0,0,0.04248971193415638,30.50761316872428,0)" xlink:href="#aO"/><use transform="matrix(0.04248971193415638,0,0,0.04248971193415638,40.70514403292181,0)" xlink:href="#aP"/></g><path d="M30-248c118-7 216 8 213 122C240-48 200 0 122 0H30v-248zM63-27c89 8 146-16 146-99s-60-101-146-95v194" id="aQ"/><path d="M30 0v-248h187v28H63v79h144v27H63v87h162V0H30" id="aR"/><g id="l"><use transform="matrix(0.04248971193415638,0,0,0.04248971193415638,0,0)" xlink:href="#aQ"/><use transform="matrix(0.04248971193415638,0,0,0.04248971193415638,11.004835390946502,0)" xlink:href="#aR"/></g><path d="M140-251c81 0 123 46 123 126C263-46 219 4 140 4 59 4 17-45 17-125s42-126 123-126zm0 227c63 0 89-41 89-101s-29-99-89-99c-61 0-89 39-89 99S79-25 140-24" id="aS"/><g id="m"><use transform="matrix(0.04248971193415638,0,0,0.04248971193415638,0,0)" xlink:href="#aP"/><use transform="matrix(0.04248971193415638,0,0,0.04248971193415638,10.19753086419753,0)" xlink:href="#aS"/><use transform="matrix(0.04248971193415638,0,0,0.04248971193415638,22.094650205761315,0)" xlink:href="#aM"/><use transform="matrix(0.04248971193415638,0,0,0.04248971193415638,33.099485596707815,0)" xlink:href="#aP"/><use transform="matrix(0.04248971193415638,0,0,0.04248971193415638,43.29701646090535,0)" xlink:href="#aO"/></g><path d="M233-177c-1 41-23 64-60 70L243 0h-38l-65-103H63V0H30v-248c88 3 205-21 203 71zM63-129c60-2 137 13 137-47 0-61-80-42-137-45v92" id="aT"/><path d="M33 0v-248h34V0H33" id="aU"/><path d="M143 4C61 4 22-44 18-125c-5-107 100-154 193-111 17 8 29 25 37 43l-32 9c-13-25-37-40-76-40-61 0-88 39-88 99 0 61 29 100 91 101 35 0 62-11 79-27v-45h-74v-28h105v86C228-13 192 4 143 4" id="aV"/><g id="n"><use transform="matrix(0.04248971193415638,0,0,0.04248971193415638,0,0)" xlink:href="#aT"/><use transform="matrix(0.04248971193415638,0,0,0.04248971193415638,11.004835390946502,0)" xlink:href="#aS"/><use transform="matrix(0.04248971193415638,0,0,0.04248971193415638,22.901954732510287,0)" xlink:href="#aQ"/><use transform="matrix(0.04248971193415638,0,0,0.04248971193415638,33.90679012345679,0)" xlink:href="#aT"/><use transform="matrix(0.04248971193415638,0,0,0.04248971193415638,44.91162551440329,0)" xlink:href="#aU"/><use transform="matrix(0.04248971193415638,0,0,0.04248971193415638,49.160596707818925,0)" xlink:href="#aV"/><use transform="matrix(0.04248971193415638,0,0,0.04248971193415638,61.05771604938271,0)" xlink:href="#aM"/><use transform="matrix(0.04248971193415638,0,0,0.04248971193415638,72.06255144032922,0)" xlink:href="#aR"/><use transform="matrix(0.04248971193415638,0,0,0.04248971193415638,82.26008230452675,0)" xlink:href="#aP"/></g><path d="M32 76v-337h29V76H32" id="aW"/><use transform="matrix(0.04248971193415638,0,0,0.04248971193415638,0,0)" xlink:href="#aW" id="o"/><path d="M153-248C145-148 188 4 80 4 36 3 13-21 6-62l32-5c4 25 16 42 43 43 27 0 39-20 39-49v-147H72v-28h81" id="aX"/><path d="M84 4C-5 8 30-112 23-190h32v120c0 31 7 50 39 49 72-2 45-101 50-169h31l1 190h-30c-1-10 1-25-2-33-11 22-28 36-60 37" id="aY"/><path d="M117-194c89-4 53 116 60 194h-32v-121c0-31-8-49-39-48C34-167 62-67 57 0H25l-1-190h30c1 10-1 24 2 32 11-22 29-35 61-36" id="aZ"/><path d="M100-194c63 0 86 42 84 106H49c0 40 14 67 53 68 26 1 43-12 49-29l28 8c-11 28-37 45-77 45C44 4 14-33 15-96c1-61 26-98 85-98zm52 81c6-60-76-77-97-28-3 7-6 17-6 28h103" id="ba"/><g id="p"><use transform="matrix(0.04248971193415638,0,0,0.04248971193415638,0,0)" xlink:href="#aX"/><use transform="matrix(0.04248971193415638,0,0,0.04248971193415638,7.648148148148148,0)" xlink:href="#aY"/><use transform="matrix(0.04248971193415638,0,0,0.04248971193415638,16.14609053497942,0)" xlink:href="#aZ"/><use transform="matrix(0.04248971193415638,0,0,0.04248971193415638,24.644032921810698,0)" xlink:href="#ba"/></g><path d="M101-251c82-7 93 87 43 132L82-64C71-53 59-42 53-27h129V0H18c2-99 128-94 128-182 0-28-16-43-45-43s-46 15-49 41l-32-3c6-41 34-60 81-64" id="bb"/><path d="M27 0v-27h64v-190l-56 39v-29l58-41h29v221h61V0H27" id="bc"/><path d="M68-38c1 34 0 65-14 84H32c9-13 17-26 17-46H33v-38h35" id="bd"/><g id="q"><use transform="matrix(0.04248971193415638,0,0,0.04248971193415638,0,0)" xlink:href="#bb"/><use transform="matrix(0.04248971193415638,0,0,0.04248971193415638,8.497942386831275,0)" xlink:href="#bc"/><use transform="matrix(0.04248971193415638,0,0,0.04248971193415638,16.99588477366255,0)" xlink:href="#bd"/></g><path d="M101-251c68 0 85 55 85 127S166 4 100 4C33 4 14-52 14-124c0-73 17-127 87-127zm-1 229c47 0 54-49 54-102s-4-102-53-102c-51 0-55 48-55 102 0 53 5 102 54 102" id="be"/><path d="M54-142c48-35 137-8 131 61C196 18 31 33 14-55l32-4c7 23 22 37 52 37 35-1 51-22 54-58 4-55-73-65-99-34H22l8-134h141v27H59" id="bf"/><g id="r"><use transform="matrix(0.04248971193415638,0,0,0.04248971193415638,0,0)" xlink:href="#bb"/><use transform="matrix(0.04248971193415638,0,0,0.04248971193415638,8.497942386831275,0)" xlink:href="#be"/><use transform="matrix(0.04248971193415638,0,0,0.04248971193415638,16.99588477366255,0)" xlink:href="#bb"/><use transform="matrix(0.04248971193415638,0,0,0.04248971193415638,25.493827160493822,0)" xlink:href="#bf"/></g><path fill="#333" d="M67 3c-93-2-31-127-26-193h32L48-50c-3 39 53 32 70 12 30-34 30-101 43-152h32L157 0h-30c1-10 6-24 4-33-14 20-29 37-64 36" id="bg"/><path fill="#333" d="M165-48c-4 18 1 34 23 27l-3 20c-29 8-62 0-52-35h-2C116-14 99 4 63 4 30 4 8-16 8-49c0-68 71-67 138-67 10-26 0-56-31-54-26 1-42 9-47 31l-32-5c8-67 160-71 144 15-5 28-9 54-15 81zM42-50c3 52 80 24 89-6 7-12 7-24 11-38-47 1-103-4-100 44" id="bh"/><g id="s"><use transform="matrix(0.05,0,0,0.05,0,0)" xlink:href="#bg"/><use transform="matrix(0.05,0,0,0.05,10,0)" xlink:href="#as"/><use transform="matrix(0.05,0,0,0.05,19,0)" xlink:href="#at"/><use transform="matrix(0.05,0,0,0.05,29,0)" xlink:href="#au"/><use transform="matrix(0.05,0,0,0.05,34.95,0)" xlink:href="#ao"/><use transform="matrix(0.05,0,0,0.05,47.900000000000006,0)" xlink:href="#bh"/><use transform="matrix(0.05,0,0,0.05,57.900000000000006,0)" xlink:href="#ak"/><use transform="matrix(0.05,0,0,0.05,72.85000000000001,0)" xlink:href="#at"/><use transform="matrix(0.05,0,0,0.05,82.85000000000001,0)" xlink:href="#am"/></g><path fill="#333" d="M119 0H84L31-248h34l41 218 126-218h36" id="bi"/><path fill="#333" d="M249-183c0 48-29 72-75 77L221 0h-36l-43-103H65L45 0H11l48-248c83 2 190-17 190 65zm-34 3c0-55-74-39-127-41l-18 92c63-1 145 13 145-51" id="bj"/><path fill="#333" d="M125-24c46 0 70-25 89-51l25 16C214-24 183 4 123 4 8 4-5-146 60-208c32-50 158-61 191-5 5 7 9 14 11 22l-32 10c-9-28-33-43-69-43-74 0-108 51-108 125 0 46 24 75 72 75" id="bk"/><path fill="#333" d="M179 0l23-115H67L45 0H11l48-248h34L72-143h135l21-105h32L212 0h-33" id="bl"/><path fill="#333" d="M17-49c1-102 45-165 103-212h30C92-210 49-145 49-46 49 4 63 43 85 75H54C30 43 18 2 17-49" id="bm"/><path fill="#333" d="M9 0l6-27h63l36-188-63 39 6-31 66-41h29L110-27h60l-5 27H9" id="bn"/><path fill="#333" d="M16-82c0-90 25-169 113-169 48 0 68 33 68 82C197-79 170 4 84 4 37 4 16-31 16-82zm30 5c0 32 11 55 40 55 69 0 76-79 80-149 2-32-10-55-39-55-69 0-81 81-81 149" id="bo"/><path fill="#333" d="M98-137C97-35 54 29-4 75h-31C23 23 67-41 67-140c0-50-15-89-37-121h31c24 32 36 73 37 124" id="bp"/><g id="t"><use transform="matrix(0.05,0,0,0.05,0,0)" xlink:href="#bi"/><use transform="matrix(0.05,0,0,0.05,11,0)" xlink:href="#aj"/><use transform="matrix(0.05,0,0,0.05,23,0)" xlink:href="#bj"/><use transform="matrix(0.05,0,0,0.05,35.95,0)" xlink:href="#bk"/><use transform="matrix(0.05,0,0,0.05,48.900000000000006,0)" xlink:href="#bl"/><use transform="matrix(0.05,0,0,0.05,61.85,0)" xlink:href="#aj"/><use transform="matrix(0.05,0,0,0.05,73.85000000000001,0)" xlink:href="#bj"/><use transform="matrix(0.05,0,0,0.05,86.80000000000001,0)" xlink:href="#bm"/><use transform="matrix(0.05,0,0,0.05,92.75000000000001,0)" xlink:href="#bn"/><use transform="matrix(0.05,0,0,0.05,102.75,0)" xlink:href="#bo"/><use transform="matrix(0.05,0,0,0.05,112.75,0)" xlink:href="#bo"/><use transform="matrix(0.05,0,0,0.05,122.75,0)" xlink:href="#bp"/></g><path fill="#333" d="M11 0l48-248h184l-5 28H87l-15 79h140l-5 27H67L50-27h158l-5 27H11" id="bq"/><path fill="#333" d="M6 0l50-261h32L37 0H6" id="br"/><g id="u"><use transform="matrix(0.05,0,0,0.05,0,0)" xlink:href="#bg"/><use transform="matrix(0.05,0,0,0.05,10,0)" xlink:href="#as"/><use transform="matrix(0.05,0,0,0.05,19,0)" xlink:href="#at"/><use transform="matrix(0.05,0,0,0.05,29,0)" xlink:href="#au"/><use transform="matrix(0.05,0,0,0.05,34.95,0)" xlink:href="#bq"/><use transform="matrix(0.05,0,0,0.05,46.95,0)" xlink:href="#ak"/><use transform="matrix(0.05,0,0,0.05,61.900000000000006,0)" xlink:href="#bh"/><use transform="matrix(0.05,0,0,0.05,71.9,0)" xlink:href="#ah"/><use transform="matrix(0.05,0,0,0.05,75.85000000000001,0)" xlink:href="#br"/><use transform="matrix(0.05,0,0,0.05,79.80000000000001,0)" xlink:href="#am"/></g><path fill="#333" d="M238-179c0 84-86 86-175 82L45 0H11l48-248c82 0 179-12 179 69zm-34 1c0-53-64-42-116-43l-19 98c63 0 135 9 135-55" id="bs"/><path fill="#333" d="M188 0h-37l-8-164L71 0H34L18-190h31l8 164 75-164h34l8 164 74-164h31" id="bt"/><g id="v"><use transform="matrix(0.05,0,0,0.05,0,0)" xlink:href="#bg"/><use transform="matrix(0.05,0,0,0.05,10,0)" xlink:href="#as"/><use transform="matrix(0.05,0,0,0.05,19,0)" xlink:href="#at"/><use transform="matrix(0.05,0,0,0.05,29,0)" xlink:href="#au"/><use transform="matrix(0.05,0,0,0.05,34.95,0)" xlink:href="#bs"/><use transform="matrix(0.05,0,0,0.05,46.95,0)" xlink:href="#bt"/><use transform="matrix(0.05,0,0,0.05,59.900000000000006,0)" xlink:href="#ai"/><use transform="matrix(0.05,0,0,0.05,69.9,0)" xlink:href="#am"/></g><path fill="#333" d="M184-94c-4 58-33 98-90 98-50 0-74-35-74-86 0-94 36-181 136-167 24 3 39 21 44 47l-29 6c-8-40-68-34-87-5-13 20-24 43-30 73 28-51 135-39 130 34zm-73-42c-35 2-61 22-60 62 1 30 14 52 44 52 38 0 55-31 56-70 1-26-14-46-40-44" id="bu"/><g id="w"><use transform="matrix(0.05,0,0,0.05,0,0)" xlink:href="#bi"/><use transform="matrix(0.05,0,0,0.05,11,0)" xlink:href="#aj"/><use transform="matrix(0.05,0,0,0.05,23,0)" xlink:href="#bj"/><use transform="matrix(0.05,0,0,0.05,35.95,0)" xlink:href="#bk"/><use transform="matrix(0.05,0,0,0.05,48.900000000000006,0)" xlink:href="#bl"/><use transform="matrix(0.05,0,0,0.05,61.85,0)" xlink:href="#aj"/><use transform="matrix(0.05,0,0,0.05,73.85000000000001,0)" xlink:href="#bj"/><use transform="matrix(0.05,0,0,0.05,86.80000000000001,0)" xlink:href="#bm"/><use transform="matrix(0.05,0,0,0.05,92.75000000000001,0)" xlink:href="#bn"/><use transform="matrix(0.05,0,0,0.05,102.75,0)" xlink:href="#bu"/><use transform="matrix(0.05,0,0,0.05,112.75,0)" xlink:href="#bp"/></g><g id="x"><use transform="matrix(0.04938271604938272,0,0,0.04938271604938272,0,0)" xlink:href="#ar"/><use transform="matrix(0.04938271604938272,0,0,0.04938271604938272,12.790123456790125,0)" xlink:href="#as"/><use transform="matrix(0.04938271604938272,0,0,0.04938271604938272,21.679012345679013,0)" xlink:href="#at"/><use transform="matrix(0.04938271604938272,0,0,0.04938271604938272,31.555555555555557,0)" xlink:href="#au"/></g><path fill="#333" d="M52-101C46-14 166-7 216-51l9-45h-74l6-28h105l-18 87C217-12 181 4 130 4 60 4 18-31 18-101c0-106 78-167 188-146 30 6 48 27 59 54l-34 9c-10-26-31-41-67-40-75 1-107 50-112 123" id="bv"/><path fill="#333" d="M30-147c31-64 166-65 159 27C183-49 158 1 86 4 9 8 1-88 30-147zM88-20c53 0 68-48 68-100 0-31-11-51-44-50-52 1-68 46-68 97 0 32 13 53 44 53" id="bw"/><path fill="#333" d="M67-162c32-53 139-36 121 50C175-51 163 2 97 4 68 4 52-11 42-31 38 6 28 39 22 75H-9l50-265h29c-1 10 0 20-3 28zm89 36c0-26-10-43-35-43-54 0-67 50-69 103-1 29 14 45 42 46 53 0 62-58 62-106" id="bx"/><g id="y"><use transform="matrix(0.05,0,0,0.05,0,0)" xlink:href="#ah"/><use transform="matrix(0.05,0,0,0.05,3.95,0)" xlink:href="#ai"/><use transform="matrix(0.05,0,0,0.05,13.949999999999998,0)" xlink:href="#bv"/><use transform="matrix(0.05,0,0,0.05,27.950000000000003,0)" xlink:href="#au"/><use transform="matrix(0.05,0,0,0.05,33.9,0)" xlink:href="#bw"/><use transform="matrix(0.05,0,0,0.05,43.9,0)" xlink:href="#bg"/><use transform="matrix(0.05,0,0,0.05,53.900000000000006,0)" xlink:href="#bx"/><use transform="matrix(0.05,0,0,0.05,63.900000000000006,0)" xlink:href="#am"/></g><path fill="#333" d="M44-68c0 29 11 47 38 47 30 0 42-19 51-41l28 9C148-21 126 4 82 4 31 4 10-29 12-85c3-77 74-140 146-93 12 8 15 23 18 40l-31 5c-1-22-13-36-36-36-52 0-65 49-65 101" id="by"/><path fill="#333" d="M51-54c-9 22 5 41 31 30L79-1C43 14 10-4 19-52l22-115H19l5-23h22l19-43h21l-9 43h35l-4 23H73" id="bz"/><g id="z"><use transform="matrix(0.05,0,0,0.05,0,0)" xlink:href="#ai"/><use transform="matrix(0.05,0,0,0.05,10,0)" xlink:href="#at"/><use transform="matrix(0.05,0,0,0.05,20,0)" xlink:href="#as"/><use transform="matrix(0.05,0,0,0.05,29,0)" xlink:href="#by"/><use transform="matrix(0.05,0,0,0.05,38,0)" xlink:href="#au"/><use transform="matrix(0.05,0,0,0.05,43.95,0)" xlink:href="#ah"/><use transform="matrix(0.05,0,0,0.05,47.900000000000006,0)" xlink:href="#bx"/><use transform="matrix(0.05,0,0,0.05,57.900000000000006,0)" xlink:href="#bz"/><use transform="matrix(0.05,0,0,0.05,62.900000000000006,0)" xlink:href="#ah"/><use transform="matrix(0.05,0,0,0.05,66.85000000000001,0)" xlink:href="#bw"/><use transform="matrix(0.05,0,0,0.05,76.85000000000001,0)" xlink:href="#al"/><use transform="matrix(0.05,0,0,0.05,86.85000000000001,0)" xlink:href="#am"/></g><path fill="#333" d="M103-194c29 0 47 14 56 36 2-11 5-23 8-32h30L160-5C157 61 82 97 21 62 9 55 4 45 1 30l28-7c7 42 83 31 92-3 4-16 9-38 13-55-13 20-29 36-62 36-40 0-60-25-60-64 0-71 23-131 91-131zm4 24c-53 0-58 54-61 104-2 27 10 44 36 44 49 0 65-50 67-102 1-29-15-46-42-46" id="bA"/><path fill="#333" d="M-28 44V31h207v13H-28" id="bB"/><g id="A"><use transform="matrix(0.04938271604938272,0,0,0.04938271604938272,0,0)" xlink:href="#bA"/><use transform="matrix(0.04938271604938272,0,0,0.04938271604938272,9.876543209876544,0)" xlink:href="#au"/><use transform="matrix(0.04938271604938272,0,0,0.04938271604938272,15.753086419753087,0)" xlink:href="#bw"/><use transform="matrix(0.04938271604938272,0,0,0.04938271604938272,25.629629629629633,0)" xlink:href="#bg"/><use transform="matrix(0.04938271604938272,0,0,0.04938271604938272,35.50617283950618,0)" xlink:href="#bx"/><use transform="matrix(0.04938271604938272,0,0,0.04938271604938272,45.38271604938272,0)" xlink:href="#as"/><use transform="matrix(0.04938271604938272,0,0,0.04938271604938272,54.27160493827161,0)" xlink:href="#bB"/><use transform="matrix(0.04938271604938272,0,0,0.04938271604938272,64.14814814814815,0)" xlink:href="#bz"/><use transform="matrix(0.04938271604938272,0,0,0.04938271604938272,69.08641975308643,0)" xlink:href="#at"/><use transform="matrix(0.04938271604938272,0,0,0.04938271604938272,78.96296296296298,0)" xlink:href="#bh"/><use transform="matrix(0.04938271604938272,0,0,0.04938271604938272,88.83950617283952,0)" xlink:href="#ak"/><use transform="matrix(0.04938271604938272,0,0,0.04938271604938272,103.60493827160495,0)" xlink:href="#as"/></g><path fill="#333" d="M11 0l48-248h34L50-27h125l-5 27H11" id="bC"/><g id="B"><use transform="matrix(0.05,0,0,0.05,0,0)" xlink:href="#ah"/><use transform="matrix(0.05,0,0,0.05,3.95,0)" xlink:href="#ai"/><use transform="matrix(0.05,0,0,0.05,13.949999999999998,0)" xlink:href="#bC"/><use transform="matrix(0.05,0,0,0.05,23.95,0)" xlink:href="#bx"/><use transform="matrix(0.05,0,0,0.05,33.95,0)" xlink:href="#bh"/><use transform="matrix(0.05,0,0,0.05,43.95,0)" xlink:href="#au"/><use transform="matrix(0.05,0,0,0.05,49.900000000000006,0)" xlink:href="#am"/></g><g id="C"><use transform="matrix(0.05,0,0,0.05,0,0)" xlink:href="#al"/><use transform="matrix(0.05,0,0,0.05,10,0)" xlink:href="#bh"/><use transform="matrix(0.05,0,0,0.05,20,0)" xlink:href="#ak"/><use transform="matrix(0.05,0,0,0.05,34.95,0)" xlink:href="#at"/><use transform="matrix(0.05,0,0,0.05,44.95,0)" xlink:href="#bC"/><use transform="matrix(0.05,0,0,0.05,54.95,0)" xlink:href="#bx"/><use transform="matrix(0.05,0,0,0.05,64.95,0)" xlink:href="#bh"/><use transform="matrix(0.05,0,0,0.05,74.95,0)" xlink:href="#au"/><use transform="matrix(0.05,0,0,0.05,80.9,0)" xlink:href="#am"/></g><g id="D"><use transform="matrix(0.05,0,0,0.05,0,0)" xlink:href="#bi"/><use transform="matrix(0.05,0,0,0.05,11,0)" xlink:href="#aj"/><use transform="matrix(0.05,0,0,0.05,23,0)" xlink:href="#bj"/><use transform="matrix(0.05,0,0,0.05,35.95,0)" xlink:href="#bk"/><use transform="matrix(0.05,0,0,0.05,48.900000000000006,0)" xlink:href="#bl"/><use transform="matrix(0.05,0,0,0.05,61.85,0)" xlink:href="#aj"/><use transform="matrix(0.05,0,0,0.05,73.85000000000001,0)" xlink:href="#bj"/><use transform="matrix(0.05,0,0,0.05,86.80000000000001,0)" xlink:href="#bm"/><use transform="matrix(0.05,0,0,0.05,92.75000000000001,0)" xlink:href="#bn"/><use transform="matrix(0.05,0,0,0.05,102.75,0)" xlink:href="#bo"/><use transform="matrix(0.05,0,0,0.05,112.75,0)" xlink:href="#bp"/></g><g id="E"><use transform="matrix(0.05,0,0,0.05,0,0)" xlink:href="#bh"/><use transform="matrix(0.05,0,0,0.05,10,0)" xlink:href="#by"/><use transform="matrix(0.05,0,0,0.05,19,0)" xlink:href="#by"/><use transform="matrix(0.05,0,0,0.05,28,0)" xlink:href="#bw"/><use transform="matrix(0.05,0,0,0.05,38,0)" xlink:href="#bg"/><use transform="matrix(0.05,0,0,0.05,48,0)" xlink:href="#al"/><use transform="matrix(0.05,0,0,0.05,58,0)" xlink:href="#bz"/><use transform="matrix(0.05,0,0,0.05,63,0)" xlink:href="#am"/></g><path fill="#333" d="M151-85c6-55-69-56-94-29H26l34-134h141l-5 27H84l-20 79c41-34 127-11 121 53C199 13 30 38 8-54l29-8C52 0 159-13 151-85" id="bD"/><g id="F"><use transform="matrix(0.05,0,0,0.05,0,0)" xlink:href="#bi"/><use transform="matrix(0.05,0,0,0.05,11,0)" xlink:href="#aj"/><use transform="matrix(0.05,0,0,0.05,23,0)" xlink:href="#bj"/><use transform="matrix(0.05,0,0,0.05,35.95,0)" xlink:href="#bk"/><use transform="matrix(0.05,0,0,0.05,48.900000000000006,0)" xlink:href="#bl"/><use transform="matrix(0.05,0,0,0.05,61.85,0)" xlink:href="#aj"/><use transform="matrix(0.05,0,0,0.05,73.85000000000001,0)" xlink:href="#bj"/><use transform="matrix(0.05,0,0,0.05,86.80000000000001,0)" xlink:href="#bm"/><use transform="matrix(0.05,0,0,0.05,92.75000000000001,0)" xlink:href="#bD"/><use transform="matrix(0.05,0,0,0.05,102.75,0)" xlink:href="#bo"/><use transform="matrix(0.05,0,0,0.05,112.75,0)" xlink:href="#bp"/></g><g id="G"><use transform="matrix(0.05,0,0,0.05,0,0)" xlink:href="#ah"/><use transform="matrix(0.05,0,0,0.05,3.95,0)" xlink:href="#bx"/><use transform="matrix(0.05,0,0,0.05,13.949999999999998,0)" xlink:href="#am"/></g><g id="H"><use transform="matrix(0.05,0,0,0.05,0,0)" xlink:href="#br"/><use transform="matrix(0.05,0,0,0.05,3.95,0)" xlink:href="#bg"/><use transform="matrix(0.05,0,0,0.05,13.949999999999998,0)" xlink:href="#al"/><use transform="matrix(0.05,0,0,0.05,23.95,0)" xlink:href="#bh"/><use transform="matrix(0.05,0,0,0.05,33.95,0)" xlink:href="#ak"/><use transform="matrix(0.05,0,0,0.05,48.900000000000006,0)" xlink:href="#at"/><use transform="matrix(0.05,0,0,0.05,58.900000000000006,0)" xlink:href="#am"/></g><path fill="#333" d="M123-251c66 0 92 69 53 113C138-94 73-75 39-27h128l-5 27H-2c17-92 123-93 159-163 14-28-1-64-36-62-29 2-46 17-54 41l-30-6c13-36 37-61 86-61" id="bE"/><g id="I"><use transform="matrix(0.05,0,0,0.05,0,0)" xlink:href="#bi"/><use transform="matrix(0.05,0,0,0.05,11,0)" xlink:href="#aj"/><use transform="matrix(0.05,0,0,0.05,23,0)" xlink:href="#bj"/><use transform="matrix(0.05,0,0,0.05,35.95,0)" xlink:href="#bk"/><use transform="matrix(0.05,0,0,0.05,48.900000000000006,0)" xlink:href="#bl"/><use transform="matrix(0.05,0,0,0.05,61.85,0)" xlink:href="#aj"/><use transform="matrix(0.05,0,0,0.05,73.85000000000001,0)" xlink:href="#bj"/><use transform="matrix(0.05,0,0,0.05,86.80000000000001,0)" xlink:href="#bm"/><use transform="matrix(0.05,0,0,0.05,92.75000000000001,0)" xlink:href="#bE"/><use transform="matrix(0.05,0,0,0.05,102.75,0)" xlink:href="#bo"/><use transform="matrix(0.05,0,0,0.05,112.75,0)" xlink:href="#bp"/></g><path fill="#333" d="M89 0H52L20-190h33L74-25l89-165h34" id="bF"/><g id="J"><use transform="matrix(0.05,0,0,0.05,0,0)" xlink:href="#br"/><use transform="matrix(0.05,0,0,0.05,3.95,0)" xlink:href="#bx"/><use transform="matrix(0.05,0,0,0.05,13.949999999999998,0)" xlink:href="#bh"/><use transform="matrix(0.05,0,0,0.05,23.95,0)" xlink:href="#au"/><use transform="matrix(0.05,0,0,0.05,29.899999999999995,0)" xlink:href="#bq"/><use transform="matrix(0.05,0,0,0.05,41.9,0)" xlink:href="#al"/><use transform="matrix(0.05,0,0,0.05,51.900000000000006,0)" xlink:href="#bF"/><use transform="matrix(0.05,0,0,0.05,60.900000000000006,0)" xlink:href="#am"/></g><g id="K"><use transform="matrix(0.04938271604938272,0,0,0.04938271604938272,0,0)" xlink:href="#bC"/><use transform="matrix(0.04938271604938272,0,0,0.04938271604938272,9.876543209876544,0)" xlink:href="#bx"/><use transform="matrix(0.04938271604938272,0,0,0.04938271604938272,19.75308641975309,0)" xlink:href="#bh"/><use transform="matrix(0.04938271604938272,0,0,0.04938271604938272,29.629629629629633,0)" xlink:href="#au"/></g><path fill="#333" d="M248-139C247-14 144 9 11 0l48-248c105-6 190 8 189 109zm-34 0c1-70-52-87-126-82L50-27c98 7 163-21 164-112" id="bG"/><path fill="#333" d="M67-158c15-20 31-36 64-36 94 0 33 127 27 194h-32l25-140c3-38-53-32-70-12C52-117 51-51 37 0H6l51-261h31" id="bH"/><path fill="#333" d="M68-162c25-46 127-43 121 31C183-60 169 1 98 4 69 5 53-11 43-31L36 0H5l52-261h31zm88 36c2-27-9-43-34-43-55 0-70 51-70 103 0 29 15 45 43 46 52 0 58-58 61-106" id="bI"/><g id="L"><use transform="matrix(0.05,0,0,0.05,0,0)" xlink:href="#ah"/><use transform="matrix(0.05,0,0,0.05,3.95,0)" xlink:href="#ai"/><use transform="matrix(0.05,0,0,0.05,13.949999999999998,0)" xlink:href="#bG"/><use transform="matrix(0.05,0,0,0.05,26.899999999999995,0)" xlink:href="#bh"/><use transform="matrix(0.05,0,0,0.05,36.9,0)" xlink:href="#as"/><use transform="matrix(0.05,0,0,0.05,45.9,0)" xlink:href="#bH"/><use transform="matrix(0.05,0,0,0.05,55.900000000000006,0)" xlink:href="#bI"/><use transform="matrix(0.05,0,0,0.05,65.9,0)" xlink:href="#bw"/><use transform="matrix(0.05,0,0,0.05,75.9,0)" xlink:href="#bh"/><use transform="matrix(0.05,0,0,0.05,85.9,0)" xlink:href="#au"/><use transform="matrix(0.05,0,0,0.05,91.85000000000001,0)" xlink:href="#ai"/><use transform="matrix(0.05,0,0,0.05,101.85000000000001,0)" xlink:href="#am"/></g><path fill="#333" d="M198-190L69 30C53 58 25 83-20 72c4-11-1-27 19-22 33-1 43-29 59-52L20-190h32L79-34l84-156h35" id="bJ"/><g id="M"><use transform="matrix(0.05,0,0,0.05,0,0)" xlink:href="#au"/><use transform="matrix(0.05,0,0,0.05,5.95,0)" xlink:href="#at"/><use transform="matrix(0.05,0,0,0.05,15.949999999999998,0)" xlink:href="#as"/><use transform="matrix(0.05,0,0,0.05,24.95,0)" xlink:href="#bw"/><use transform="matrix(0.05,0,0,0.05,34.95,0)" xlink:href="#bg"/><use transform="matrix(0.05,0,0,0.05,44.95,0)" xlink:href="#au"/><use transform="matrix(0.05,0,0,0.05,50.900000000000006,0)" xlink:href="#by"/><use transform="matrix(0.05,0,0,0.05,59.900000000000006,0)" xlink:href="#at"/><use transform="matrix(0.05,0,0,0.05,69.9,0)" xlink:href="#bl"/><use transform="matrix(0.05,0,0,0.05,82.85000000000001,0)" xlink:href="#ah"/><use transform="matrix(0.05,0,0,0.05,86.80000000000001,0)" xlink:href="#as"/><use transform="matrix(0.05,0,0,0.05,95.80000000000001,0)" xlink:href="#bz"/><use transform="matrix(0.05,0,0,0.05,100.80000000000001,0)" xlink:href="#bw"/><use transform="matrix(0.05,0,0,0.05,110.80000000000001,0)" xlink:href="#au"/><use transform="matrix(0.05,0,0,0.05,116.75,0)" xlink:href="#bJ"/><use transform="matrix(0.05,0,0,0.05,125.75,0)" xlink:href="#am"/></g><g id="N"><use transform="matrix(0.04938271604938272,0,0,0.04938271604938272,0,0)" xlink:href="#bG"/><use transform="matrix(0.04938271604938272,0,0,0.04938271604938272,12.790123456790125,0)" xlink:href="#bh"/><use transform="matrix(0.04938271604938272,0,0,0.04938271604938272,22.66666666666667,0)" xlink:href="#as"/><use transform="matrix(0.04938271604938272,0,0,0.04938271604938272,31.555555555555557,0)" xlink:href="#bH"/><use transform="matrix(0.04938271604938272,0,0,0.04938271604938272,41.4320987654321,0)" xlink:href="#bI"/><use transform="matrix(0.04938271604938272,0,0,0.04938271604938272,51.308641975308646,0)" xlink:href="#bw"/><use transform="matrix(0.04938271604938272,0,0,0.04938271604938272,61.18518518518519,0)" xlink:href="#bh"/><use transform="matrix(0.04938271604938272,0,0,0.04938271604938272,71.06172839506173,0)" xlink:href="#au"/><use transform="matrix(0.04938271604938272,0,0,0.04938271604938272,76.93827160493828,0)" xlink:href="#ai"/></g><g id="O"><use transform="matrix(0.05,0,0,0.05,0,0)" xlink:href="#ah"/><use transform="matrix(0.05,0,0,0.05,3.95,0)" xlink:href="#ai"/><use transform="matrix(0.05,0,0,0.05,13.949999999999998,0)" xlink:href="#bj"/><use transform="matrix(0.05,0,0,0.05,26.899999999999995,0)" xlink:href="#at"/><use transform="matrix(0.05,0,0,0.05,36.9,0)" xlink:href="#as"/><use transform="matrix(0.05,0,0,0.05,45.9,0)" xlink:href="#bw"/><use transform="matrix(0.05,0,0,0.05,55.900000000000006,0)" xlink:href="#bg"/><use transform="matrix(0.05,0,0,0.05,65.9,0)" xlink:href="#au"/><use transform="matrix(0.05,0,0,0.05,71.85000000000001,0)" xlink:href="#by"/><use transform="matrix(0.05,0,0,0.05,80.85000000000001,0)" xlink:href="#at"/><use transform="matrix(0.05,0,0,0.05,90.85000000000001,0)" xlink:href="#am"/></g><g id="P"><use transform="matrix(0.05,0,0,0.05,0,0)" xlink:href="#al"/><use transform="matrix(0.05,0,0,0.05,10,0)" xlink:href="#bh"/><use transform="matrix(0.05,0,0,0.05,20,0)" xlink:href="#ak"/><use transform="matrix(0.05,0,0,0.05,34.95,0)" xlink:href="#at"/><use transform="matrix(0.05,0,0,0.05,44.95,0)" xlink:href="#bj"/><use transform="matrix(0.05,0,0,0.05,57.900000000000006,0)" xlink:href="#at"/><use transform="matrix(0.05,0,0,0.05,67.9,0)" xlink:href="#as"/><use transform="matrix(0.05,0,0,0.05,76.9,0)" xlink:href="#bw"/><use transform="matrix(0.05,0,0,0.05,86.9,0)" xlink:href="#bg"/><use transform="matrix(0.05,0,0,0.05,96.9,0)" xlink:href="#au"/><use transform="matrix(0.05,0,0,0.05,102.85000000000001,0)" xlink:href="#by"/><use transform="matrix(0.05,0,0,0.05,111.85000000000001,0)" xlink:href="#at"/><use transform="matrix(0.05,0,0,0.05,121.85000000000001,0)" xlink:href="#am"/></g><g id="Q"><use transform="matrix(0.05,0,0,0.05,0,0)" xlink:href="#bF"/><use transform="matrix(0.05,0,0,0.05,9,0)" xlink:href="#bh"/><use transform="matrix(0.05,0,0,0.05,19,0)" xlink:href="#br"/><use transform="matrix(0.05,0,0,0.05,22.95,0)" xlink:href="#bg"/><use transform="matrix(0.05,0,0,0.05,32.95,0)" xlink:href="#at"/><use transform="matrix(0.05,0,0,0.05,42.95,0)" xlink:href="#am"/></g><path fill="#333" d="M87-220l-18 92h140l-5 28H64L45 0H11l48-248h178l-5 28H87" id="bK"/><path fill="#333" d="M20-101c0-91 52-143 145-150 126-9 127 168 53 223-23 17-55 32-93 32C57 4 20-33 20-101zm216-33c5-57-18-91-73-90-77 1-110 51-110 125 0 49 23 75 73 75 72-1 104-45 110-110" id="bL"/><g id="R"><use transform="matrix(0.05,0,0,0.05,0,0)" xlink:href="#bK"/><use transform="matrix(0.05,0,0,0.05,10.950000000000001,0)" xlink:href="#bC"/><use transform="matrix(0.05,0,0,0.05,20.950000000000003,0)" xlink:href="#bL"/><use transform="matrix(0.05,0,0,0.05,34.95,0)" xlink:href="#aj"/><use transform="matrix(0.05,0,0,0.05,45.6,0)" xlink:href="#ap"/></g><g id="S"><use transform="matrix(0.05,0,0,0.05,0,0)" xlink:href="#au"/><use transform="matrix(0.05,0,0,0.05,5.95,0)" xlink:href="#at"/><use transform="matrix(0.05,0,0,0.05,15.949999999999998,0)" xlink:href="#as"/><use transform="matrix(0.05,0,0,0.05,24.95,0)" xlink:href="#bw"/><use transform="matrix(0.05,0,0,0.05,34.95,0)" xlink:href="#bg"/><use transform="matrix(0.05,0,0,0.05,44.95,0)" xlink:href="#au"/><use transform="matrix(0.05,0,0,0.05,50.900000000000006,0)" xlink:href="#by"/><use transform="matrix(0.05,0,0,0.05,59.900000000000006,0)" xlink:href="#at"/><use transform="matrix(0.05,0,0,0.05,69.9,0)" xlink:href="#bG"/><use transform="matrix(0.05,0,0,0.05,82.85000000000001,0)" xlink:href="#at"/><use transform="matrix(0.05,0,0,0.05,92.85000000000001,0)" xlink:href="#as"/><use transform="matrix(0.05,0,0,0.05,101.85000000000001,0)" xlink:href="#by"/><use transform="matrix(0.05,0,0,0.05,110.85000000000001,0)" xlink:href="#au"/><use transform="matrix(0.05,0,0,0.05,116.80000000000001,0)" xlink:href="#ah"/><use transform="matrix(0.05,0,0,0.05,120.75,0)" xlink:href="#bx"/><use transform="matrix(0.05,0,0,0.05,130.75,0)" xlink:href="#bz"/><use transform="matrix(0.05,0,0,0.05,135.75,0)" xlink:href="#ah"/><use transform="matrix(0.05,0,0,0.05,139.7,0)" xlink:href="#bw"/><use transform="matrix(0.05,0,0,0.05,149.7,0)" xlink:href="#al"/><use transform="matrix(0.05,0,0,0.05,159.7,0)" xlink:href="#am"/></g><g id="T"><use transform="matrix(0.04938271604938272,0,0,0.04938271604938272,0,0)" xlink:href="#bj"/><use transform="matrix(0.04938271604938272,0,0,0.04938271604938272,12.790123456790125,0)" xlink:href="#at"/><use transform="matrix(0.04938271604938272,0,0,0.04938271604938272,22.66666666666667,0)" xlink:href="#as"/><use transform="matrix(0.04938271604938272,0,0,0.04938271604938272,31.555555555555557,0)" xlink:href="#bw"/><use transform="matrix(0.04938271604938272,0,0,0.04938271604938272,41.4320987654321,0)" xlink:href="#bg"/><use transform="matrix(0.04938271604938272,0,0,0.04938271604938272,51.308641975308646,0)" xlink:href="#au"/><use transform="matrix(0.04938271604938272,0,0,0.04938271604938272,57.18518518518519,0)" xlink:href="#by"/><use transform="matrix(0.04938271604938272,0,0,0.04938271604938272,66.07407407407408,0)" xlink:href="#at"/></g><g id="U"><use transform="matrix(0.05,0,0,0.05,0,0)" xlink:href="#ah"/><use transform="matrix(0.05,0,0,0.05,3.95,0)" xlink:href="#ai"/><use transform="matrix(0.05,0,0,0.05,13.949999999999998,0)" xlink:href="#aj"/><use transform="matrix(0.05,0,0,0.05,25.950000000000003,0)" xlink:href="#br"/><use transform="matrix(0.05,0,0,0.05,29.899999999999995,0)" xlink:href="#at"/><use transform="matrix(0.05,0,0,0.05,39.9,0)" xlink:href="#au"/><use transform="matrix(0.05,0,0,0.05,45.85,0)" xlink:href="#bz"/><use transform="matrix(0.05,0,0,0.05,50.85,0)" xlink:href="#am"/></g><g id="V"><use transform="matrix(0.05,0,0,0.05,0,0)" xlink:href="#bh"/><use transform="matrix(0.05,0,0,0.05,10,0)" xlink:href="#br"/><use transform="matrix(0.05,0,0,0.05,13.949999999999998,0)" xlink:href="#at"/><use transform="matrix(0.05,0,0,0.05,23.95,0)" xlink:href="#au"/><use transform="matrix(0.05,0,0,0.05,29.899999999999995,0)" xlink:href="#bz"/><use transform="matrix(0.05,0,0,0.05,34.9,0)" xlink:href="#bG"/><use transform="matrix(0.05,0,0,0.05,47.85,0)" xlink:href="#at"/><use transform="matrix(0.05,0,0,0.05,57.85,0)" xlink:href="#as"/><use transform="matrix(0.05,0,0,0.05,66.85,0)" xlink:href="#by"/><use transform="matrix(0.05,0,0,0.05,75.85,0)" xlink:href="#au"/><use transform="matrix(0.05,0,0,0.05,81.8,0)" xlink:href="#bx"/><use transform="matrix(0.05,0,0,0.05,91.8,0)" xlink:href="#bz"/><use transform="matrix(0.05,0,0,0.05,96.8,0)" xlink:href="#ah"/><use transform="matrix(0.05,0,0,0.05,100.75,0)" xlink:href="#bw"/><use transform="matrix(0.05,0,0,0.05,110.75,0)" xlink:href="#al"/><use transform="matrix(0.05,0,0,0.05,120.75,0)" xlink:href="#am"/></g><g id="W"><use transform="matrix(0.05,0,0,0.05,0,0)" xlink:href="#bA"/><use transform="matrix(0.05,0,0,0.05,10,0)" xlink:href="#au"/><use transform="matrix(0.05,0,0,0.05,15.949999999999998,0)" xlink:href="#bw"/><use transform="matrix(0.05,0,0,0.05,25.950000000000003,0)" xlink:href="#bg"/><use transform="matrix(0.05,0,0,0.05,35.95,0)" xlink:href="#bx"/><use transform="matrix(0.05,0,0,0.05,45.95,0)" xlink:href="#ap"/><use transform="matrix(0.05,0,0,0.05,55.25,0)" xlink:href="#bw"/><use transform="matrix(0.05,0,0,0.05,65.25,0)" xlink:href="#aj"/><use transform="matrix(0.05,0,0,0.05,77.25,0)" xlink:href="#br"/><use transform="matrix(0.05,0,0,0.05,81.2,0)" xlink:href="#at"/><use transform="matrix(0.05,0,0,0.05,91.2,0)" xlink:href="#au"/><use transform="matrix(0.05,0,0,0.05,97.15,0)" xlink:href="#bz"/><use transform="matrix(0.05,0,0,0.05,102.15,0)" xlink:href="#am"/></g><g id="X"><use transform="matrix(0.05,0,0,0.05,0,0)" xlink:href="#as"/><use transform="matrix(0.05,0,0,0.05,9,0)" xlink:href="#bz"/><use transform="matrix(0.05,0,0,0.05,14,0)" xlink:href="#bh"/><use transform="matrix(0.05,0,0,0.05,24,0)" xlink:href="#bz"/><use transform="matrix(0.05,0,0,0.05,29,0)" xlink:href="#bg"/><use transform="matrix(0.05,0,0,0.05,39,0)" xlink:href="#as"/><use transform="matrix(0.05,0,0,0.05,48,0)" xlink:href="#am"/></g><g id="Y"><use transform="matrix(0.04938271604938272,0,0,0.04938271604938272,0,0)" xlink:href="#aj"/><use transform="matrix(0.04938271604938272,0,0,0.04938271604938272,11.851851851851853,0)" xlink:href="#br"/><use transform="matrix(0.04938271604938272,0,0,0.04938271604938272,15.753086419753087,0)" xlink:href="#at"/><use transform="matrix(0.04938271604938272,0,0,0.04938271604938272,25.629629629629633,0)" xlink:href="#au"/><use transform="matrix(0.04938271604938272,0,0,0.04938271604938272,31.506172839506174,0)" xlink:href="#bz"/></g><g id="Z"><use transform="matrix(0.05,0,0,0.05,0,0)" xlink:href="#ah"/><use transform="matrix(0.05,0,0,0.05,3.95,0)" xlink:href="#ai"/><use transform="matrix(0.05,0,0,0.05,13.949999999999998,0)" xlink:href="#bl"/><use transform="matrix(0.05,0,0,0.05,26.899999999999995,0)" xlink:href="#ah"/><use transform="matrix(0.05,0,0,0.05,30.849999999999994,0)" xlink:href="#as"/><use transform="matrix(0.05,0,0,0.05,39.849999999999994,0)" xlink:href="#bz"/><use transform="matrix(0.05,0,0,0.05,44.849999999999994,0)" xlink:href="#bw"/><use transform="matrix(0.05,0,0,0.05,54.849999999999994,0)" xlink:href="#au"/><use transform="matrix(0.05,0,0,0.05,60.79999999999999,0)" xlink:href="#bJ"/><use transform="matrix(0.05,0,0,0.05,69.8,0)" xlink:href="#am"/></g><g id="aa"><use transform="matrix(0.05,0,0,0.05,0,0)" xlink:href="#ai"/><use transform="matrix(0.05,0,0,0.05,10,0)" xlink:href="#bh"/><use transform="matrix(0.05,0,0,0.05,20,0)" xlink:href="#bz"/><use transform="matrix(0.05,0,0,0.05,25,0)" xlink:href="#bh"/><use transform="matrix(0.05,0,0,0.05,35,0)" xlink:href="#ap"/><use transform="matrix(0.05,0,0,0.05,45.800000000000004,0)" xlink:href="#ah"/><use transform="matrix(0.05,0,0,0.05,49.75000000000001,0)" xlink:href="#ak"/><use transform="matrix(0.05,0,0,0.05,64.7,0)" xlink:href="#at"/><use transform="matrix(0.05,0,0,0.05,74.7,0)" xlink:href="#am"/></g><path fill="#333" d="M222 0l43-216c-8 16-17 34-26 49L143 0h-22L81-216 41 0H11l48-248h42l38 208 116-208h45L252 0h-30" id="bM"/><path fill="#333" d="M194-120c59 52 2 134-86 124-53-6-90-18-98-63l31-7c8 30 29 43 70 43 46 0 84-17 71-62-32-43-135-20-137-98-3-89 178-90 191-16l-30 9c-8-48-127-53-127 5 0 53 81 35 115 65" id="bN"/><g id="ab"><use transform="matrix(0.05,0,0,0.05,0,0)" xlink:href="#ap"/><use transform="matrix(0.05,0,0,0.05,10.950000000000001,0)" xlink:href="#an"/><use transform="matrix(0.05,0,0,0.05,15.950000000000001,0)" xlink:href="#bM"/><use transform="matrix(0.05,0,0,0.05,30.900000000000002,0)" xlink:href="#bq"/><use transform="matrix(0.05,0,0,0.05,42.900000000000006,0)" xlink:href="#bN"/><use transform="matrix(0.05,0,0,0.05,54.900000000000006,0)" xlink:href="#ap"/><use transform="matrix(0.05,0,0,0.05,64.5,0)" xlink:href="#aj"/><use transform="matrix(0.05,0,0,0.05,76.5,0)" xlink:href="#bM"/><use transform="matrix(0.05,0,0,0.05,91.45,0)" xlink:href="#bs"/></g><g id="ac"><use transform="matrix(0.04938271604938272,0,0,0.04938271604938272,0,0)" xlink:href="#bl"/><use transform="matrix(0.04938271604938272,0,0,0.04938271604938272,12.790123456790125,0)" xlink:href="#ah"/><use transform="matrix(0.04938271604938272,0,0,0.04938271604938272,16.69135802469136,0)" xlink:href="#as"/><use transform="matrix(0.04938271604938272,0,0,0.04938271604938272,25.58024691358025,0)" xlink:href="#bz"/><use transform="matrix(0.04938271604938272,0,0,0.04938271604938272,30.518518518518523,0)" xlink:href="#bw"/><use transform="matrix(0.04938271604938272,0,0,0.04938271604938272,40.39506172839506,0)" xlink:href="#au"/><use transform="matrix(0.04938271604938272,0,0,0.04938271604938272,46.27160493827161,0)" xlink:href="#bJ"/></g><g id="ad"><use transform="matrix(0.05,0,0,0.05,0,0)" xlink:href="#ah"/><use transform="matrix(0.05,0,0,0.05,3.95,0)" xlink:href="#ai"/><use transform="matrix(0.05,0,0,0.05,13.949999999999998,0)" xlink:href="#ar"/><use transform="matrix(0.05,0,0,0.05,26.899999999999995,0)" xlink:href="#bv"/><use transform="matrix(0.05,0,0,0.05,40.9,0)" xlink:href="#am"/></g><g id="ae"><use transform="matrix(0.04938271604938272,0,0,0.04938271604938272,0,0)" xlink:href="#ar"/><use transform="matrix(0.04938271604938272,0,0,0.04938271604938272,12.790123456790125,0)" xlink:href="#as"/><use transform="matrix(0.04938271604938272,0,0,0.04938271604938272,21.679012345679013,0)" xlink:href="#at"/><use transform="matrix(0.04938271604938272,0,0,0.04938271604938272,31.555555555555557,0)" xlink:href="#au"/><use transform="matrix(0.04938271604938272,0,0,0.04938271604938272,37.4320987654321,0)" xlink:href="#an"/><use transform="matrix(0.04938271604938272,0,0,0.04938271604938272,42.370370370370374,0)" xlink:href="#al"/><use transform="matrix(0.04938271604938272,0,0,0.04938271604938272,52.24691358024692,0)" xlink:href="#bv"/><use transform="matrix(0.04938271604938272,0,0,0.04938271604938272,66.07407407407408,0)" xlink:href="#au"/><use transform="matrix(0.04938271604938272,0,0,0.04938271604938272,71.95061728395062,0)" xlink:href="#bw"/><use transform="matrix(0.04938271604938272,0,0,0.04938271604938272,81.82716049382717,0)" xlink:href="#bg"/><use transform="matrix(0.04938271604938272,0,0,0.04938271604938272,91.70370370370371,0)" xlink:href="#bx"/></g></defs></g></svg>