<svg xmlns="http://www.w3.org/2000/svg" xmlns:xlink="http://www.w3.org/1999/xlink" xmlns:lucid="lucid" width="1814.43" height="1402.06"><g transform="translate(0 0)" lucid:page-tab-id="PaLdq~84CkD7"><path d="M0 0h1814.43v1402.06H0z" fill="#fff"/><path d="M278.46 280v10.1m0 10.07v20.18m0 10.1v20.16m0 10.1v20.18m0 10.08v20.18m0 10.1v20.16m0 10.1v20.17m0 10.08v20.18m0 10.1v20.16m0 10.08v20.18m0 10.08v20.18m0 10.1v20.16m0 10.1v20.16m0 10.1v20.17m0 10.1v20.17m0 10.1v20.16m0 10.1v20.17m0 10.08v20.18m0 10.1v20.16m0 10.1v20.17m0 10.07v20.18m0 10.1v20.16m0 10.1v20.17m0 10.1v20.17m0 10.1v20.16m0 10.1v20.16m0 10.1v20.17m0 10.08v20.2m0 10.08v20.17m0 10.1v20.17m0 10.08v20.18m0 10.1v20.16m0 10.1v20.17m0 10.1v20.17m0 10.1v20.16m0 10.1v10.08" stroke="#999" stroke-width="2" fill="none"/><path d="M279.43 280.03h-1.95V279h1.95z" stroke="#999" stroke-width=".05" fill="#999"/><path d="M278.46 1339.18v1.03" stroke="#999" stroke-width="2" fill="none"/><path d="M258.46 346a5 5 0 0 1 5-5h30a5 5 0 0 1 5 5v830a5 5 0 0 1-5 5h-30a5 5 0 0 1-5-5z" stroke="#666" stroke-width="2" fill="#f2f2f2"/><path d="M514.85 302.9v9.86m0 9.86v19.73m0 9.86v19.74m0 9.86v19.72m0 9.87v19.7m0 9.88v19.72m0 9.86v19.73m0 9.85v19.73m0 9.86v19.73m0 9.86v19.72m0 9.87v19.72m0 9.87v19.73m0 9.86v19.72m0 9.86v19.73m0 9.87V727m0 9.86v19.72m0 9.87v19.72m0 9.86v9.87a5 5 0 0 1-5 5h-1.24a5 5 0 0 0-5 5v9.86m0 9.86v19.73m0 9.86v19.74m0 9.86v19.72m0 9.87v19.7m0 9.88v19.72m0 9.86v19.73m0 9.85v19.73m0 9.86v19.73m0 9.86v19.72m0 9.87v19.72m0 9.87v19.73m0 9.86v19.72m0 9.86v19.73m0 9.87V1240m0 9.86v19.72m0 9.87v19.72m0 9.86v9.87" stroke="#999" stroke-width="2" fill="none"/><path d="M515.83 302.92h-1.95v-1.02h1.95z" stroke="#999" stroke-width=".05" fill="#999"/><path d="M503.6 1318.87v1.03" stroke="#999" stroke-width="2" fill="none"/><path d="M907.22 1303.97a5 5 0 0 1 5-5h70a5 5 0 0 1 5 5v70a5 5 0 0 1-5 5h-70a5 5 0 0 1-5-5z" fill="none"/><path d="M915.22 1306.97l64 64m0-64l-64 64" stroke="#666" stroke-width="8" fill="none"/><path d="M494.85 406a5 5 0 0 1 5-5h30a5 5 0 0 1 5 5v770a5 5 0 0 1-5 5h-30a5 5 0 0 1-5-5z" stroke="#666" stroke-width="2" fill="#f2f2f2"/><path d="M299.46 411h176.9" stroke="#999" stroke-width="2" fill="none"/><path d="M299.48 411.98h-.02v-1.96h.02z" stroke="#999" stroke-width=".05" fill="#999"/><path d="M491.6 411l-14.25 4.63v-9.26z" stroke="#999" stroke-width="2" fill="#999"/><use xlink:href="#a" transform="matrix(1,0,0,1,328.77970728364346,385.3999999999997) translate(0 14.4)"/><path d="M751.48 304v9.97m0 9.97v19.94m0 9.97v19.94m0 9.96v19.95m0 9.98v19.94m0 9.97v19.93m0 9.97v19.94m0 9.97v19.95m0 9.97v19.94m0 9.98v19.94m0 9.97v19.94m0 9.96V643m0 9.97v19.94m0 9.98v19.94m0 9.97v19.94m0 9.97v19.95m0 9.97v19.94m0 9.97v19.94m0 9.97v19.94m0 9.97v19.94m0 9.97v19.94m0 9.98v19.94m0 9.97v19.93m0 9.97v19.94m0 9.97v19.95m0 9.97v19.95m0 9.96v19.95m0 9.97v19.94m0 9.96v19.94m0 9.97v19.94m0 9.98v19.94m0 9.97v19.93m0 9.98v19.95m0 9.97v19.94m0 9.97v9.97" stroke="#999" stroke-width="2" fill="none"/><path d="M752.45 304.03h-1.95V303h1.95z" stroke="#999" stroke-width=".05" fill="#999"/><path d="M751.48 1320.97v1.03M1558.46 1182v9.2m0 9.2v18.4m0 9.2v18.4m0 9.2v18.4m0 9.2v18.4m0 9.2v9.2M1558.46 1182.03V1181M1558.46 1319.97v1.03" stroke="#999" stroke-width="2" fill="none"/><path d="M649 189a8 8 0 0 1 8-8h188.96a8 8 0 0 1 8 8v106a8 8 0 0 1-8 8H657a8 8 0 0 1-8-8z" stroke="#000" stroke-opacity="0" fill="#ffd99a"/><use xlink:href="#b" transform="matrix(1,0,0,1,656.9966056863648,189) translate(51.09259259259259 56.55555555555555)"/><path d="M175.98 189a8 8 0 0 1 8-8h188.96a8 8 0 0 1 8 8v82a8 8 0 0 1-8 8H183.98a8 8 0 0 1-8-8z" stroke="#000" stroke-opacity="0" fill="#ffbd50"/><use xlink:href="#c" transform="matrix(1,0,0,1,183.9758996115919,189) translate(76.74691358024691 44.55555555555556)"/><path d="M412.37 187.9a8 8 0 0 1 8-8h188.96a8 8 0 0 1 8 8v106a8 8 0 0 1-8 8H420.37a8 8 0 0 1-8-8z" stroke="#000" stroke-opacity="0" fill="#ffcc78"/><use xlink:href="#d" transform="matrix(1,0,0,1,420.37113402061857,187.8969072164948) translate(56.52469135802469 56.55555555555555)"/><path d="M1255.63 189.87c0 10.9-8.85 19.75-19.75 19.75s-19.75-8.84-19.75-19.75c0-10.9 8.84-19.75 19.75-19.75 10.9 0 19.75 8.84 19.75 19.75z" stroke="#333" fill="#fff"/><path d="M1235.88 209.62v47.3a27.6 27.6 0 0 0 4.27 14.76l35.73 56.44m-40-63.2l-40 63.2m0-98.75h80" stroke="#333" fill="none"/><path d="M1195.88 178.12a8 8 0 0 1 8-8h64a8 8 0 0 1 8 8v164a8 8 0 0 1-8 8h-64a8 8 0 0 1-8-8z" fill="none"/><use xlink:href="#e" transform="matrix(1,0,0,1,1115.876288659794,328.12025336906186) translate(105.5 14.6)"/><path d="M1236.88 265.86a.24.24 0 0 1 .23.23v10.04m0 10.04v20.1m0 10.04v20.1m0 10.03v20.1m0 10.04v20.08m0 10.05v20.1m0 10.03v20.1m0 10.04v20.1m0 10.03v20.1m0 10.04v20.1m0 10.03v20.1m0 10.04v20.1m0 10.04v20.1m0 10.03v20.1m0 10.05v20.1m0 10.03v20.1m0 10.04v20.1m0 10.03v20.1m0 10.04v20.08m0 10.05v20.1m0 10.03v20.1m0 10.04V909m0 10.03v20.1m0 10.04v20.1m0 10.03v20.1m0 10.04v20.1m0 10.04v20.1m0 10.03v20.1m0 10.05v20.1m0 10.03v20.1m0 10.04v20.1m0 10.04v20.1m0 10.03v20.08m0 10.05v20.1m0 10.03v20.1m0 10.04v20.1m0 10.03v10.05M1236.9 265.86h-4.02M1237.1 1350.95v1.03" stroke="#999" stroke-width="2" fill="none"/><path d="M480.36 78a8 8 0 0 1 8-8h836.75a8 8 0 0 1 8 8v27.67a8 8 0 0 1-8 8H488.37a8 8 0 0 1-8-8z" stroke="#000" stroke-opacity="0" stroke-width="2" fill="#fff" fill-opacity="0"/><use xlink:href="#f" transform="matrix(1,0,0,1,484.36304763070416,74) translate(195.34035509736538 26.923127147766323)"/><use xlink:href="#g" transform="matrix(1,0,0,1,484.36304763070416,74) translate(328.06276823214966 26.923127147766323)"/><use xlink:href="#h" transform="matrix(1,0,0,1,484.36304763070416,74) translate(367.6962161130202 26.923127147766323)"/><use xlink:href="#i" transform="matrix(1,0,0,1,484.36304763070416,74) translate(512.5606681939671 26.923127147766323)"/><path d="M669.1 112.25h483.93M669.13 112.25h-1.02M1153 112.25h1.03" stroke="#b2b2b2" stroke-width="2" fill="none"/><path d="M480.36 120.4a8 8 0 0 1 8-8h837.7a8 8 0 0 1 8 8v2.86a8 8 0 0 1-8 8h-837.7a8 8 0 0 1-8-8z" stroke="#000" stroke-opacity="0" stroke-width="2" fill="#fff" fill-opacity="0"/><use xlink:href="#j" transform="matrix(1,0,0,1,484.3630476307046,116.41245733927416) translate(252.42085390946505 14.917037037037037)"/><use xlink:href="#k" transform="matrix(1,0,0,1,484.3630476307046,116.41245733927416) translate(307.5725 14.917037037037037)"/><use xlink:href="#l" transform="matrix(1,0,0,1,484.3630476307046,116.41245733927416) translate(333.0238374485597 14.917037037037037)"/><use xlink:href="#m" transform="matrix(1,0,0,1,484.3630476307046,116.41245733927416) translate(389.91756172839507 14.917037037037037)"/><use xlink:href="#n" transform="matrix(1,0,0,1,484.3630476307046,116.41245733927416) translate(490.87311728395065 14.917037037037037)"/><use xlink:href="#o" transform="matrix(1,0,0,1,484.3630476307046,116.41245733927416) translate(503.32260288065845 14.917037037037037)"/><use xlink:href="#p" transform="matrix(1,0,0,1,484.3630476307046,116.41245733927416) translate(540.7135493827161 14.917037037037037)"/><use xlink:href="#q" transform="matrix(1,0,0,1,484.3630476307046,116.41245733927416) translate(566.2073765432099 14.917037037037037)"/><path d="M907.22 111.9V48.8" stroke="#333" fill="none"/><path d="M907.7 112.4h-.96v-.5h.95z" stroke="#333" stroke-width=".05" fill="#333"/><path d="M907.22 34.03l4.63 14.27h-9.27z" stroke="#333" fill="#333"/><path d="M480.36 21.57a8 8 0 0 1 8-8h837.7a8 8 0 0 1 8 8v2.84a8 8 0 0 1-8 8h-837.7a8 8 0 0 1-8-8z" stroke="#000" stroke-opacity="0" stroke-width="2" fill="#fff" fill-opacity="0"/><use xlink:href="#r" transform="matrix(1,0,0,1,484.3630476307046,17.567681295940147) translate(408.0606687242798 14.917037037037037)"/><path d="M1024.92 308.57v10.1m0 10.1v20.2m0 10.12v20.2m0 10.1v20.2m0 10.1v20.22m0 10.1v20.22m0 10.1v20.2m0 10.1v20.22m0 10.1v20.2m0 10.12v20.2m0 10.1v20.22m0 10.1v20.2m0 10.12v20.2m0 10.1v20.22m0 10.1v20.2m0 10.12v20.2m0 10.1v20.22m0 10.1v20.2m0 10.12v20.2m0 10.1v20.22m0 10.1v20.2m0 10.1v20.22m0 10.1v20.2m0 10.12v20.2m0 10.1v20.22m0 10.1v20.2m0 10.12v20.2m0 10.1v20.22m0 10.1v20.2m0 10.12v20.2m0 10.1v20.22m0 10.1v20.2m0 10.12v20.2m0 10.1V1319m0 10.1v10.1" stroke="#999" stroke-width="2" fill="none"/><path d="M1025.9 308.6h-1.96v-1.03h1.95z" stroke="#999" stroke-width=".05" fill="#999"/><path d="M1024.92 1339.18v1.03" stroke="#999" stroke-width="2" fill="none"/><path d="M1689.23 189.82c0 10.9-8.84 19.75-19.75 19.75-10.9 0-19.75-8.84-19.75-19.75 0-10.9 8.85-19.75 19.75-19.75s19.75 8.84 19.75 19.75z" stroke="#333" fill="#fff"/><path d="M1669.48 209.57v47.3a27.6 27.6 0 0 0 4.28 14.76l35.72 56.44m-40-63.2l-40 63.2m0-98.75h80" stroke="#333" fill="none"/><path d="M1629.48 178.07a8 8 0 0 1 8-8h64a8 8 0 0 1 8 8v164a8 8 0 0 1-8 8h-64a8 8 0 0 1-8-8z" fill="none"/><use xlink:href="#s" transform="matrix(1,0,0,1,1549.4845360824743,328.0706701659833) translate(94.55 14.6)"/><path d="M1670.48 265.8a3.85 3.85 0 0 1 3.85 3.85v10.1m0 10.1v20.2m0 10.1v20.2m0 10.1v20.2m0 10.1v20.2m0 10.1v20.2m0 10.1v20.2m0 10.1v20.2m0 10.1v20.2m0 10.1v20.2m0 10.1v20.2m0 10.1v20.2m0 10.1v20.2m0 10.1v20.2m0 10.1v20.2m0 10.1v20.2m0 10.1v20.2m0 10.1v20.2m0 10.08v20.2m0 10.1v20.2m0 10.1v20.2m0 10.1v20.2m0 10.1v20.2m0 10.1v20.2m0 10.1v20.2m0 10.1v20.2m0 10.1v20.2m0 10.1v20.2m0 10.1v20.2m0 10.1v20.2m0 10.1v20.2m0 10.1v20.2m0 10.1v20.2m0 10.1v20.2m0 10.1v20.2m0 10.1v20.18m0 10.1v10.1M1670.5 265.8h-4.02M1674.33 1360.4v1" stroke="#999" stroke-width="2" fill="none"/><path d="M101 171.75c0 10.9-8.86 19.75-19.76 19.75-10.9 0-19.75-8.84-19.75-19.75 0-10.9 8.83-19.75 19.74-19.75 10.9 0 19.75 8.84 19.75 19.75z" stroke="#333" fill="#fff"/><path d="M81.24 191.5v47.3a27.6 27.6 0 0 0 4.28 14.76L121.23 310m-40-63.2l-40 63.2m0-98.75h80" stroke="#333" fill="none"/><path d="M41.24 160a8 8 0 0 1 8-8h64a8 8 0 0 1 8 8v164a8 8 0 0 1-8 8h-64a8 8 0 0 1-8-8z" fill="none"/><use xlink:href="#t" transform="matrix(1,0,0,1,-38.76288659793814,310) translate(101.05 14.6)"/><path d="M82.24 247.74a.24.24 0 0 1 .23.23v10.14m0 10.15v20.27m0 10.14v20.27m0 10.14v20.27m0 10.14v20.27m0 10.14v20.26m0 10.14v20.27m0 10.14V471m0 10.14v20.27m0 10.13v20.27m0 10.14v20.27m0 10.15v20.28m0 10.13v20.28m0 10.13v20.28m0 10.13v20.28m0 10.13v20.27m0 10.13v20.28m0 10.14v20.27m0 10.13v20.27m0 10.14v20.27m0 10.15v20.27m0 10.14v20.27m0 10.14v20.27m0 10.14v20.27m0 10.14v20.26m0 10.14v20.27m0 10.14v20.3m0 10.12v20.27m0 10.13v20.28m0 10.14v20.28m0 10.13v20.28m0 10.13v20.28m0 10.13v20.28m0 10.13v20.28m0 10.14v20.27m0 10.14v10.14M82.26 247.74h-4.02M82.47 1312.32v1.02" stroke="#999" stroke-width="2" fill="none"/><path d="M922.44 193.57a8 8 0 0 1 8-8h188.96a8 8 0 0 1 8 8v106a8 8 0 0 1-8 8H930.44a8 8 0 0 1-8-8z" stroke="#000" stroke-opacity="0" fill="#ffd99a"/><use xlink:href="#u" transform="matrix(1,0,0,1,930.4364471730794,193.56701030927837) translate(76.27777777777777 56.55555555555555)"/><path d="M61.86 334.9a5 5 0 0 1 5-5h30a5 5 0 0 1 5 5v830a5 5 0 0 1-5 5h-30a5 5 0 0 1-5-5z" stroke="#666" stroke-width="2" fill="#f2f2f2"/><path d="M103.86 354.4h135.1" stroke="#999" stroke-width="2" fill="none"/><path d="M103.88 355.4h-1.02v-1.96h1.02z" stroke="#999" stroke-width=".05" fill="#999"/><path d="M254.22 354.4l-14.27 4.65v-9.27z" stroke="#999" stroke-width="2" fill="#999"/><use xlink:href="#v" transform="matrix(1,0,0,1,113.1416666666666,328.8116283850688) translate(0.005000000000002558 14.4)"/><path d="M536.85 427.2h175.13" stroke="#999" stroke-width="2" fill="none"/><path d="M536.88 428.17h-1.03v-1.96h1.03z" stroke="#999" stroke-width=".05" fill="#999"/><path d="M727.24 427.2l-14.26 4.63v-9.27z" stroke="#999" stroke-width="2" fill="#999"/><use xlink:href="#w" transform="matrix(1,0,0,1,565.315019461712,401.5898968871901) translate(0 14.4)"/><path d="M731.48 417.37a5 5 0 0 1 5-5h30a5 5 0 0 1 5 5v63.23a5 5 0 0 1-5 5h-30a5 5 0 0 1-5-5z" stroke="#666" stroke-width="2" fill="#f2f2f2"/><path d="M536.85 507.55h448.57" stroke="#999" stroke-width="2" fill="none"/><path d="M536.88 508.53h-1.03v-1.95h1.03z" stroke="#999" stroke-width=".05" fill="#999"/><path d="M1000.68 507.55l-14.26 4.64v-9.28z" stroke="#999" stroke-width="2" fill="#999"/><use xlink:href="#x" transform="matrix(1,0,0,1,801.6250028154338,481.9541657461729) translate(0 14.4)"/><path d="M1004.92 499.85a5 5 0 0 1 5-5h30a5 5 0 0 1 5 5v51.85a5 5 0 0 1-5 5h-30a5 5 0 0 1-5-5z" stroke="#666" stroke-width="2" fill="#f2f2f2"/><path d="M1002.92 547.36H121.36" stroke="#999" stroke-width="2" fill="none"/><path d="M1003.92 548.34h-1.03v-1.96h1.02z" stroke="#999" stroke-width=".05" fill="#999"/><path d="M106.1 547.36l14.26-4.63V552z" stroke="#999" stroke-width="2" fill="#999"/><use xlink:href="#y" transform="matrix(1,0,0,1,545.4826403348546,551.3599821918958) translate(0 14.4)"/><path d="M729.98 473H552.24" stroke="#333" fill="none"/><path d="M730.48 473.48h-.5v-.96h.5z" stroke="#333" stroke-width=".05" fill="#333"/><path d="M537.47 473l14.27-4.63v9.26z" stroke="#333" fill="#333"/><use xlink:href="#z" transform="matrix(1,0,0,1,562.2900586632,477.0000000191905) translate(0.0049999999999954525 14.4)"/><path d="M493.35 464h-374.1" stroke="#333" fill="none"/><path d="M493.85 464.48h-.5v-.96h.5z" stroke="#333" stroke-width=".05" fill="#333"/><path d="M104.47 464l14.27-4.63v9.26z" stroke="#333" fill="#333"/><use xlink:href="#A" transform="matrix(1,0,0,1,328.18333333333345,467.9999996555411) translate(0.005000000000002558 14.4)"/><path d="M299.96 632h20.5v.05h878.65" stroke="#333" fill="none"/><path d="M299.97 632.48h-.5v-.96h.5z" stroke="#333" stroke-width=".05" fill="#333"/><path d="M1213.88 632.05l-14.27 4.63v-9.27z" stroke="#333" fill="#333"/><use xlink:href="#B" transform="matrix(1,0,0,1,709.0745995976964,606.4495853374806) translate(0.005000000000002558 14.4)"/><path d="M1215.03 676h-899.2" stroke="#333" fill="none"/><path d="M1215.57 676.4v.08h-.55v-.96h.48z" stroke="#333" stroke-width=".05" fill="#333"/><path d="M301.07 676l14.27-4.63v9.26z" stroke="#333" fill="#333"/><use xlink:href="#C" transform="matrix(1,0,0,1,715.5706097053821,680.000001001366) translate(0.005000000000002558 14.4)"/><path d="M1649.48 706.03a5 5 0 0 1 5-5h30a5 5 0 0 1 5 5v343.33a5 5 0 0 1-5 5h-30a5 5 0 0 1-5-5z" stroke="#666" stroke-width="2" fill="#fff"/><path d="M1647.98 720.96H119.24" stroke="#333" fill="none"/><path d="M1648.48 721.43h-.5v-.95h.5z" stroke="#333" stroke-width=".05" fill="#333"/><path d="M104.47 720.96l14.27-4.64v9.27z" stroke="#333" fill="#333"/><use xlink:href="#D" transform="matrix(1,0,0,1,825.7950785234624,724.9585795401576) translate(0.005000000000002558 14.4)"/><path d="M1647.98 763.76h-167.9" stroke="#333" fill="none"/><path d="M1648.48 764.24h-.5v-.95h.5z" stroke="#333" stroke-width=".05" fill="#333"/><path d="M1465.3 763.76l14.27-4.63v9.27z" stroke="#333" fill="#333"/><use xlink:href="#E" transform="matrix(1,0,0,1,1500.1860390344925,767.7645399593143) translate(0.005000000000002558 14.4)"/><path d="M103.36 798.67H1405.3" stroke="#333" fill="none"/><path d="M103.37 799.14h-.5v-.95h.5z" stroke="#333" stroke-width=".05" fill="#333"/><path d="M1420.07 798.67l-14.27 4.63v-9.27z" stroke="#333" fill="#333"/><use xlink:href="#F" transform="matrix(1,0,0,1,722.3715128604583,773.0666646583717) translate(0.005000000000002558 14.4)"/><path d="M1421.2 830.67H119.23" stroke="#333" fill="none"/><path d="M1421.7 831.14h-.53v-.95h.52z" stroke="#333" stroke-width=".05" fill="#333"/><path d="M104.47 830.67l14.27-4.64v9.27z" stroke="#333" fill="#333"/><use xlink:href="#G" transform="matrix(1,0,0,1,707.4217271521482,834.6666474182778) translate(0.005000000000002558 14.4)"/><path d="M1216.5 623.6a5 5 0 0 1 5-5h30a5 5 0 0 1 5 5v51.86a5 5 0 0 1-5 5h-30a5 5 0 0 1-5-5z" stroke="#666" stroke-width="2" fill="#fff"/><path d="M1442.7 308.57v9.92m0 9.9v19.85m0 9.92V378m0 9.93v19.84m0 9.92v19.83m0 9.92v19.84m0 9.9v19.86m0 9.92v19.84m0 9.92v19.84m0 9.92v19.84m0 9.92v19.84m0 9.92v19.84m0 9.92v19.84m0 9.92v19.84m0 9.92v19.84m0 9.93v19.84m0 9.93v19.84m0 9.92v19.83m0 9.92v19.84m0 9.9v19.85m0 9.92v19.84m0 9.93v19.84m0 9.92v19.83m0 9.92V1003m0 9.92v19.84m0 9.92v19.84m0 9.92v19.84m0 9.92v19.84m0 9.92v19.84m0 9.92v19.84m0 9.92v19.84m0 9.92v19.85m0 9.9v19.85m0 9.92v19.84m0 9.93v19.84m0 9.92v9.9a.3.3 0 0 0 .3.32.3.3 0 0 1 .3.3v9" stroke="#999" stroke-width="2" fill="none"/><path d="M1443.66 308.6h-1.95v-1.03h1.96z" stroke="#999" stroke-width=".05" fill="#999"/><path d="M1443.3 1359.8v1.03" stroke="#999" stroke-width="2" fill="none"/><path d="M1340.2 193.57a8 8 0 0 1 8-8h188.97a8 8 0 0 1 8 8v106a8 8 0 0 1-8 8H1348.2a8 8 0 0 1-8-8z" stroke="#000" stroke-opacity="0" fill="#ffd99a"/><use xlink:href="#H" transform="matrix(1,0,0,1,1348.2061855670104,193.56701030927837) translate(69.83333333333333 56.55555555555555)"/><path d="M1422.7 747.27a5 5 0 0 1 5-5h30a5 5 0 0 1 5 5v216.8a5 5 0 0 1-5 5h-30a5 5 0 0 1-5-5z" stroke="#666" stroke-width="2" fill="#fff"/><path d="M1421.2 868.94H119.23" stroke="#333" fill="none"/><path d="M1421.7 869.4h-.53v-.94h.52z" stroke="#333" stroke-width=".05" fill="#333"/><path d="M104.47 868.94l14.27-4.64v9.27z" stroke="#333" fill="#333"/><g><use xlink:href="#I" transform="matrix(1,0,0,1,706.8467593209928,872.9381318034062) translate(0.005000000000002558 14.4)"/></g><path d="M1647.98 944h-167.9" stroke="#333" fill="none"/><path d="M1648.48 944.48h-.5v-.96h.5z" stroke="#333" stroke-width=".05" fill="#333"/><path d="M1465.3 944l14.27-4.63v9.26z" stroke="#333" fill="#333"/><g><use xlink:href="#J" transform="matrix(1,0,0,1,1508.4583638316951,948.0000002472048) translate(0.005000000000002558 14.4)"/></g><defs><path fill="#333" d="M135-143c-3-34-86-38-87 0 15 53 115 12 119 90S17 21 10-45l28-5c4 36 97 45 98 0-10-56-113-15-118-90-4-57 82-63 122-42 12 7 21 19 24 35" id="K"/><path fill="#333" d="M100-194c63 0 86 42 84 106H49c0 40 14 67 53 68 26 1 43-12 49-29l28 8c-11 28-37 45-77 45C44 4 14-33 15-96c1-61 26-98 85-98zm52 81c6-60-76-77-97-28-3 7-6 17-6 28h103" id="L"/><path fill="#333" d="M24 0v-261h32V0H24" id="M"/><path fill="#333" d="M96-169c-40 0-48 33-48 73s9 75 48 75c24 0 41-14 43-38l32 2c-6 37-31 61-74 61-59 0-76-41-82-99-10-93 101-131 147-64 4 7 5 14 7 22l-32 3c-4-21-16-35-41-35" id="N"/><path fill="#333" d="M59-47c-2 24 18 29 38 22v24C64 9 27 4 27-40v-127H5v-23h24l9-43h21v43h35v23H59v120" id="O"/><path fill="#333" d="M233-177c-1 41-23 64-60 70L243 0h-38l-65-103H63V0H30v-248c88 3 205-21 203 71zM63-129c60-2 137 13 137-47 0-61-80-42-137-45v92" id="P"/><path fill="#333" d="M100-194c62-1 85 37 85 99 1 63-27 99-86 99S16-35 15-95c0-66 28-99 85-99zM99-20c44 1 53-31 53-75 0-43-8-75-51-75s-53 32-53 75 10 74 51 75" id="Q"/><path fill="#333" d="M84 4C-5 8 30-112 23-190h32v120c0 31 7 50 39 49 72-2 45-101 50-169h31l1 190h-30c-1-10 1-25-2-33-11 22-28 36-60 37" id="R"/><path fill="#333" d="M114-163C36-179 61-72 57 0H25l-1-190h30c1 12-1 29 2 39 6-27 23-49 58-41v29" id="S"/><path fill="#333" d="M87 75C49 33 22-17 22-94c0-76 28-126 65-167h31c-38 41-64 92-64 168S80 34 118 75H87" id="T"/><path fill="#333" d="M33-261c38 41 65 92 65 168S71 34 33 75H2C39 34 66-17 66-93S39-220 2-261h31" id="U"/><g id="a"><use transform="matrix(0.05,0,0,0.05,0,0)" xlink:href="#K"/><use transform="matrix(0.05,0,0,0.05,9,0)" xlink:href="#L"/><use transform="matrix(0.05,0,0,0.05,19,0)" xlink:href="#M"/><use transform="matrix(0.05,0,0,0.05,22.95,0)" xlink:href="#L"/><use transform="matrix(0.05,0,0,0.05,32.95,0)" xlink:href="#N"/><use transform="matrix(0.05,0,0,0.05,41.95,0)" xlink:href="#O"/><use transform="matrix(0.05,0,0,0.05,46.95,0)" xlink:href="#P"/><use transform="matrix(0.05,0,0,0.05,59.900000000000006,0)" xlink:href="#L"/><use transform="matrix(0.05,0,0,0.05,69.9,0)" xlink:href="#K"/><use transform="matrix(0.05,0,0,0.05,78.9,0)" xlink:href="#Q"/><use transform="matrix(0.05,0,0,0.05,88.9,0)" xlink:href="#R"/><use transform="matrix(0.05,0,0,0.05,98.9,0)" xlink:href="#S"/><use transform="matrix(0.05,0,0,0.05,104.85000000000001,0)" xlink:href="#N"/><use transform="matrix(0.05,0,0,0.05,113.85000000000001,0)" xlink:href="#L"/><use transform="matrix(0.05,0,0,0.05,123.85000000000001,0)" xlink:href="#T"/><use transform="matrix(0.05,0,0,0.05,129.8,0)" xlink:href="#U"/></g><path fill="#333" d="M30-248c118-7 216 8 213 122C240-48 200 0 122 0H30v-248zM63-27c89 8 146-16 146-99s-60-101-146-95v194" id="V"/><path fill="#333" d="M141-36C126-15 110 5 73 4 37 3 15-17 15-53c-1-64 63-63 125-63 3-35-9-54-41-54-24 1-41 7-42 31l-33-3c5-37 33-52 76-52 45 0 72 20 72 64v82c-1 20 7 32 28 27v20c-31 9-61-2-59-35zM48-53c0 20 12 33 32 33 41-3 63-29 60-74-43 2-92-5-92 41" id="W"/><path fill="#333" d="M106-169C34-169 62-67 57 0H25v-261h32l-1 103c12-21 28-36 61-36 89 0 53 116 60 194h-32v-121c2-32-8-49-39-48" id="X"/><path fill="#333" d="M115-194c53 0 69 39 70 98 0 66-23 100-70 100C84 3 66-7 56-30L54 0H23l1-261h32v101c10-23 28-34 59-34zm-8 174c40 0 45-34 45-75 0-40-5-75-45-74-42 0-51 32-51 76 0 43 10 73 51 73" id="Y"/><path fill="#333" d="M85-194c31 0 48 13 60 33l-1-100h32l1 261h-30c-2-10 0-23-3-31C134-8 116 4 85 4 32 4 16-35 15-94c0-66 23-100 70-100zm9 24c-40 0-46 34-46 75 0 40 6 74 45 74 42 0 51-32 51-76 0-42-9-74-50-73" id="Z"/><g id="b"><use transform="matrix(0.04938271604938272,0,0,0.04938271604938272,0,0)" xlink:href="#V"/><use transform="matrix(0.04938271604938272,0,0,0.04938271604938272,12.790123456790125,0)" xlink:href="#W"/><use transform="matrix(0.04938271604938272,0,0,0.04938271604938272,22.66666666666667,0)" xlink:href="#K"/><use transform="matrix(0.04938271604938272,0,0,0.04938271604938272,31.555555555555557,0)" xlink:href="#X"/><use transform="matrix(0.04938271604938272,0,0,0.04938271604938272,41.4320987654321,0)" xlink:href="#Y"/><use transform="matrix(0.04938271604938272,0,0,0.04938271604938272,51.308641975308646,0)" xlink:href="#Q"/><use transform="matrix(0.04938271604938272,0,0,0.04938271604938272,61.18518518518519,0)" xlink:href="#W"/><use transform="matrix(0.04938271604938272,0,0,0.04938271604938272,71.06172839506173,0)" xlink:href="#S"/><use transform="matrix(0.04938271604938272,0,0,0.04938271604938272,76.93827160493828,0)" xlink:href="#Z"/></g><path fill="#333" d="M30 0v-248h33v221h125V0H30" id="aa"/><path fill="#333" d="M115-194c55 1 70 41 70 98S169 2 115 4C84 4 66-9 55-30l1 105H24l-1-265h31l2 30c10-21 28-34 59-34zm-8 174c40 0 45-34 45-75s-6-73-45-74c-42 0-51 32-51 76 0 43 10 73 51 73" id="ab"/><g id="c"><use transform="matrix(0.04938271604938272,0,0,0.04938271604938272,0,0)" xlink:href="#aa"/><use transform="matrix(0.04938271604938272,0,0,0.04938271604938272,9.876543209876544,0)" xlink:href="#ab"/><use transform="matrix(0.04938271604938272,0,0,0.04938271604938272,19.75308641975309,0)" xlink:href="#W"/><use transform="matrix(0.04938271604938272,0,0,0.04938271604938272,29.629629629629633,0)" xlink:href="#S"/></g><g id="d"><use transform="matrix(0.04938271604938272,0,0,0.04938271604938272,0,0)" xlink:href="#P"/><use transform="matrix(0.04938271604938272,0,0,0.04938271604938272,12.790123456790125,0)" xlink:href="#L"/><use transform="matrix(0.04938271604938272,0,0,0.04938271604938272,22.66666666666667,0)" xlink:href="#K"/><use transform="matrix(0.04938271604938272,0,0,0.04938271604938272,31.555555555555557,0)" xlink:href="#Q"/><use transform="matrix(0.04938271604938272,0,0,0.04938271604938272,41.4320987654321,0)" xlink:href="#R"/><use transform="matrix(0.04938271604938272,0,0,0.04938271604938272,51.308641975308646,0)" xlink:href="#S"/><use transform="matrix(0.04938271604938272,0,0,0.04938271604938272,57.18518518518519,0)" xlink:href="#N"/><use transform="matrix(0.04938271604938272,0,0,0.04938271604938272,66.07407407407408,0)" xlink:href="#L"/></g><path fill="#333" d="M205 0l-28-72H64L36 0H1l101-248h38L239 0h-34zm-38-99l-47-123c-12 45-31 82-46 123h93" id="ac"/><path fill="#333" d="M30-248c87 1 191-15 191 75 0 78-77 80-158 76V0H30v-248zm33 125c57 0 124 11 124-50 0-59-68-47-124-48v98" id="ad"/><path fill="#333" d="M33 0v-248h34V0H33" id="ae"/><g id="e"><use transform="matrix(0.05,0,0,0.05,0,0)" xlink:href="#ac"/><use transform="matrix(0.05,0,0,0.05,12,0)" xlink:href="#ad"/><use transform="matrix(0.05,0,0,0.05,24,0)" xlink:href="#ae"/></g><path d="M24-248c120-7 223 5 221 122C244-46 201 0 124 0H24v-248zM76-40c74 7 117-18 117-86 0-67-45-88-117-82v168" id="af"/><path d="M25-224v-37h50v37H25zM25 0v-190h50V0H25" id="ag"/><path d="M133-34C117-15 103 5 69 4 32 3 11-16 11-54c-1-60 55-63 116-61 1-26-3-47-28-47-18 1-26 9-28 27l-52-2c7-38 36-58 82-57s74 22 75 68l1 82c-1 14 12 18 25 15v27c-30 8-71 5-69-32zm-48 3c29 0 43-24 42-57-32 0-66-3-65 30 0 17 8 27 23 27" id="ah"/><path d="M195-6C206 82 75 100 31 46c-4-6-6-13-8-21l49-6c3 16 16 24 34 25 40 0 42-37 40-79-11 22-30 35-61 35-53 0-70-43-70-97 0-56 18-96 73-97 30 0 46 14 59 34l2-30h47zm-90-29c32 0 41-27 41-63 0-35-9-62-40-62-32 0-39 29-40 63 0 36 9 62 39 62" id="ai"/><path d="M135-150c-39-12-60 13-60 57V0H25l-1-190h47c2 13-1 29 3 40 6-28 27-53 61-41v41" id="aj"/><path d="M220-157c-53 9-28 100-34 157h-49v-107c1-27-5-49-29-50C55-147 81-57 75 0H25l-1-190h47c2 12-1 28 3 38 10-53 101-56 108 0 13-22 24-43 59-42 82 1 51 116 57 194h-49v-107c-1-25-5-48-29-50" id="ak"/><g id="f"><use transform="matrix(0.07636502481863307,0,0,0.07636502481863307,0,0)" xlink:href="#af"/><use transform="matrix(0.07636502481863307,0,0,0.07636502481863307,19.778541428025964,0)" xlink:href="#ag"/><use transform="matrix(0.07636502481863307,0,0,0.07636502481863307,27.41504390988927,0)" xlink:href="#ah"/><use transform="matrix(0.07636502481863307,0,0,0.07636502481863307,42.688048873615884,0)" xlink:href="#ai"/><use transform="matrix(0.07636502481863307,0,0,0.07636502481863307,59.41198930889653,0)" xlink:href="#aj"/><use transform="matrix(0.07636502481863307,0,0,0.07636502481863307,70.10309278350515,0)" xlink:href="#ah"/><use transform="matrix(0.07636502481863307,0,0,0.07636502481863307,85.37609774723177,0)" xlink:href="#ak"/><use transform="matrix(0.07636502481863307,0,0,0.07636502481863307,109.81290568919435,0)" xlink:href="#ah"/></g><path d="M88-194c31-1 46 15 58 34l-1-101h50l1 261h-48c-2-10 0-23-3-31C134-8 116 4 84 4 32 4 16-41 15-95c0-56 19-97 73-99zm17 164c33 0 40-30 41-66 1-37-9-64-41-64s-38 30-39 65c0 43 13 65 39 65" id="al"/><path d="M185-48c-13 30-37 53-82 52C43 2 14-33 14-96s30-98 90-98c62 0 83 45 84 108H66c0 31 8 55 39 56 18 0 30-7 34-22zm-45-69c5-46-57-63-70-21-2 6-4 13-4 21h74" id="am"/><g id="g"><use transform="matrix(0.07636502481863307,0,0,0.07636502481863307,0,0)" xlink:href="#al"/><use transform="matrix(0.07636502481863307,0,0,0.07636502481863307,16.723940435280642,0)" xlink:href="#am"/></g><path d="M169-182c-1-43-94-46-97-3 18 66 151 10 154 114 3 95-165 93-204 36-6-8-10-19-12-30l50-8c3 46 112 56 116 5-17-69-150-10-154-114-4-87 153-88 188-35 5 8 8 18 10 28" id="an"/><path d="M84 4C32 4 15-41 15-95c0-55 18-99 73-99 29 0 47 12 58 34l2-30h48l-1 265h-49V-32C136-9 114 4 84 4zm21-34c32 0 41-29 41-66 0-36-9-64-40-64-33 0-39 30-40 65 0 43 13 65 39 65" id="ao"/><path d="M85 4C-2 5 27-109 22-190h50c7 57-23 150 33 157 60-5 35-97 40-157h50l1 190h-47c-2-12 1-28-3-38-12 25-28 42-61 42" id="ap"/><path d="M185-48c-13 30-37 53-82 52C43 2 14-33 14-96s30-98 90-98c62 0 83 45 84 108H66c0 31 8 55 39 56 18 0 30-7 34-22zm-45-69c5-46-57-63-70-21-2 6-4 13-4 21h74zm29-96v5h-28c-13-11-23-24-37-34l-37 34H39c9-26 32-39 45-61h41" id="aq"/><path d="M135-194c87-1 58 113 63 194h-50c-7-57 23-157-34-157-59 0-34 97-39 157H25l-1-190h47c2 12-1 28 3 38 12-26 28-41 61-42" id="ar"/><path d="M190-63c-7 42-38 67-86 67-59 0-84-38-90-98-12-110 154-137 174-36l-49 2c-2-19-15-32-35-32-30 0-35 28-38 64-6 74 65 87 74 30" id="as"/><g id="h"><use transform="matrix(0.07636502481863307,0,0,0.07636502481863307,0,0)" xlink:href="#an"/><use transform="matrix(0.07636502481863307,0,0,0.07636502481863307,18.327605956471935,0)" xlink:href="#am"/><use transform="matrix(0.07636502481863307,0,0,0.07636502481863307,33.60061092019855,0)" xlink:href="#ao"/><use transform="matrix(0.07636502481863307,0,0,0.07636502481863307,50.32455135547918,0)" xlink:href="#ap"/><use transform="matrix(0.07636502481863307,0,0,0.07636502481863307,67.04849179075983,0)" xlink:href="#aq"/><use transform="matrix(0.07636502481863307,0,0,0.07636502481863307,82.32149675448645,0)" xlink:href="#ar"/><use transform="matrix(0.07636502481863307,0,0,0.07636502481863307,99.04543718976709,0)" xlink:href="#as"/><use transform="matrix(0.07636502481863307,0,0,0.07636502481863307,114.31844215349369,0)" xlink:href="#ag"/><use transform="matrix(0.07636502481863307,0,0,0.07636502481863307,121.954944635357,0)" xlink:href="#ah"/></g><path d="M67-125c0 53 21 87 73 88 37 1 54-22 65-47l45 17C233-25 199 4 140 4 58 4 20-42 15-125 8-235 124-281 211-232c18 10 29 29 36 50l-46 12c-8-25-30-41-62-41-52 0-71 34-72 86" id="at"/><path d="M110-194c64 0 96 36 96 99 0 64-35 99-97 99-61 0-95-36-95-99 0-62 34-99 96-99zm-1 164c35 0 45-28 45-65 0-40-10-65-43-65-34 0-45 26-45 65 0 36 10 65 43 65" id="au"/><path d="M275 0h-61l-44-196L126 0H64L0-248h53L97-49l45-199h58l43 199 44-199h52" id="av"/><path d="M115-3C79 11 28 4 28-45v-112H4v-33h27l15-45h31v45h36v33H77v99c-1 23 16 31 38 25v30" id="aw"/><path d="M114-157C55-157 80-60 75 0H25v-261h50l-1 109c12-26 28-41 61-42 86-1 58 113 63 194h-50c-7-57 23-157-34-157" id="ax"/><g id="i"><use transform="matrix(0.07636502481863307,0,0,0.07636502481863307,0,0)" xlink:href="#at"/><use transform="matrix(0.07636502481863307,0,0,0.07636502481863307,19.778541428025964,0)" xlink:href="#au"/><use transform="matrix(0.07636502481863307,0,0,0.07636502481863307,36.502481863306606,0)" xlink:href="#aj"/><use transform="matrix(0.07636502481863307,0,0,0.07636502481863307,47.19358533791524,0)" xlink:href="#am"/><use transform="matrix(0.07636502481863307,0,0,0.07636502481863307,62.46659030164185,0)" xlink:href="#av"/><use transform="matrix(0.07636502481863307,0,0,0.07636502481863307,87.36158839251625,0)" xlink:href="#ah"/><use transform="matrix(0.07636502481863307,0,0,0.07636502481863307,102.63459335624285,0)" xlink:href="#aw"/><use transform="matrix(0.07636502481863307,0,0,0.07636502481863307,111.72203130966018,0)" xlink:href="#as"/><use transform="matrix(0.07636502481863307,0,0,0.07636502481863307,126.9950362733868,0)" xlink:href="#ax"/></g><path d="M30 0v-248h33v221h125V0H30" id="ay"/><path d="M232-93c-1 65-40 97-104 97C67 4 28-28 28-90v-158h33c8 89-33 224 67 224 102 0 64-133 71-224h33v155" id="az"/><path d="M212-179c-10-28-35-45-73-45-59 0-87 40-87 99 0 60 29 101 89 101 43 0 62-24 78-52l27 14C228-24 195 4 139 4 59 4 22-46 18-125c-6-104 99-153 187-111 19 9 31 26 39 46" id="aA"/><path d="M205 0l-28-72H64L36 0H1l101-248h38L239 0h-34zm-38-99l-47-123c-12 45-31 82-46 123h93" id="aB"/><path d="M185-189c-5-48-123-54-124 2 14 75 158 14 163 119 3 78-121 87-175 55-17-10-28-26-33-46l33-7c5 56 141 63 141-1 0-78-155-14-162-118-5-82 145-84 179-34 5 7 8 16 11 25" id="aC"/><g id="j"><use transform="matrix(0.04248971193415638,0,0,0.04248971193415638,0,0)" xlink:href="#ay"/><use transform="matrix(0.04248971193415638,0,0,0.04248971193415638,8.497942386831275,0)" xlink:href="#az"/><use transform="matrix(0.04248971193415638,0,0,0.04248971193415638,19.502777777777776,0)" xlink:href="#aA"/><use transform="matrix(0.04248971193415638,0,0,0.04248971193415638,30.50761316872428,0)" xlink:href="#aB"/><use transform="matrix(0.04248971193415638,0,0,0.04248971193415638,40.70514403292181,0)" xlink:href="#aC"/></g><path d="M30-248c118-7 216 8 213 122C240-48 200 0 122 0H30v-248zM63-27c89 8 146-16 146-99s-60-101-146-95v194" id="aD"/><path d="M30 0v-248h187v28H63v79h144v27H63v87h162V0H30" id="aE"/><g id="k"><use transform="matrix(0.04248971193415638,0,0,0.04248971193415638,0,0)" xlink:href="#aD"/><use transform="matrix(0.04248971193415638,0,0,0.04248971193415638,11.004835390946502,0)" xlink:href="#aE"/></g><path d="M140-251c81 0 123 46 123 126C263-46 219 4 140 4 59 4 17-45 17-125s42-126 123-126zm0 227c63 0 89-41 89-101s-29-99-89-99c-61 0-89 39-89 99S79-25 140-24" id="aF"/><g id="l"><use transform="matrix(0.04248971193415638,0,0,0.04248971193415638,0,0)" xlink:href="#aC"/><use transform="matrix(0.04248971193415638,0,0,0.04248971193415638,10.19753086419753,0)" xlink:href="#aF"/><use transform="matrix(0.04248971193415638,0,0,0.04248971193415638,22.094650205761315,0)" xlink:href="#az"/><use transform="matrix(0.04248971193415638,0,0,0.04248971193415638,33.099485596707815,0)" xlink:href="#aC"/><use transform="matrix(0.04248971193415638,0,0,0.04248971193415638,43.29701646090535,0)" xlink:href="#aB"/></g><path d="M233-177c-1 41-23 64-60 70L243 0h-38l-65-103H63V0H30v-248c88 3 205-21 203 71zM63-129c60-2 137 13 137-47 0-61-80-42-137-45v92" id="aG"/><path d="M33 0v-248h34V0H33" id="aH"/><path d="M143 4C61 4 22-44 18-125c-5-107 100-154 193-111 17 8 29 25 37 43l-32 9c-13-25-37-40-76-40-61 0-88 39-88 99 0 61 29 100 91 101 35 0 62-11 79-27v-45h-74v-28h105v86C228-13 192 4 143 4" id="aI"/><g id="m"><use transform="matrix(0.04248971193415638,0,0,0.04248971193415638,0,0)" xlink:href="#aG"/><use transform="matrix(0.04248971193415638,0,0,0.04248971193415638,11.004835390946502,0)" xlink:href="#aF"/><use transform="matrix(0.04248971193415638,0,0,0.04248971193415638,22.901954732510287,0)" xlink:href="#aD"/><use transform="matrix(0.04248971193415638,0,0,0.04248971193415638,33.90679012345679,0)" xlink:href="#aG"/><use transform="matrix(0.04248971193415638,0,0,0.04248971193415638,44.91162551440329,0)" xlink:href="#aH"/><use transform="matrix(0.04248971193415638,0,0,0.04248971193415638,49.160596707818925,0)" xlink:href="#aI"/><use transform="matrix(0.04248971193415638,0,0,0.04248971193415638,61.05771604938271,0)" xlink:href="#az"/><use transform="matrix(0.04248971193415638,0,0,0.04248971193415638,72.06255144032922,0)" xlink:href="#aE"/><use transform="matrix(0.04248971193415638,0,0,0.04248971193415638,82.26008230452675,0)" xlink:href="#aC"/></g><path d="M32 76v-337h29V76H32" id="aJ"/><use transform="matrix(0.04248971193415638,0,0,0.04248971193415638,0,0)" xlink:href="#aJ" id="n"/><path d="M153-248C145-148 188 4 80 4 36 3 13-21 6-62l32-5c4 25 16 42 43 43 27 0 39-20 39-49v-147H72v-28h81" id="aK"/><path d="M84 4C-5 8 30-112 23-190h32v120c0 31 7 50 39 49 72-2 45-101 50-169h31l1 190h-30c-1-10 1-25-2-33-11 22-28 36-60 37" id="aL"/><path d="M117-194c89-4 53 116 60 194h-32v-121c0-31-8-49-39-48C34-167 62-67 57 0H25l-1-190h30c1 10-1 24 2 32 11-22 29-35 61-36" id="aM"/><path d="M100-194c63 0 86 42 84 106H49c0 40 14 67 53 68 26 1 43-12 49-29l28 8c-11 28-37 45-77 45C44 4 14-33 15-96c1-61 26-98 85-98zm52 81c6-60-76-77-97-28-3 7-6 17-6 28h103" id="aN"/><g id="o"><use transform="matrix(0.04248971193415638,0,0,0.04248971193415638,0,0)" xlink:href="#aK"/><use transform="matrix(0.04248971193415638,0,0,0.04248971193415638,7.648148148148148,0)" xlink:href="#aL"/><use transform="matrix(0.04248971193415638,0,0,0.04248971193415638,16.14609053497942,0)" xlink:href="#aM"/><use transform="matrix(0.04248971193415638,0,0,0.04248971193415638,24.644032921810698,0)" xlink:href="#aN"/></g><path d="M101-251c82-7 93 87 43 132L82-64C71-53 59-42 53-27h129V0H18c2-99 128-94 128-182 0-28-16-43-45-43s-46 15-49 41l-32-3c6-41 34-60 81-64" id="aO"/><path d="M27 0v-27h64v-190l-56 39v-29l58-41h29v221h61V0H27" id="aP"/><path d="M68-38c1 34 0 65-14 84H32c9-13 17-26 17-46H33v-38h35" id="aQ"/><g id="p"><use transform="matrix(0.04248971193415638,0,0,0.04248971193415638,0,0)" xlink:href="#aO"/><use transform="matrix(0.04248971193415638,0,0,0.04248971193415638,8.497942386831275,0)" xlink:href="#aP"/><use transform="matrix(0.04248971193415638,0,0,0.04248971193415638,16.99588477366255,0)" xlink:href="#aQ"/></g><path d="M101-251c68 0 85 55 85 127S166 4 100 4C33 4 14-52 14-124c0-73 17-127 87-127zm-1 229c47 0 54-49 54-102s-4-102-53-102c-51 0-55 48-55 102 0 53 5 102 54 102" id="aR"/><path d="M54-142c48-35 137-8 131 61C196 18 31 33 14-55l32-4c7 23 22 37 52 37 35-1 51-22 54-58 4-55-73-65-99-34H22l8-134h141v27H59" id="aS"/><g id="q"><use transform="matrix(0.04248971193415638,0,0,0.04248971193415638,0,0)" xlink:href="#aO"/><use transform="matrix(0.04248971193415638,0,0,0.04248971193415638,8.497942386831275,0)" xlink:href="#aR"/><use transform="matrix(0.04248971193415638,0,0,0.04248971193415638,16.99588477366255,0)" xlink:href="#aO"/><use transform="matrix(0.04248971193415638,0,0,0.04248971193415638,25.493827160493822,0)" xlink:href="#aS"/></g><path d="M127-220V0H93v-220H8v-28h204v28h-85" id="aT"/><path d="M141 0L90-78 38 0H4l68-98-65-92h35l48 74 47-74h35l-64 92 68 98h-35" id="aU"/><path d="M59-47c-2 24 18 29 38 22v24C64 9 27 4 27-40v-127H5v-23h24l9-43h21v43h35v23H59v120" id="aV"/><path d="M100-194c62-1 85 37 85 99 1 63-27 99-86 99S16-35 15-95c0-66 28-99 85-99zM99-20c44 1 53-31 53-75 0-43-8-75-51-75s-53 32-53 75 10 74 51 75" id="aW"/><g id="r"><use transform="matrix(0.04248971193415638,0,0,0.04248971193415638,0,0)" xlink:href="#aT"/><use transform="matrix(0.04248971193415638,0,0,0.04248971193415638,7.605658436213991,0)" xlink:href="#aN"/><use transform="matrix(0.04248971193415638,0,0,0.04248971193415638,16.103600823045266,0)" xlink:href="#aU"/><use transform="matrix(0.04248971193415638,0,0,0.04248971193415638,23.751748971193415,0)" xlink:href="#aV"/><use transform="matrix(0.04248971193415638,0,0,0.04248971193415638,28.000720164609053,0)" xlink:href="#aW"/></g><path fill="#333" d="M210-169c-67 3-38 105-44 169h-31v-121c0-29-5-50-35-48C34-165 62-65 56 0H25l-1-190h30c1 10-1 24 2 32 10-44 99-50 107 0 11-21 27-35 58-36 85-2 47 119 55 194h-31v-121c0-29-5-49-35-48" id="aX"/><path fill="#333" d="M24-231v-30h32v30H24zM24 0v-190h32V0H24" id="aY"/><path fill="#333" d="M117-194c89-4 53 116 60 194h-32v-121c0-31-8-49-39-48C34-167 62-67 57 0H25l-1-190h30c1 10-1 24 2 32 11-22 29-35 61-36" id="aZ"/><g id="s"><use transform="matrix(0.05,0,0,0.05,0,0)" xlink:href="#ac"/><use transform="matrix(0.05,0,0,0.05,12,0)" xlink:href="#Z"/><use transform="matrix(0.05,0,0,0.05,22,0)" xlink:href="#aX"/><use transform="matrix(0.05,0,0,0.05,36.95,0)" xlink:href="#aY"/><use transform="matrix(0.05,0,0,0.05,40.900000000000006,0)" xlink:href="#aZ"/></g><path fill="#333" d="M232-93c-1 65-40 97-104 97C67 4 28-28 28-90v-158h33c8 89-33 224 67 224 102 0 64-133 71-224h33v155" id="ba"/><g id="t"><use transform="matrix(0.05,0,0,0.05,0,0)" xlink:href="#ba"/><use transform="matrix(0.05,0,0,0.05,12.950000000000001,0)" xlink:href="#K"/><use transform="matrix(0.05,0,0,0.05,21.950000000000003,0)" xlink:href="#L"/><use transform="matrix(0.05,0,0,0.05,31.950000000000003,0)" xlink:href="#S"/></g><g id="u"><use transform="matrix(0.04938271604938272,0,0,0.04938271604938272,0,0)" xlink:href="#ac"/><use transform="matrix(0.04938271604938272,0,0,0.04938271604938272,11.851851851851853,0)" xlink:href="#M"/><use transform="matrix(0.04938271604938272,0,0,0.04938271604938272,15.753086419753087,0)" xlink:href="#L"/><use transform="matrix(0.04938271604938272,0,0,0.04938271604938272,25.629629629629633,0)" xlink:href="#S"/><use transform="matrix(0.04938271604938272,0,0,0.04938271604938272,31.506172839506174,0)" xlink:href="#O"/></g><g id="v"><use transform="matrix(0.05,0,0,0.05,0,0)" xlink:href="#W"/><use transform="matrix(0.05,0,0,0.05,10,0)" xlink:href="#N"/><use transform="matrix(0.05,0,0,0.05,19,0)" xlink:href="#N"/><use transform="matrix(0.05,0,0,0.05,28,0)" xlink:href="#L"/><use transform="matrix(0.05,0,0,0.05,38,0)" xlink:href="#K"/><use transform="matrix(0.05,0,0,0.05,47,0)" xlink:href="#K"/><use transform="matrix(0.05,0,0,0.05,56,0)" xlink:href="#aa"/><use transform="matrix(0.05,0,0,0.05,66,0)" xlink:href="#ab"/><use transform="matrix(0.05,0,0,0.05,76,0)" xlink:href="#W"/><use transform="matrix(0.05,0,0,0.05,86,0)" xlink:href="#S"/><use transform="matrix(0.05,0,0,0.05,91.95,0)" xlink:href="#T"/><use transform="matrix(0.05,0,0,0.05,97.9,0)" xlink:href="#U"/></g><path fill="#333" d="M108 0H70L1-190h34L89-25l56-165h34" id="bb"/><path fill="#333" d="M206 0h-36l-40-164L89 0H53L-1-190h32L70-26l43-164h34l41 164 42-164h31" id="bc"/><g id="w"><use transform="matrix(0.05,0,0,0.05,0,0)" xlink:href="#bb"/><use transform="matrix(0.05,0,0,0.05,9,0)" xlink:href="#aY"/><use transform="matrix(0.05,0,0,0.05,12.949999999999998,0)" xlink:href="#L"/><use transform="matrix(0.05,0,0,0.05,22.95,0)" xlink:href="#bc"/><use transform="matrix(0.05,0,0,0.05,35.9,0)" xlink:href="#V"/><use transform="matrix(0.05,0,0,0.05,48.85,0)" xlink:href="#W"/><use transform="matrix(0.05,0,0,0.05,58.85,0)" xlink:href="#K"/><use transform="matrix(0.05,0,0,0.05,67.85,0)" xlink:href="#X"/><use transform="matrix(0.05,0,0,0.05,77.85,0)" xlink:href="#Y"/><use transform="matrix(0.05,0,0,0.05,87.85,0)" xlink:href="#Q"/><use transform="matrix(0.05,0,0,0.05,97.85,0)" xlink:href="#W"/><use transform="matrix(0.05,0,0,0.05,107.84999999999998,0)" xlink:href="#S"/><use transform="matrix(0.05,0,0,0.05,113.80000000000001,0)" xlink:href="#Z"/><use transform="matrix(0.05,0,0,0.05,123.80000000000001,0)" xlink:href="#T"/><use transform="matrix(0.05,0,0,0.05,129.75,0)" xlink:href="#U"/></g><path fill="#333" d="M30 0v-248h187v28H63v79h144v27H63v87h162V0H30" id="bd"/><g id="x"><use transform="matrix(0.05,0,0,0.05,0,0)" xlink:href="#N"/><use transform="matrix(0.05,0,0,0.05,9,0)" xlink:href="#S"/><use transform="matrix(0.05,0,0,0.05,14.949999999999998,0)" xlink:href="#aY"/><use transform="matrix(0.05,0,0,0.05,18.9,0)" xlink:href="#O"/><use transform="matrix(0.05,0,0,0.05,23.9,0)" xlink:href="#aY"/><use transform="matrix(0.05,0,0,0.05,27.849999999999994,0)" xlink:href="#N"/><use transform="matrix(0.05,0,0,0.05,36.849999999999994,0)" xlink:href="#bd"/><use transform="matrix(0.05,0,0,0.05,48.849999999999994,0)" xlink:href="#bb"/><use transform="matrix(0.05,0,0,0.05,57.849999999999994,0)" xlink:href="#L"/><use transform="matrix(0.05,0,0,0.05,67.85,0)" xlink:href="#aZ"/><use transform="matrix(0.05,0,0,0.05,77.85,0)" xlink:href="#O"/><use transform="matrix(0.05,0,0,0.05,82.85,0)" xlink:href="#T"/><use transform="matrix(0.05,0,0,0.05,88.8,0)" xlink:href="#U"/></g><path fill="#333" d="M190 0L58-211 59 0H30v-248h39L202-35l-2-213h31V0h-41" id="be"/><path fill="#333" d="M101-234c-31-9-42 10-38 44h38v23H63V0H32v-167H5v-23h27c-7-52 17-82 69-68v24" id="bf"/><g id="y"><use transform="matrix(0.05,0,0,0.05,0,0)" xlink:href="#K"/><use transform="matrix(0.05,0,0,0.05,9,0)" xlink:href="#L"/><use transform="matrix(0.05,0,0,0.05,19,0)" xlink:href="#aZ"/><use transform="matrix(0.05,0,0,0.05,29,0)" xlink:href="#O"/><use transform="matrix(0.05,0,0,0.05,34,0)" xlink:href="#be"/><use transform="matrix(0.05,0,0,0.05,46.95,0)" xlink:href="#Q"/><use transform="matrix(0.05,0,0,0.05,56.95,0)" xlink:href="#O"/><use transform="matrix(0.05,0,0,0.05,61.95,0)" xlink:href="#aY"/><use transform="matrix(0.05,0,0,0.05,65.9,0)" xlink:href="#bf"/><use transform="matrix(0.05,0,0,0.05,70.9,0)" xlink:href="#aY"/><use transform="matrix(0.05,0,0,0.05,74.85000000000001,0)" xlink:href="#N"/><use transform="matrix(0.05,0,0,0.05,83.85000000000001,0)" xlink:href="#W"/><use transform="matrix(0.05,0,0,0.05,93.85000000000001,0)" xlink:href="#O"/><use transform="matrix(0.05,0,0,0.05,98.85000000000001,0)" xlink:href="#aY"/><use transform="matrix(0.05,0,0,0.05,102.80000000000001,0)" xlink:href="#Q"/><use transform="matrix(0.05,0,0,0.05,112.80000000000001,0)" xlink:href="#aZ"/><use transform="matrix(0.05,0,0,0.05,122.80000000000001,0)" xlink:href="#T"/><use transform="matrix(0.05,0,0,0.05,128.75,0)" xlink:href="#U"/></g><g id="z"><use transform="matrix(0.05,0,0,0.05,0,0)" xlink:href="#K"/><use transform="matrix(0.05,0,0,0.05,9,0)" xlink:href="#X"/><use transform="matrix(0.05,0,0,0.05,19,0)" xlink:href="#Q"/><use transform="matrix(0.05,0,0,0.05,29,0)" xlink:href="#bc"/><use transform="matrix(0.05,0,0,0.05,41.95,0)" xlink:href="#V"/><use transform="matrix(0.05,0,0,0.05,54.900000000000006,0)" xlink:href="#W"/><use transform="matrix(0.05,0,0,0.05,64.9,0)" xlink:href="#K"/><use transform="matrix(0.05,0,0,0.05,73.9,0)" xlink:href="#X"/><use transform="matrix(0.05,0,0,0.05,83.9,0)" xlink:href="#Y"/><use transform="matrix(0.05,0,0,0.05,93.9,0)" xlink:href="#Q"/><use transform="matrix(0.05,0,0,0.05,103.9,0)" xlink:href="#W"/><use transform="matrix(0.05,0,0,0.05,113.9,0)" xlink:href="#S"/><use transform="matrix(0.05,0,0,0.05,119.85000000000001,0)" xlink:href="#Z"/><use transform="matrix(0.05,0,0,0.05,129.85000000000002,0)" xlink:href="#T"/><use transform="matrix(0.05,0,0,0.05,135.8,0)" xlink:href="#U"/></g><path fill="#333" d="M177-190C167-65 218 103 67 71c-23-6-38-20-44-43l32-5c15 47 100 32 89-28v-30C133-14 115 1 83 1 29 1 15-40 15-95c0-56 16-97 71-98 29-1 48 16 59 35 1-10 0-23 2-32h30zM94-22c36 0 50-32 50-73 0-42-14-75-50-75-39 0-46 34-46 75s6 73 46 73" id="bg"/><path fill="#333" d="M197 0v-115H63V0H30v-248h33v105h134v-105h34V0h-34" id="bh"/><g id="A"><use transform="matrix(0.05,0,0,0.05,0,0)" xlink:href="#bg"/><use transform="matrix(0.05,0,0,0.05,10,0)" xlink:href="#L"/><use transform="matrix(0.05,0,0,0.05,20,0)" xlink:href="#O"/><use transform="matrix(0.05,0,0,0.05,25,0)" xlink:href="#bh"/><use transform="matrix(0.05,0,0,0.05,37.95,0)" xlink:href="#aY"/><use transform="matrix(0.05,0,0,0.05,41.900000000000006,0)" xlink:href="#K"/><use transform="matrix(0.05,0,0,0.05,50.900000000000006,0)" xlink:href="#O"/><use transform="matrix(0.05,0,0,0.05,55.900000000000006,0)" xlink:href="#Q"/><use transform="matrix(0.05,0,0,0.05,65.9,0)" xlink:href="#S"/><use transform="matrix(0.05,0,0,0.05,71.85000000000001,0)" xlink:href="#aY"/><use transform="matrix(0.05,0,0,0.05,75.80000000000001,0)" xlink:href="#N"/><use transform="matrix(0.05,0,0,0.05,84.80000000000001,0)" xlink:href="#T"/><use transform="matrix(0.05,0,0,0.05,90.75000000000001,0)" xlink:href="#U"/></g><g id="B"><use transform="matrix(0.05,0,0,0.05,0,0)" xlink:href="#N"/><use transform="matrix(0.05,0,0,0.05,9,0)" xlink:href="#Q"/><use transform="matrix(0.05,0,0,0.05,19,0)" xlink:href="#M"/><use transform="matrix(0.05,0,0,0.05,22.95,0)" xlink:href="#L"/><use transform="matrix(0.05,0,0,0.05,32.95,0)" xlink:href="#N"/><use transform="matrix(0.05,0,0,0.05,41.95,0)" xlink:href="#O"/><use transform="matrix(0.05,0,0,0.05,46.95,0)" xlink:href="#V"/><use transform="matrix(0.05,0,0,0.05,59.900000000000006,0)" xlink:href="#W"/><use transform="matrix(0.05,0,0,0.05,69.9,0)" xlink:href="#O"/><use transform="matrix(0.05,0,0,0.05,74.9,0)" xlink:href="#W"/><use transform="matrix(0.05,0,0,0.05,84.9,0)" xlink:href="#T"/><use transform="matrix(0.05,0,0,0.05,90.85000000000001,0)" xlink:href="#U"/></g><g id="C"><use transform="matrix(0.05,0,0,0.05,0,0)" xlink:href="#K"/><use transform="matrix(0.05,0,0,0.05,9,0)" xlink:href="#L"/><use transform="matrix(0.05,0,0,0.05,19,0)" xlink:href="#aZ"/><use transform="matrix(0.05,0,0,0.05,29,0)" xlink:href="#O"/><use transform="matrix(0.05,0,0,0.05,34,0)" xlink:href="#V"/><use transform="matrix(0.05,0,0,0.05,46.95,0)" xlink:href="#W"/><use transform="matrix(0.05,0,0,0.05,56.95,0)" xlink:href="#O"/><use transform="matrix(0.05,0,0,0.05,61.95,0)" xlink:href="#W"/><use transform="matrix(0.05,0,0,0.05,71.95,0)" xlink:href="#T"/><use transform="matrix(0.05,0,0,0.05,77.9,0)" xlink:href="#U"/></g><g id="D"><use transform="matrix(0.05,0,0,0.05,0,0)" xlink:href="#N"/><use transform="matrix(0.05,0,0,0.05,9,0)" xlink:href="#S"/><use transform="matrix(0.05,0,0,0.05,14.949999999999998,0)" xlink:href="#L"/><use transform="matrix(0.05,0,0,0.05,24.95,0)" xlink:href="#W"/><use transform="matrix(0.05,0,0,0.05,34.95,0)" xlink:href="#O"/><use transform="matrix(0.05,0,0,0.05,39.95,0)" xlink:href="#L"/><use transform="matrix(0.05,0,0,0.05,49.95,0)" xlink:href="#ba"/><use transform="matrix(0.05,0,0,0.05,62.900000000000006,0)" xlink:href="#K"/><use transform="matrix(0.05,0,0,0.05,71.9,0)" xlink:href="#L"/><use transform="matrix(0.05,0,0,0.05,81.9,0)" xlink:href="#S"/><use transform="matrix(0.05,0,0,0.05,87.85000000000001,0)" xlink:href="#T"/><use transform="matrix(0.05,0,0,0.05,93.80000000000001,0)" xlink:href="#U"/></g><path fill="#333" d="M143 4C61 4 22-44 18-125c-5-107 100-154 193-111 17 8 29 25 37 43l-32 9c-13-25-37-40-76-40-61 0-88 39-88 99 0 61 29 100 91 101 35 0 62-11 79-27v-45h-74v-28h105v86C228-13 192 4 143 4" id="bi"/><g id="E"><use transform="matrix(0.05,0,0,0.05,0,0)" xlink:href="#N"/><use transform="matrix(0.05,0,0,0.05,9,0)" xlink:href="#S"/><use transform="matrix(0.05,0,0,0.05,14.949999999999998,0)" xlink:href="#L"/><use transform="matrix(0.05,0,0,0.05,24.95,0)" xlink:href="#W"/><use transform="matrix(0.05,0,0,0.05,34.95,0)" xlink:href="#O"/><use transform="matrix(0.05,0,0,0.05,39.95,0)" xlink:href="#L"/><use transform="matrix(0.05,0,0,0.05,49.95,0)" xlink:href="#bi"/><use transform="matrix(0.05,0,0,0.05,63.95,0)" xlink:href="#S"/><use transform="matrix(0.05,0,0,0.05,69.9,0)" xlink:href="#Q"/><use transform="matrix(0.05,0,0,0.05,79.9,0)" xlink:href="#R"/><use transform="matrix(0.05,0,0,0.05,89.9,0)" xlink:href="#ab"/><use transform="matrix(0.05,0,0,0.05,99.9,0)" xlink:href="#T"/><use transform="matrix(0.05,0,0,0.05,105.85000000000001,0)" xlink:href="#U"/></g><g id="F"><use transform="matrix(0.05,0,0,0.05,0,0)" xlink:href="#W"/><use transform="matrix(0.05,0,0,0.05,10,0)" xlink:href="#Z"/><use transform="matrix(0.05,0,0,0.05,20,0)" xlink:href="#Z"/><use transform="matrix(0.05,0,0,0.05,30,0)" xlink:href="#ba"/><use transform="matrix(0.05,0,0,0.05,42.95,0)" xlink:href="#K"/><use transform="matrix(0.05,0,0,0.05,51.95,0)" xlink:href="#L"/><use transform="matrix(0.05,0,0,0.05,61.95,0)" xlink:href="#S"/><use transform="matrix(0.05,0,0,0.05,67.9,0)" xlink:href="#T"/><use transform="matrix(0.05,0,0,0.05,73.85000000000001,0)" xlink:href="#U"/></g><g id="G"><use transform="matrix(0.05,0,0,0.05,0,0)" xlink:href="#S"/><use transform="matrix(0.05,0,0,0.05,5.95,0)" xlink:href="#L"/><use transform="matrix(0.05,0,0,0.05,15.949999999999998,0)" xlink:href="#aX"/><use transform="matrix(0.05,0,0,0.05,30.899999999999995,0)" xlink:href="#Q"/><use transform="matrix(0.05,0,0,0.05,40.9,0)" xlink:href="#bb"/><use transform="matrix(0.05,0,0,0.05,49.9,0)" xlink:href="#L"/><use transform="matrix(0.05,0,0,0.05,59.900000000000006,0)" xlink:href="#ba"/><use transform="matrix(0.05,0,0,0.05,72.85,0)" xlink:href="#K"/><use transform="matrix(0.05,0,0,0.05,81.85,0)" xlink:href="#L"/><use transform="matrix(0.05,0,0,0.05,91.85,0)" xlink:href="#S"/><use transform="matrix(0.05,0,0,0.05,97.8,0)" xlink:href="#T"/><use transform="matrix(0.05,0,0,0.05,103.75,0)" xlink:href="#U"/></g><g id="H"><use transform="matrix(0.04938271604938272,0,0,0.04938271604938272,0,0)" xlink:href="#bi"/><use transform="matrix(0.04938271604938272,0,0,0.04938271604938272,13.827160493827162,0)" xlink:href="#S"/><use transform="matrix(0.04938271604938272,0,0,0.04938271604938272,19.703703703703706,0)" xlink:href="#Q"/><use transform="matrix(0.04938271604938272,0,0,0.04938271604938272,29.58024691358025,0)" xlink:href="#R"/><use transform="matrix(0.04938271604938272,0,0,0.04938271604938272,39.4567901234568,0)" xlink:href="#ab"/></g><g id="I"><use transform="matrix(0.05,0,0,0.05,0,0)" xlink:href="#bg"/><use transform="matrix(0.05,0,0,0.05,10,0)" xlink:href="#S"/><use transform="matrix(0.05,0,0,0.05,15.949999999999998,0)" xlink:href="#W"/><use transform="matrix(0.05,0,0,0.05,25.950000000000003,0)" xlink:href="#aZ"/><use transform="matrix(0.05,0,0,0.05,35.95,0)" xlink:href="#O"/><use transform="matrix(0.05,0,0,0.05,40.95,0)" xlink:href="#ac"/><use transform="matrix(0.05,0,0,0.05,52.95,0)" xlink:href="#N"/><use transform="matrix(0.05,0,0,0.05,61.95,0)" xlink:href="#N"/><use transform="matrix(0.05,0,0,0.05,70.95,0)" xlink:href="#L"/><use transform="matrix(0.05,0,0,0.05,80.95,0)" xlink:href="#K"/><use transform="matrix(0.05,0,0,0.05,89.95,0)" xlink:href="#K"/><use transform="matrix(0.05,0,0,0.05,98.95,0)" xlink:href="#T"/><use transform="matrix(0.05,0,0,0.05,104.9,0)" xlink:href="#U"/></g><g id="J"><use transform="matrix(0.05,0,0,0.05,0,0)" xlink:href="#S"/><use transform="matrix(0.05,0,0,0.05,5.95,0)" xlink:href="#L"/><use transform="matrix(0.05,0,0,0.05,15.949999999999998,0)" xlink:href="#aX"/><use transform="matrix(0.05,0,0,0.05,30.899999999999995,0)" xlink:href="#Q"/><use transform="matrix(0.05,0,0,0.05,40.9,0)" xlink:href="#bb"/><use transform="matrix(0.05,0,0,0.05,49.9,0)" xlink:href="#L"/><use transform="matrix(0.05,0,0,0.05,59.900000000000006,0)" xlink:href="#bi"/><use transform="matrix(0.05,0,0,0.05,73.9,0)" xlink:href="#S"/><use transform="matrix(0.05,0,0,0.05,79.85000000000001,0)" xlink:href="#Q"/><use transform="matrix(0.05,0,0,0.05,89.85000000000001,0)" xlink:href="#R"/><use transform="matrix(0.05,0,0,0.05,99.85000000000001,0)" xlink:href="#ab"/><use transform="matrix(0.05,0,0,0.05,109.85000000000001,0)" xlink:href="#T"/><use transform="matrix(0.05,0,0,0.05,115.80000000000001,0)" xlink:href="#U"/></g></defs></g></svg>