<svg xmlns="http://www.w3.org/2000/svg" xmlns:xlink="http://www.w3.org/1999/xlink" xmlns:lucid="lucid" width="1034.52" height="641.4"><g transform="translate(-1443.2268114048275 -276.37646123387594)" lucid:page-tab-id="0_0"><path d="M1000 0h1500v1000H1000z" fill="#fff"/><path d="M1526.85 285.38a8 8 0 0 1 8-8h836.75a8 8 0 0 1 8 8v25.15a8 8 0 0 1-8 8h-836.75a8 8 0 0 1-8-8z" stroke="#000" stroke-opacity="0" stroke-width="2" fill="#fff" fill-opacity="0"/><use xlink:href="#a" transform="matrix(1,0,0,1,1530.85205717077,281.37646123387594) translate(96.28407407407411 25.782777777777778)"/><use xlink:href="#b" transform="matrix(1,0,0,1,1530.85205717077,281.37646123387594) translate(222.87913580246916 25.782777777777778)"/><use xlink:href="#c" transform="matrix(1,0,0,1,1530.85205717077,281.37646123387594) translate(260.68283950617285 25.782777777777778)"/><use xlink:href="#d" transform="matrix(1,0,0,1,1530.85205717077,281.37646123387594) translate(355.1556790123457 25.782777777777778)"/><use xlink:href="#e" transform="matrix(1,0,0,1,1530.85205717077,281.37646123387594) translate(392.9593827160494 25.782777777777778)"/><use xlink:href="#f" transform="matrix(1,0,0,1,1530.85205717077,281.37646123387594) translate(506.29765432098765 25.782777777777778)"/><use xlink:href="#g" transform="matrix(1,0,0,1,1530.85205717077,281.37646123387594) translate(650.6655555555556 25.782777777777778)"/><use xlink:href="#h" transform="matrix(1,0,0,1,1530.85205717077,281.37646123387594) translate(666.6174074074074 25.782777777777778)"/><path d="M1803.33 317.2h309.37M1803.36 317.2h-1.03M2112.67 317.2h1.03" stroke="#a9afb8" stroke-width="2" fill="none"/><path d="M1526.85 326.53a8 8 0 0 1 8-8h837.7a8 8 0 0 1 8 8v2.85a8 8 0 0 1-8 8h-837.7a8 8 0 0 1-8-8z" stroke="#000" stroke-opacity="0" stroke-width="2" fill="#fff" fill-opacity="0"/><use xlink:href="#i" transform="matrix(1,0,0,1,1530.8520571707704,322.53168519077474) translate(252.42085390946505 14.917037037037037)"/><use xlink:href="#j" transform="matrix(1,0,0,1,1530.8520571707704,322.53168519077474) translate(307.5725 14.917037037037037)"/><use xlink:href="#k" transform="matrix(1,0,0,1,1530.8520571707704,322.53168519077474) translate(333.0238374485597 14.917037037037037)"/><use xlink:href="#l" transform="matrix(1,0,0,1,1530.8520571707704,322.53168519077474) translate(389.91756172839507 14.917037037037037)"/><use xlink:href="#m" transform="matrix(1,0,0,1,1530.8520571707704,322.53168519077474) translate(490.87311728395065 14.917037037037037)"/><use xlink:href="#n" transform="matrix(1,0,0,1,1530.8520571707704,322.53168519077474) translate(503.32260288065845 14.917037037037037)"/><use xlink:href="#o" transform="matrix(1,0,0,1,1530.8520571707704,322.53168519077474) translate(540.7135493827161 14.917037037037037)"/><use xlink:href="#p" transform="matrix(1,0,0,1,1530.8520571707704,322.53168519077474) translate(566.2073765432099 14.917037037037037)"/><path d="M1573.23 470c0 5.52-4.48 10-10 10-5.53 0-10-4.48-10-10s4.47-10 10-10c5.52 0 10 4.48 10 10z" stroke="#000" stroke-width="2" fill-opacity="0"/><path d="M1443.23 426a6 6 0 0 1 6-6h228a6 6 0 0 1 6 6v48a6 6 0 0 1-6 6h-228a6 6 0 0 1-6-6z" fill="none"/><use xlink:href="#q" transform="matrix(1,0,0,1,1443.2268114048275,420) translate(96.57407407407408 34.44444444444444)"/><path d="M1573.23 867.78c0 5.52-4.48 10-10 10-5.53 0-10-4.48-10-10s4.47-10 10-10c5.52 0 10 4.48 10 10z" stroke="#e81313" stroke-width="2"/><path d="M1443.23 863.78a6 6 0 0 1 6-6h228a6 6 0 0 1 6 6v48a6 6 0 0 1-6 6h-228a6 6 0 0 1-6-6z" fill="none"/><use xlink:href="#r" transform="matrix(1,0,0,1,1443.2268114048275,857.7800841921709) translate(100.24691358024691 34.44444444444444)"/><path d="M1503.23 584.85a6 6 0 0 1 6-6h108a6 6 0 0 1 6 6v38a6 6 0 0 1-6 6h-108a6 6 0 0 1-6-6z" stroke="#000" stroke-width="2" fill-opacity="0"/><use xlink:href="#s" transform="matrix(1,0,0,1,1515.2268114048275,590.844776043334) translate(30.049999999999997 16.025)"/><path d="M1923.23 583.38a6 6 0 0 1 6-6h108a6 6 0 0 1 6 6v38a6 6 0 0 1-6 6h-108a6 6 0 0 1-6-6z" stroke="#000" stroke-width="2" fill-opacity="0"/><use xlink:href="#t" transform="matrix(1,0,0,1,1935.2268114048275,589.3764612341088) translate(16.049999999999997 16.025)"/><path d="M2343.23 583.38a6 6 0 0 1 6-6h108a6 6 0 0 1 6 6v38a6 6 0 0 1-6 6h-108a6 6 0 0 1-6-6z" stroke="#000" stroke-width="2" fill-opacity="0"/><use xlink:href="#u" transform="matrix(1,0,0,1,2355.2268114048275,589.3764612341088) translate(5.574999999999996 16.025)"/><path d="M2343.23 742.3a6 6 0 0 1 6-6h108a6 6 0 0 1 6 6v38a6 6 0 0 1-6 6h-108a6 6 0 0 1-6-6z" stroke="#000" stroke-width="2" fill-opacity="0"/><use xlink:href="#v" transform="matrix(1,0,0,1,2355.2268114048275,748.3117693829456) translate(14.5 16.025)"/><path d="M1923.23 742.3a6 6 0 0 1 6-6h108a6 6 0 0 1 6 6v38a6 6 0 0 1-6 6h-108a6 6 0 0 1-6-6z" stroke="#000" stroke-width="2" fill-opacity="0"/><use xlink:href="#w" transform="matrix(1,0,0,1,1935.2268114048275,748.3117693829456) translate(2.049999999999997 16.025)"/><use xlink:href="#x" transform="matrix(1,0,0,1,1935.2268114048275,748.3117693829456) translate(22.049999999999997 16.025)"/><path d="M1503.23 743.78a6 6 0 0 1 6-6h108a6 6 0 0 1 6 6v38a6 6 0 0 1-6 6h-108a6 6 0 0 1-6-6z" stroke="#000" stroke-width="2" fill-opacity="0"/><use xlink:href="#y" transform="matrix(1,0,0,1,1515.2268114048275,749.7800841921709) translate(10.549999999999997 16.025)"/><path d="M1685 604.82h-59.77v-1.95H1685zm218.72-1.47h-96.6v-1.95h96.6z" stroke="#000" stroke-width=".05"/><path d="M1625.25 604.82h-1.02v-1.95h1.02z"/><path stroke="#000" stroke-width=".05"/><path d="M1919 602.38L1904.7 607v-9.26z"/><path d="M1922.15 602.38l-18.4 5.97V596.4zm-16.45 3.3l10.14-3.3-10.14-3.3z" stroke="#000" stroke-width=".05"/><use xlink:href="#z" transform="matrix(1,0,0,1,1684.9865531446344,593.1781093766674) translate(0 14.222222222222223)"/><use xlink:href="#A" transform="matrix(1,0,0,1,1684.9865531446344,593.1781093766674) translate(85.67901234567901 14.222222222222223)"/><path d="M2123.82 603.35h-78.6v-1.95h78.6zm199.9 0h-61.1v-1.95h61.1z" stroke="#000" stroke-width=".05"/><path d="M2045.25 603.35h-1.02v-1.95h1.02z"/><path stroke="#000" stroke-width=".05"/><path d="M2339 602.38L2324.7 607v-9.26z"/><path d="M2342.15 602.38l-18.4 5.97V596.4zm-16.45 3.3l10.14-3.3-10.14-3.3z" stroke="#000" stroke-width=".05"/><use xlink:href="#B" transform="matrix(1,0,0,1,2123.81940399742,591.7097945674421) translate(0 14.222222222222223)"/><use xlink:href="#C" transform="matrix(1,0,0,1,2123.81940399742,591.7097945674421) translate(43.35802469135803 14.222222222222223)"/><path d="M2404.2 716.8h-1.95v-41.18h1.95zm0-62.5h-1.95v-24.92h1.95z" stroke="#000" stroke-width=".05"/><path d="M2404.2 629.4h-1.95v-1.02h1.95z"/><path stroke="#000" stroke-width=".05"/><path d="M2403.23 732.08l-4.64-14.27h9.26z"/><path d="M2403.23 735.23l-5.98-18.4h11.95zm-3.3-16.45l3.3 10.14 3.3-10.13z" stroke="#000" stroke-width=".05"/><use xlink:href="#D" transform="matrix(1,0,0,1,2328.7082928863088,654.2906175636277) translate(0 14.222222222222223)"/><use xlink:href="#E" transform="matrix(1,0,0,1,2328.7082928863088,654.2906175636277) translate(68.2962962962963 14.222222222222223)"/><use xlink:href="#F" transform="matrix(1,0,0,1,2328.7082928863088,654.2906175636277) translate(96.83950617283952 14.222222222222223)"/><path d="M2130.1 762.3h-67.37v-1.96h67.36zm211.13 0h-29.76v-1.96h29.76z" stroke="#000" stroke-width=".05"/><path d="M2342.23 762.3h-1.03v-1.96h1.03z"/><path stroke="#000" stroke-width=".05"/><path d="M2061.73 765.95l-14.27-4.64 14.27-4.62z"/><path d="M2062.7 767.3l-18.4-6 18.4-5.96zm-12.08-6l10.13 3.3v-6.58z" stroke="#000" stroke-width=".05"/><g><use xlink:href="#G" transform="matrix(1,0,0,1,2130.0916194802603,750.645102716279) translate(0 14.222222222222223)"/><use xlink:href="#H" transform="matrix(1,0,0,1,2130.0916194802603,750.645102716279) translate(44.39506172839507 14.222222222222223)"/><use xlink:href="#I" transform="matrix(1,0,0,1,2130.0916194802603,750.645102716279) translate(117.33333333333334 14.222222222222223)"/><use xlink:href="#J" transform="matrix(1,0,0,1,2130.0916194802603,750.645102716279) translate(143.90123456790124 14.222222222222223)"/></g><path d="M1686.44 763.75h-43.7v-1.95h43.7zm234.8-1.46H1860v-1.96h61.2z" stroke="#000" stroke-width=".05"/><path d="M1922.23 762.3h-1.03v-1.96h1.03z"/><path stroke="#000" stroke-width=".05"/><path d="M1641.73 767.4l-14.27-4.62 14.27-4.63z"/><path d="M1642.7 768.76l-18.4-5.98 18.4-5.98zm-12.08-5.98l10.13 3.3v-6.6z" stroke="#000" stroke-width=".05"/><g><use xlink:href="#K" transform="matrix(1,0,0,1,1686.4366879480374,751.3792601208917) translate(0 14.222222222222223)"/><use xlink:href="#L" transform="matrix(1,0,0,1,1686.4366879480374,751.3792601208917) translate(98.61728395061726 14.222222222222223)"/></g><path d="M1563.23 789.78v48.5" stroke="#000" stroke-width="2" fill="none"/><path d="M1564.2 789.8h-1.95v-1.02h1.95z" stroke="#000" stroke-width=".05"/><path d="M1563.23 853.53l-4.64-14.26h9.26z" stroke="#000" stroke-width="2"/><path d="M1564.2 559.34h-1.95V540.1h1.95zm0-40.58h-1.95V482h1.95z" stroke="#000" stroke-width=".05"/><path d="M1563.23 574.6l-4.64-14.26h9.26z"/><path d="M1563.23 577.76l-5.98-18.4h11.95zm-3.3-16.44l3.3 10.13 3.3-10.13z" stroke="#000" stroke-width=".05"/><path d="M1564.2 482.04h-1.95v-1.18l.98.15.97-.14z"/><path stroke="#000" stroke-width=".05"/><g><use xlink:href="#M" transform="matrix(1,0,0,1,1465.597181775198,518.7622083645753) translate(0 14.222222222222223)"/><use xlink:href="#N" transform="matrix(1,0,0,1,1465.597181775198,518.7622083645753) translate(85.7777777777778 14.222222222222223)"/><use xlink:href="#O" transform="matrix(1,0,0,1,1465.597181775198,518.7622083645753) translate(127.2098765432099 14.222222222222223)"/></g><defs><path d="M24-248c120-7 223 5 221 122C244-46 201 0 124 0H24v-248zM76-40c74 7 117-18 117-86 0-67-45-88-117-82v168" id="P"/><path d="M25-224v-37h50v37H25zM25 0v-190h50V0H25" id="Q"/><path d="M133-34C117-15 103 5 69 4 32 3 11-16 11-54c-1-60 55-63 116-61 1-26-3-47-28-47-18 1-26 9-28 27l-52-2c7-38 36-58 82-57s74 22 75 68l1 82c-1 14 12 18 25 15v27c-30 8-71 5-69-32zm-48 3c29 0 43-24 42-57-32 0-66-3-65 30 0 17 8 27 23 27" id="R"/><path d="M195-6C206 82 75 100 31 46c-4-6-6-13-8-21l49-6c3 16 16 24 34 25 40 0 42-37 40-79-11 22-30 35-61 35-53 0-70-43-70-97 0-56 18-96 73-97 30 0 46 14 59 34l2-30h47zm-90-29c32 0 41-27 41-63 0-35-9-62-40-62-32 0-39 29-40 63 0 36 9 62 39 62" id="S"/><path d="M135-150c-39-12-60 13-60 57V0H25l-1-190h47c2 13-1 29 3 40 6-28 27-53 61-41v41" id="T"/><path d="M220-157c-53 9-28 100-34 157h-49v-107c1-27-5-49-29-50C55-147 81-57 75 0H25l-1-190h47c2 12-1 28 3 38 10-53 101-56 108 0 13-22 24-43 59-42 82 1 51 116 57 194h-49v-107c-1-25-5-48-29-50" id="U"/><g id="a"><use transform="matrix(0.0728395061728395,0,0,0.0728395061728395,0,0)" xlink:href="#P"/><use transform="matrix(0.0728395061728395,0,0,0.0728395061728395,18.86543209876543,0)" xlink:href="#Q"/><use transform="matrix(0.0728395061728395,0,0,0.0728395061728395,26.14938271604938,0)" xlink:href="#R"/><use transform="matrix(0.0728395061728395,0,0,0.0728395061728395,40.717283950617286,0)" xlink:href="#S"/><use transform="matrix(0.0728395061728395,0,0,0.0728395061728395,56.66913580246913,0)" xlink:href="#T"/><use transform="matrix(0.0728395061728395,0,0,0.0728395061728395,66.86666666666666,0)" xlink:href="#R"/><use transform="matrix(0.0728395061728395,0,0,0.0728395061728395,81.43456790123457,0)" xlink:href="#U"/><use transform="matrix(0.0728395061728395,0,0,0.0728395061728395,104.7432098765432,0)" xlink:href="#R"/></g><path d="M88-194c31-1 46 15 58 34l-1-101h50l1 261h-48c-2-10 0-23-3-31C134-8 116 4 84 4 32 4 16-41 15-95c0-56 19-97 73-99zm17 164c33 0 40-30 41-66 1-37-9-64-41-64s-38 30-39 65c0 43 13 65 39 65" id="V"/><path d="M185-48c-13 30-37 53-82 52C43 2 14-33 14-96s30-98 90-98c62 0 83 45 84 108H66c0 31 8 55 39 56 18 0 30-7 34-22zm-45-69c5-46-57-63-70-21-2 6-4 13-4 21h74" id="W"/><g id="b"><use transform="matrix(0.0728395061728395,0,0,0.0728395061728395,0,0)" xlink:href="#V"/><use transform="matrix(0.0728395061728395,0,0,0.0728395061728395,15.95185185185185,0)" xlink:href="#W"/></g><path d="M24 0v-248h195v40H76v63h132v40H76v65h150V0H24" id="X"/><path d="M137-138c1-29-70-34-71-4 15 46 118 7 119 86 1 83-164 76-172 9l43-7c4 19 20 25 44 25 33 8 57-30 24-41C81-84 22-81 20-136c-2-80 154-74 161-7" id="Y"/><path d="M115-3C79 11 28 4 28-45v-112H4v-33h27l15-45h31v45h36v33H77v99c-1 23 16 31 38 25v30" id="Z"/><path d="M110-194c64 0 96 36 96 99 0 64-35 99-97 99-61 0-95-36-95-99 0-62 34-99 96-99zm-1 164c35 0 45-28 45-65 0-40-10-65-43-65-34 0-45 26-45 65 0 36 10 65 43 65" id="aa"/><g id="c"><use transform="matrix(0.0728395061728395,0,0,0.0728395061728395,0,0)" xlink:href="#X"/><use transform="matrix(0.0728395061728395,0,0,0.0728395061728395,17.48148148148148,0)" xlink:href="#Y"/><use transform="matrix(0.0728395061728395,0,0,0.0728395061728395,32.04938271604938,0)" xlink:href="#Z"/><use transform="matrix(0.0728395061728395,0,0,0.0728395061728395,40.717283950617286,0)" xlink:href="#R"/><use transform="matrix(0.0728395061728395,0,0,0.0728395061728395,55.28518518518518,0)" xlink:href="#V"/><use transform="matrix(0.0728395061728395,0,0,0.0728395061728395,71.23703703703703,0)" xlink:href="#aa"/></g><g id="d"><use transform="matrix(0.0728395061728395,0,0,0.0728395061728395,0,0)" xlink:href="#V"/><use transform="matrix(0.0728395061728395,0,0,0.0728395061728395,15.95185185185185,0)" xlink:href="#W"/></g><path d="M230 0l2-204L168 0h-37L68-204 70 0H24v-248h70l56 185 57-185h69V0h-46" id="ab"/><path d="M132-34C116-15 102 5 68 4 31 3 10-16 10-54c-1-60 55-63 116-61 1-26-3-47-28-47-18 1-26 9-28 27l-52-2c7-38 36-58 82-57s74 22 75 68l1 82c-1 14 12 18 25 15v27c-30 8-71 5-69-32zm-48 3c29 0 43-24 42-57-32 0-66-3-65 30 0 17 8 27 23 27zM66-208v-5l45-51h45v8l-60 48H66" id="ac"/><path d="M84 4C32 4 15-41 15-95c0-55 18-99 73-99 29 0 47 12 58 34l2-30h48l-1 265h-49V-32C136-9 114 4 84 4zm21-34c32 0 41-29 41-66 0-36-9-64-40-64-33 0-39 30-40 65 0 43 13 65 39 65" id="ad"/><path d="M85 4C-2 5 27-109 22-190h50c7 57-23 150 33 157 60-5 35-97 40-157h50l1 190h-47c-2-12 1-28-3-38-12 25-28 42-61 42" id="ae"/><path d="M135-194c87-1 58 113 63 194h-50c-7-57 23-157-34-157-59 0-34 97-39 157H25l-1-190h47c2 12-1 28 3 38 12-26 28-41 61-42" id="af"/><g id="e"><use transform="matrix(0.0728395061728395,0,0,0.0728395061728395,0,0)" xlink:href="#ab"/><use transform="matrix(0.0728395061728395,0,0,0.0728395061728395,21.77901234567901,0)" xlink:href="#ac"/><use transform="matrix(0.0728395061728395,0,0,0.0728395061728395,36.34691358024691,0)" xlink:href="#ad"/><use transform="matrix(0.0728395061728395,0,0,0.0728395061728395,52.29876543209876,0)" xlink:href="#ae"/><use transform="matrix(0.0728395061728395,0,0,0.0728395061728395,68.25061728395062,0)" xlink:href="#Q"/><use transform="matrix(0.0728395061728395,0,0,0.0728395061728395,75.53456790123457,0)" xlink:href="#af"/><use transform="matrix(0.0728395061728395,0,0,0.0728395061728395,91.48641975308642,0)" xlink:href="#R"/></g><path d="M67-125c0 53 21 87 73 88 37 1 54-22 65-47l45 17C233-25 199 4 140 4 58 4 20-42 15-125 8-235 124-281 211-232c18 10 29 29 36 50l-46 12c-8-25-30-41-62-41-52 0-71 34-72 86" id="ag"/><path d="M275 0h-61l-44-196L126 0H64L0-248h53L97-49l45-199h58l43 199 44-199h52" id="ah"/><path d="M190-63c-7 42-38 67-86 67-59 0-84-38-90-98-12-110 154-137 174-36l-49 2c-2-19-15-32-35-32-30 0-35 28-38 64-6 74 65 87 74 30" id="ai"/><path d="M114-157C55-157 80-60 75 0H25v-261h50l-1 109c12-26 28-41 61-42 86-1 58 113 63 194h-50c-7-57 23-157-34-157" id="aj"/><g id="f"><use transform="matrix(0.0728395061728395,0,0,0.0728395061728395,0,0)" xlink:href="#ag"/><use transform="matrix(0.0728395061728395,0,0,0.0728395061728395,18.86543209876543,0)" xlink:href="#aa"/><use transform="matrix(0.0728395061728395,0,0,0.0728395061728395,34.81728395061728,0)" xlink:href="#T"/><use transform="matrix(0.0728395061728395,0,0,0.0728395061728395,45.01481481481481,0)" xlink:href="#W"/><use transform="matrix(0.0728395061728395,0,0,0.0728395061728395,59.582716049382704,0)" xlink:href="#ah"/><use transform="matrix(0.0728395061728395,0,0,0.0728395061728395,83.3283950617284,0)" xlink:href="#R"/><use transform="matrix(0.0728395061728395,0,0,0.0728395061728395,97.89629629629628,0)" xlink:href="#Z"/><use transform="matrix(0.0728395061728395,0,0,0.0728395061728395,106.56419753086419,0)" xlink:href="#ai"/><use transform="matrix(0.0728395061728395,0,0,0.0728395061728395,121.13209876543209,0)" xlink:href="#aj"/></g><path d="M14-72v-43h91v43H14" id="ak"/><use transform="matrix(0.0728395061728395,0,0,0.0728395061728395,0,0)" xlink:href="#ak" id="g"/><path d="M199 0l-22-63H83L61 0H9l90-248h61L250 0h-51zm-33-102l-36-108c-10 38-24 72-36 108h72" id="al"/><path d="M25 0v-261h50V0H25" id="am"/><g id="h"><use transform="matrix(0.0728395061728395,0,0,0.0728395061728395,0,0)" xlink:href="#al"/><use transform="matrix(0.0728395061728395,0,0,0.0728395061728395,18.86543209876543,0)" xlink:href="#am"/><use transform="matrix(0.0728395061728395,0,0,0.0728395061728395,26.14938271604938,0)" xlink:href="#W"/><use transform="matrix(0.0728395061728395,0,0,0.0728395061728395,40.717283950617286,0)" xlink:href="#T"/><use transform="matrix(0.0728395061728395,0,0,0.0728395061728395,50.91481481481481,0)" xlink:href="#Z"/><use transform="matrix(0.0728395061728395,0,0,0.0728395061728395,59.582716049382704,0)" xlink:href="#R"/><use transform="matrix(0.0728395061728395,0,0,0.0728395061728395,74.15061728395061,0)" xlink:href="#Y"/></g><path d="M30 0v-248h33v221h125V0H30" id="an"/><path d="M232-93c-1 65-40 97-104 97C67 4 28-28 28-90v-158h33c8 89-33 224 67 224 102 0 64-133 71-224h33v155" id="ao"/><path d="M212-179c-10-28-35-45-73-45-59 0-87 40-87 99 0 60 29 101 89 101 43 0 62-24 78-52l27 14C228-24 195 4 139 4 59 4 22-46 18-125c-6-104 99-153 187-111 19 9 31 26 39 46" id="ap"/><path d="M205 0l-28-72H64L36 0H1l101-248h38L239 0h-34zm-38-99l-47-123c-12 45-31 82-46 123h93" id="aq"/><path d="M185-189c-5-48-123-54-124 2 14 75 158 14 163 119 3 78-121 87-175 55-17-10-28-26-33-46l33-7c5 56 141 63 141-1 0-78-155-14-162-118-5-82 145-84 179-34 5 7 8 16 11 25" id="ar"/><g id="i"><use transform="matrix(0.04248971193415638,0,0,0.04248971193415638,0,0)" xlink:href="#an"/><use transform="matrix(0.04248971193415638,0,0,0.04248971193415638,8.497942386831275,0)" xlink:href="#ao"/><use transform="matrix(0.04248971193415638,0,0,0.04248971193415638,19.502777777777776,0)" xlink:href="#ap"/><use transform="matrix(0.04248971193415638,0,0,0.04248971193415638,30.50761316872428,0)" xlink:href="#aq"/><use transform="matrix(0.04248971193415638,0,0,0.04248971193415638,40.70514403292181,0)" xlink:href="#ar"/></g><path d="M30-248c118-7 216 8 213 122C240-48 200 0 122 0H30v-248zM63-27c89 8 146-16 146-99s-60-101-146-95v194" id="as"/><path d="M30 0v-248h187v28H63v79h144v27H63v87h162V0H30" id="at"/><g id="j"><use transform="matrix(0.04248971193415638,0,0,0.04248971193415638,0,0)" xlink:href="#as"/><use transform="matrix(0.04248971193415638,0,0,0.04248971193415638,11.004835390946502,0)" xlink:href="#at"/></g><path d="M140-251c81 0 123 46 123 126C263-46 219 4 140 4 59 4 17-45 17-125s42-126 123-126zm0 227c63 0 89-41 89-101s-29-99-89-99c-61 0-89 39-89 99S79-25 140-24" id="au"/><g id="k"><use transform="matrix(0.04248971193415638,0,0,0.04248971193415638,0,0)" xlink:href="#ar"/><use transform="matrix(0.04248971193415638,0,0,0.04248971193415638,10.19753086419753,0)" xlink:href="#au"/><use transform="matrix(0.04248971193415638,0,0,0.04248971193415638,22.094650205761315,0)" xlink:href="#ao"/><use transform="matrix(0.04248971193415638,0,0,0.04248971193415638,33.099485596707815,0)" xlink:href="#ar"/><use transform="matrix(0.04248971193415638,0,0,0.04248971193415638,43.29701646090535,0)" xlink:href="#aq"/></g><path d="M233-177c-1 41-23 64-60 70L243 0h-38l-65-103H63V0H30v-248c88 3 205-21 203 71zM63-129c60-2 137 13 137-47 0-61-80-42-137-45v92" id="av"/><path d="M33 0v-248h34V0H33" id="aw"/><path d="M143 4C61 4 22-44 18-125c-5-107 100-154 193-111 17 8 29 25 37 43l-32 9c-13-25-37-40-76-40-61 0-88 39-88 99 0 61 29 100 91 101 35 0 62-11 79-27v-45h-74v-28h105v86C228-13 192 4 143 4" id="ax"/><g id="l"><use transform="matrix(0.04248971193415638,0,0,0.04248971193415638,0,0)" xlink:href="#av"/><use transform="matrix(0.04248971193415638,0,0,0.04248971193415638,11.004835390946502,0)" xlink:href="#au"/><use transform="matrix(0.04248971193415638,0,0,0.04248971193415638,22.901954732510287,0)" xlink:href="#as"/><use transform="matrix(0.04248971193415638,0,0,0.04248971193415638,33.90679012345679,0)" xlink:href="#av"/><use transform="matrix(0.04248971193415638,0,0,0.04248971193415638,44.91162551440329,0)" xlink:href="#aw"/><use transform="matrix(0.04248971193415638,0,0,0.04248971193415638,49.160596707818925,0)" xlink:href="#ax"/><use transform="matrix(0.04248971193415638,0,0,0.04248971193415638,61.05771604938271,0)" xlink:href="#ao"/><use transform="matrix(0.04248971193415638,0,0,0.04248971193415638,72.06255144032922,0)" xlink:href="#at"/><use transform="matrix(0.04248971193415638,0,0,0.04248971193415638,82.26008230452675,0)" xlink:href="#ar"/></g><path fill="#a9afb8" d="M32 76v-337h29V76H32" id="ay"/><use transform="matrix(0.04248971193415638,0,0,0.04248971193415638,0,0)" xlink:href="#ay" id="m"/><path d="M153-248C145-148 188 4 80 4 36 3 13-21 6-62l32-5c4 25 16 42 43 43 27 0 39-20 39-49v-147H72v-28h81" id="az"/><path d="M84 4C-5 8 30-112 23-190h32v120c0 31 7 50 39 49 72-2 45-101 50-169h31l1 190h-30c-1-10 1-25-2-33-11 22-28 36-60 37" id="aA"/><path d="M117-194c89-4 53 116 60 194h-32v-121c0-31-8-49-39-48C34-167 62-67 57 0H25l-1-190h30c1 10-1 24 2 32 11-22 29-35 61-36" id="aB"/><path d="M100-194c63 0 86 42 84 106H49c0 40 14 67 53 68 26 1 43-12 49-29l28 8c-11 28-37 45-77 45C44 4 14-33 15-96c1-61 26-98 85-98zm52 81c6-60-76-77-97-28-3 7-6 17-6 28h103" id="aC"/><g id="n"><use transform="matrix(0.04248971193415638,0,0,0.04248971193415638,0,0)" xlink:href="#az"/><use transform="matrix(0.04248971193415638,0,0,0.04248971193415638,7.648148148148148,0)" xlink:href="#aA"/><use transform="matrix(0.04248971193415638,0,0,0.04248971193415638,16.14609053497942,0)" xlink:href="#aB"/><use transform="matrix(0.04248971193415638,0,0,0.04248971193415638,24.644032921810698,0)" xlink:href="#aC"/></g><path d="M101-251c82-7 93 87 43 132L82-64C71-53 59-42 53-27h129V0H18c2-99 128-94 128-182 0-28-16-43-45-43s-46 15-49 41l-32-3c6-41 34-60 81-64" id="aD"/><path d="M27 0v-27h64v-190l-56 39v-29l58-41h29v221h61V0H27" id="aE"/><path d="M68-38c1 34 0 65-14 84H32c9-13 17-26 17-46H33v-38h35" id="aF"/><g id="o"><use transform="matrix(0.04248971193415638,0,0,0.04248971193415638,0,0)" xlink:href="#aD"/><use transform="matrix(0.04248971193415638,0,0,0.04248971193415638,8.497942386831275,0)" xlink:href="#aE"/><use transform="matrix(0.04248971193415638,0,0,0.04248971193415638,16.99588477366255,0)" xlink:href="#aF"/></g><path d="M101-251c68 0 85 55 85 127S166 4 100 4C33 4 14-52 14-124c0-73 17-127 87-127zm-1 229c47 0 54-49 54-102s-4-102-53-102c-51 0-55 48-55 102 0 53 5 102 54 102" id="aG"/><path d="M54-142c48-35 137-8 131 61C196 18 31 33 14-55l32-4c7 23 22 37 52 37 35-1 51-22 54-58 4-55-73-65-99-34H22l8-134h141v27H59" id="aH"/><g id="p"><use transform="matrix(0.04248971193415638,0,0,0.04248971193415638,0,0)" xlink:href="#aD"/><use transform="matrix(0.04248971193415638,0,0,0.04248971193415638,8.497942386831275,0)" xlink:href="#aG"/><use transform="matrix(0.04248971193415638,0,0,0.04248971193415638,16.99588477366255,0)" xlink:href="#aD"/><use transform="matrix(0.04248971193415638,0,0,0.04248971193415638,25.493827160493822,0)" xlink:href="#aH"/></g><path d="M59-47c-2 24 18 29 38 22v24C64 9 27 4 27-40v-127H5v-23h24l9-43h21v43h35v23H59v120" id="aI"/><path d="M141-36C126-15 110 5 73 4 37 3 15-17 15-53c-1-64 63-63 125-63 3-35-9-54-41-54-24 1-41 7-42 31l-33-3c5-37 33-52 76-52 45 0 72 20 72 64v82c-1 20 7 32 28 27v20c-31 9-61-2-59-35zM48-53c0 20 12 33 32 33 41-3 63-29 60-74-43 2-92-5-92 41" id="aJ"/><path d="M114-163C36-179 61-72 57 0H25l-1-190h30c1 12-1 29 2 39 6-27 23-49 58-41v29" id="aK"/><g id="q"><use transform="matrix(0.06172839506172839,0,0,0.06172839506172839,0,0)" xlink:href="#ar"/><use transform="matrix(0.06172839506172839,0,0,0.06172839506172839,14.814814814814813,0)" xlink:href="#aI"/><use transform="matrix(0.06172839506172839,0,0,0.06172839506172839,20.98765432098765,0)" xlink:href="#aJ"/><use transform="matrix(0.06172839506172839,0,0,0.06172839506172839,33.33333333333333,0)" xlink:href="#aK"/><use transform="matrix(0.06172839506172839,0,0,0.06172839506172839,40.679012345679006,0)" xlink:href="#aI"/></g><path d="M85-194c31 0 48 13 60 33l-1-100h32l1 261h-30c-2-10 0-23-3-31C134-8 116 4 85 4 32 4 16-35 15-94c0-66 23-100 70-100zm9 24c-40 0-46 34-46 75 0 40 6 74 45 74 42 0 51-32 51-76 0-42-9-74-50-73" id="aL"/><g id="r"><use transform="matrix(0.06172839506172839,0,0,0.06172839506172839,0,0)" xlink:href="#at"/><use transform="matrix(0.06172839506172839,0,0,0.06172839506172839,14.814814814814813,0)" xlink:href="#aB"/><use transform="matrix(0.06172839506172839,0,0,0.06172839506172839,27.160493827160494,0)" xlink:href="#aL"/></g><path d="M190 0L58-211 59 0H30v-248h39L202-35l-2-213h31V0h-41" id="aM"/><path d="M206 0h-36l-40-164L89 0H53L-1-190h32L70-26l43-164h34l41 164 42-164h31" id="aN"/><g id="s"><use transform="matrix(0.05,0,0,0.05,0,0)" xlink:href="#aM"/><use transform="matrix(0.05,0,0,0.05,12.950000000000001,0)" xlink:href="#aC"/><use transform="matrix(0.05,0,0,0.05,22.950000000000003,0)" xlink:href="#aN"/></g><g id="t"><use transform="matrix(0.05,0,0,0.05,0,0)" xlink:href="#ap"/><use transform="matrix(0.05,0,0,0.05,12.950000000000001,0)" xlink:href="#aK"/><use transform="matrix(0.05,0,0,0.05,18.900000000000002,0)" xlink:href="#aC"/><use transform="matrix(0.05,0,0,0.05,28.900000000000002,0)" xlink:href="#aJ"/><use transform="matrix(0.05,0,0,0.05,38.900000000000006,0)" xlink:href="#aI"/><use transform="matrix(0.05,0,0,0.05,43.900000000000006,0)" xlink:href="#aC"/><use transform="matrix(0.05,0,0,0.05,53.900000000000006,0)" xlink:href="#aL"/></g><path d="M100-194c62-1 85 37 85 99 1 63-27 99-86 99S16-35 15-95c0-66 28-99 85-99zM99-20c44 1 53-31 53-75 0-43-8-75-51-75s-53 32-53 75 10 74 51 75" id="aO"/><path d="M24-231v-30h32v30H24zM24 0v-190h32V0H24" id="aP"/><path d="M101-234c-31-9-42 10-38 44h38v23H63V0H32v-167H5v-23h27c-7-52 17-82 69-68v24" id="aQ"/><path d="M96-169c-40 0-48 33-48 73s9 75 48 75c24 0 41-14 43-38l32 2c-6 37-31 61-74 61-59 0-76-41-82-99-10-93 101-131 147-64 4 7 5 14 7 22l-32 3c-4-21-16-35-41-35" id="aR"/><g id="u"><use transform="matrix(0.05,0,0,0.05,0,0)" xlink:href="#aM"/><use transform="matrix(0.05,0,0,0.05,12.950000000000001,0)" xlink:href="#aO"/><use transform="matrix(0.05,0,0,0.05,22.950000000000003,0)" xlink:href="#aI"/><use transform="matrix(0.05,0,0,0.05,27.950000000000003,0)" xlink:href="#aP"/><use transform="matrix(0.05,0,0,0.05,31.900000000000002,0)" xlink:href="#aQ"/><use transform="matrix(0.05,0,0,0.05,36.900000000000006,0)" xlink:href="#aP"/><use transform="matrix(0.05,0,0,0.05,40.85000000000001,0)" xlink:href="#aR"/><use transform="matrix(0.05,0,0,0.05,49.85000000000001,0)" xlink:href="#aJ"/><use transform="matrix(0.05,0,0,0.05,59.85,0)" xlink:href="#aI"/><use transform="matrix(0.05,0,0,0.05,64.85000000000001,0)" xlink:href="#aC"/><use transform="matrix(0.05,0,0,0.05,74.85000000000001,0)" xlink:href="#aL"/></g><path d="M30-248c87 1 191-15 191 75 0 78-77 80-158 76V0H30v-248zm33 125c57 0 124 11 124-50 0-59-68-47-124-48v98" id="aS"/><g id="v"><use transform="matrix(0.05,0,0,0.05,0,0)" xlink:href="#aS"/><use transform="matrix(0.05,0,0,0.05,12,0)" xlink:href="#aC"/><use transform="matrix(0.05,0,0,0.05,22,0)" xlink:href="#aB"/><use transform="matrix(0.05,0,0,0.05,32,0)" xlink:href="#aL"/><use transform="matrix(0.05,0,0,0.05,42,0)" xlink:href="#aC"/><use transform="matrix(0.05,0,0,0.05,52,0)" xlink:href="#aB"/><use transform="matrix(0.05,0,0,0.05,62,0)" xlink:href="#aI"/></g><g id="w"><use transform="matrix(0.05,0,0,0.05,0,0)" xlink:href="#aw"/><use transform="matrix(0.05,0,0,0.05,5,0)" xlink:href="#aB"/></g><path d="M177-190C167-65 218 103 67 71c-23-6-38-20-44-43l32-5c15 47 100 32 89-28v-30C133-14 115 1 83 1 29 1 15-40 15-95c0-56 16-97 71-98 29-1 48 16 59 35 1-10 0-23 2-32h30zM94-22c36 0 50-32 50-73 0-42-14-75-50-75-39 0-46 34-46 75s6 73 46 73" id="aT"/><path d="M135-143c-3-34-86-38-87 0 15 53 115 12 119 90S17 21 10-45l28-5c4 36 97 45 98 0-10-56-113-15-118-90-4-57 82-63 122-42 12 7 21 19 24 35" id="aU"/><g id="x"><use transform="matrix(0.05,0,0,0.05,0,0)" xlink:href="#aS"/><use transform="matrix(0.05,0,0,0.05,12,0)" xlink:href="#aK"/><use transform="matrix(0.05,0,0,0.05,17.95,0)" xlink:href="#aO"/><use transform="matrix(0.05,0,0,0.05,27.950000000000003,0)" xlink:href="#aT"/><use transform="matrix(0.05,0,0,0.05,37.95,0)" xlink:href="#aK"/><use transform="matrix(0.05,0,0,0.05,43.900000000000006,0)" xlink:href="#aC"/><use transform="matrix(0.05,0,0,0.05,53.900000000000006,0)" xlink:href="#aU"/><use transform="matrix(0.05,0,0,0.05,62.900000000000006,0)" xlink:href="#aU"/></g><path d="M24 0v-261h32V0H24" id="aV"/><path d="M108 0H70L1-190h34L89-25l56-165h34" id="aW"/><g id="y"><use transform="matrix(0.05,0,0,0.05,0,0)" xlink:href="#av"/><use transform="matrix(0.05,0,0,0.05,12.950000000000001,0)" xlink:href="#aC"/><use transform="matrix(0.05,0,0,0.05,22.950000000000003,0)" xlink:href="#aU"/><use transform="matrix(0.05,0,0,0.05,31.950000000000003,0)" xlink:href="#aO"/><use transform="matrix(0.05,0,0,0.05,41.95,0)" xlink:href="#aV"/><use transform="matrix(0.05,0,0,0.05,45.900000000000006,0)" xlink:href="#aW"/><use transform="matrix(0.05,0,0,0.05,54.900000000000006,0)" xlink:href="#aC"/><use transform="matrix(0.05,0,0,0.05,64.9,0)" xlink:href="#aL"/></g><path fill="#333" d="M67-125c0 53 21 87 73 88 37 1 54-22 65-47l45 17C233-25 199 4 140 4 58 4 20-42 15-125 8-235 124-281 211-232c18 10 29 29 36 50l-46 12c-8-25-30-41-62-41-52 0-71 34-72 86" id="aX"/><path fill="#333" d="M110-194c64 0 96 36 96 99 0 64-35 99-97 99-61 0-95-36-95-99 0-62 34-99 96-99zm-1 164c35 0 45-28 45-65 0-40-10-65-43-65-34 0-45 26-45 65 0 36 10 65 43 65" id="aY"/><path fill="#333" d="M25 0v-261h50V0H25" id="aZ"/><path fill="#333" d="M185-48c-13 30-37 53-82 52C43 2 14-33 14-96s30-98 90-98c62 0 83 45 84 108H66c0 31 8 55 39 56 18 0 30-7 34-22zm-45-69c5-46-57-63-70-21-2 6-4 13-4 21h74" id="ba"/><path fill="#333" d="M190-63c-7 42-38 67-86 67-59 0-84-38-90-98-12-110 154-137 174-36l-49 2c-2-19-15-32-35-32-30 0-35 28-38 64-6 74 65 87 74 30" id="bb"/><path fill="#333" d="M115-3C79 11 28 4 28-45v-112H4v-33h27l15-45h31v45h36v33H77v99c-1 23 16 31 38 25v30" id="bc"/><path fill="#333" d="M25-224v-37h50v37H25zM25 0v-190h50V0H25" id="bd"/><path fill="#333" d="M135-194c87-1 58 113 63 194h-50c-7-57 23-157-34-157-59 0-34 97-39 157H25l-1-190h47c2 12-1 28 3 38 12-26 28-41 61-42" id="be"/><path fill="#333" d="M195-6C206 82 75 100 31 46c-4-6-6-13-8-21l49-6c3 16 16 24 34 25 40 0 42-37 40-79-11 22-30 35-61 35-53 0-70-43-70-97 0-56 18-96 73-97 30 0 46 14 59 34l2-30h47zm-90-29c32 0 41-27 41-63 0-35-9-62-40-62-32 0-39 29-40 63 0 36 9 62 39 62" id="bf"/><g id="z"><use transform="matrix(0.04938271604938272,0,0,0.04938271604938272,0,0)" xlink:href="#aX"/><use transform="matrix(0.04938271604938272,0,0,0.04938271604938272,12.790123456790125,0)" xlink:href="#aY"/><use transform="matrix(0.04938271604938272,0,0,0.04938271604938272,23.60493827160494,0)" xlink:href="#aZ"/><use transform="matrix(0.04938271604938272,0,0,0.04938271604938272,28.543209876543212,0)" xlink:href="#ba"/><use transform="matrix(0.04938271604938272,0,0,0.04938271604938272,38.41975308641976,0)" xlink:href="#bb"/><use transform="matrix(0.04938271604938272,0,0,0.04938271604938272,48.296296296296305,0)" xlink:href="#bc"/><use transform="matrix(0.04938271604938272,0,0,0.04938271604938272,54.17283950617284,0)" xlink:href="#bd"/><use transform="matrix(0.04938271604938272,0,0,0.04938271604938272,59.111111111111114,0)" xlink:href="#be"/><use transform="matrix(0.04938271604938272,0,0,0.04938271604938272,69.92592592592594,0)" xlink:href="#bf"/></g><path fill="#333" d="M88-194c31-1 46 15 58 34l-1-101h50l1 261h-48c-2-10 0-23-3-31C134-8 116 4 84 4 32 4 16-41 15-95c0-56 19-97 73-99zm17 164c33 0 40-30 41-66 1-37-9-64-41-64s-38 30-39 65c0 43 13 65 39 65" id="bg"/><path fill="#333" d="M133-34C117-15 103 5 69 4 32 3 11-16 11-54c-1-60 55-63 116-61 1-26-3-47-28-47-18 1-26 9-28 27l-52-2c7-38 36-58 82-57s74 22 75 68l1 82c-1 14 12 18 25 15v27c-30 8-71 5-69-32zm-48 3c29 0 43-24 42-57-32 0-66-3-65 30 0 17 8 27 23 27" id="bh"/><g id="A"><use transform="matrix(0.04938271604938272,0,0,0.04938271604938272,0,0)" xlink:href="#bg"/><use transform="matrix(0.04938271604938272,0,0,0.04938271604938272,10.814814814814815,0)" xlink:href="#bh"/><use transform="matrix(0.04938271604938272,0,0,0.04938271604938272,20.69135802469136,0)" xlink:href="#bc"/><use transform="matrix(0.04938271604938272,0,0,0.04938271604938272,26.567901234567902,0)" xlink:href="#bh"/></g><path fill="#333" d="M169-182c-1-43-94-46-97-3 18 66 151 10 154 114 3 95-165 93-204 36-6-8-10-19-12-30l50-8c3 46 112 56 116 5-17-69-150-10-154-114-4-87 153-88 188-35 5 8 8 18 10 28" id="bi"/><g id="B"><use transform="matrix(0.04938271604938272,0,0,0.04938271604938272,0,0)" xlink:href="#bi"/><use transform="matrix(0.04938271604938272,0,0,0.04938271604938272,11.851851851851853,0)" xlink:href="#ba"/><use transform="matrix(0.04938271604938272,0,0,0.04938271604938272,21.7283950617284,0)" xlink:href="#be"/><use transform="matrix(0.04938271604938272,0,0,0.04938271604938272,32.543209876543216,0)" xlink:href="#bc"/></g><path fill="#333" d="M121-226c-27-7-43 5-38 36h38v33H83V0H34v-157H6v-33h28c-9-59 32-81 87-68v32" id="bj"/><g id="C"><use transform="matrix(0.04938271604938272,0,0,0.04938271604938272,0,0)" xlink:href="#be"/><use transform="matrix(0.04938271604938272,0,0,0.04938271604938272,10.814814814814815,0)" xlink:href="#aY"/><use transform="matrix(0.04938271604938272,0,0,0.04938271604938272,21.62962962962963,0)" xlink:href="#bc"/><use transform="matrix(0.04938271604938272,0,0,0.04938271604938272,27.506172839506174,0)" xlink:href="#bd"/><use transform="matrix(0.04938271604938272,0,0,0.04938271604938272,32.44444444444444,0)" xlink:href="#bj"/><use transform="matrix(0.04938271604938272,0,0,0.04938271604938272,38.32098765432099,0)" xlink:href="#bd"/><use transform="matrix(0.04938271604938272,0,0,0.04938271604938272,43.25925925925926,0)" xlink:href="#bb"/><use transform="matrix(0.04938271604938272,0,0,0.04938271604938272,53.135802469135804,0)" xlink:href="#bh"/><use transform="matrix(0.04938271604938272,0,0,0.04938271604938272,63.01234567901235,0)" xlink:href="#bc"/><use transform="matrix(0.04938271604938272,0,0,0.04938271604938272,68.88888888888889,0)" xlink:href="#bd"/><use transform="matrix(0.04938271604938272,0,0,0.04938271604938272,73.82716049382717,0)" xlink:href="#aY"/><use transform="matrix(0.04938271604938272,0,0,0.04938271604938272,84.64197530864197,0)" xlink:href="#be"/></g><path fill="#333" d="M275 0h-61l-44-196L126 0H64L0-248h53L97-49l45-199h58l43 199 44-199h52" id="bk"/><g id="D"><use transform="matrix(0.04938271604938272,0,0,0.04938271604938272,0,0)" xlink:href="#bk"/><use transform="matrix(0.04938271604938272,0,0,0.04938271604938272,16.098765432098766,0)" xlink:href="#bh"/><use transform="matrix(0.04938271604938272,0,0,0.04938271604938272,25.97530864197531,0)" xlink:href="#bd"/><use transform="matrix(0.04938271604938272,0,0,0.04938271604938272,30.913580246913583,0)" xlink:href="#bc"/><use transform="matrix(0.04938271604938272,0,0,0.04938271604938272,36.79012345679013,0)" xlink:href="#bd"/><use transform="matrix(0.04938271604938272,0,0,0.04938271604938272,41.7283950617284,0)" xlink:href="#be"/><use transform="matrix(0.04938271604938272,0,0,0.04938271604938272,52.543209876543216,0)" xlink:href="#bf"/></g><path fill="#333" d="M135-150c-39-12-60 13-60 57V0H25l-1-190h47c2 13-1 29 3 40 6-28 27-53 61-41v41" id="bl"/><g id="E"><use transform="matrix(0.04938271604938272,0,0,0.04938271604938272,0,0)" xlink:href="#bj"/><use transform="matrix(0.04938271604938272,0,0,0.04938271604938272,5.8765432098765435,0)" xlink:href="#aY"/><use transform="matrix(0.04938271604938272,0,0,0.04938271604938272,16.691358024691358,0)" xlink:href="#bl"/></g><g id="F"><use transform="matrix(0.04938271604938272,0,0,0.04938271604938272,0,0)" xlink:href="#bh"/><use transform="matrix(0.04938271604938272,0,0,0.04938271604938272,9.876543209876544,0)" xlink:href="#bb"/><use transform="matrix(0.04938271604938272,0,0,0.04938271604938272,19.75308641975309,0)" xlink:href="#bc"/><use transform="matrix(0.04938271604938272,0,0,0.04938271604938272,25.629629629629633,0)" xlink:href="#bd"/><use transform="matrix(0.04938271604938272,0,0,0.04938271604938272,30.567901234567906,0)" xlink:href="#aY"/><use transform="matrix(0.04938271604938272,0,0,0.04938271604938272,41.38271604938272,0)" xlink:href="#be"/></g><path fill="#333" d="M238-95c0 69-44 99-111 99C63 4 22-25 22-93v-155h51v151c-1 38 19 59 55 60 90 1 49-130 58-211h52v153" id="bm"/><path fill="#333" d="M137-138c1-29-70-34-71-4 15 46 118 7 119 86 1 83-164 76-172 9l43-7c4 19 20 25 44 25 33 8 57-30 24-41C81-84 22-81 20-136c-2-80 154-74 161-7" id="bn"/><g id="G"><use transform="matrix(0.04938271604938272,0,0,0.04938271604938272,0,0)" xlink:href="#bm"/><use transform="matrix(0.04938271604938272,0,0,0.04938271604938272,12.790123456790125,0)" xlink:href="#bn"/><use transform="matrix(0.04938271604938272,0,0,0.04938271604938272,22.66666666666667,0)" xlink:href="#ba"/><use transform="matrix(0.04938271604938272,0,0,0.04938271604938272,32.543209876543216,0)" xlink:href="#bl"/></g><path fill="#333" d="M231 0h-52l-39-155L100 0H48L-1-190h46L77-45c9-52 24-97 36-145h53l37 145 32-145h46" id="bo"/><path fill="#333" d="M147 0L96-86 75-71V0H25v-261h50v150l67-79h53l-66 74L201 0h-54" id="bp"/><g id="H"><use transform="matrix(0.04938271604938272,0,0,0.04938271604938272,0,0)" xlink:href="#bo"/><use transform="matrix(0.04938271604938272,0,0,0.04938271604938272,13.827160493827162,0)" xlink:href="#aY"/><use transform="matrix(0.04938271604938272,0,0,0.04938271604938272,24.641975308641975,0)" xlink:href="#bl"/><use transform="matrix(0.04938271604938272,0,0,0.04938271604938272,31.555555555555557,0)" xlink:href="#bp"/><use transform="matrix(0.04938271604938272,0,0,0.04938271604938272,41.4320987654321,0)" xlink:href="#bd"/><use transform="matrix(0.04938271604938272,0,0,0.04938271604938272,46.370370370370374,0)" xlink:href="#be"/><use transform="matrix(0.04938271604938272,0,0,0.04938271604938272,57.18518518518519,0)" xlink:href="#bf"/></g><g id="I"><use transform="matrix(0.04938271604938272,0,0,0.04938271604938272,0,0)" xlink:href="#aY"/><use transform="matrix(0.04938271604938272,0,0,0.04938271604938272,10.814814814814815,0)" xlink:href="#be"/></g><g id="J"><use transform="matrix(0.04938271604938272,0,0,0.04938271604938272,0,0)" xlink:href="#bh"/><use transform="matrix(0.04938271604938272,0,0,0.04938271604938272,9.876543209876544,0)" xlink:href="#aZ"/><use transform="matrix(0.04938271604938272,0,0,0.04938271604938272,14.814814814814817,0)" xlink:href="#ba"/><use transform="matrix(0.04938271604938272,0,0,0.04938271604938272,24.69135802469136,0)" xlink:href="#bl"/><use transform="matrix(0.04938271604938272,0,0,0.04938271604938272,31.60493827160494,0)" xlink:href="#bc"/></g><path fill="#333" d="M220-157c-53 9-28 100-34 157h-49v-107c1-27-5-49-29-50C55-147 81-57 75 0H25l-1-190h47c2 12-1 28 3 38 10-53 101-56 108 0 13-22 24-43 59-42 82 1 51 116 57 194h-49v-107c-1-25-5-48-29-50" id="bq"/><path fill="#333" d="M12 0v-35l95-120H19v-35h142v35L67-36h103V0H12" id="br"/><g id="K"><use transform="matrix(0.04938271604938272,0,0,0.04938271604938272,0,0)" xlink:href="#be"/><use transform="matrix(0.04938271604938272,0,0,0.04938271604938272,10.814814814814815,0)" xlink:href="#aY"/><use transform="matrix(0.04938271604938272,0,0,0.04938271604938272,21.62962962962963,0)" xlink:href="#bl"/><use transform="matrix(0.04938271604938272,0,0,0.04938271604938272,28.543209876543205,0)" xlink:href="#bq"/><use transform="matrix(0.04938271604938272,0,0,0.04938271604938272,44.34567901234568,0)" xlink:href="#bh"/><use transform="matrix(0.04938271604938272,0,0,0.04938271604938272,54.22222222222223,0)" xlink:href="#aZ"/><use transform="matrix(0.04938271604938272,0,0,0.04938271604938272,59.1604938271605,0)" xlink:href="#bd"/><use transform="matrix(0.04938271604938272,0,0,0.04938271604938272,64.09876543209876,0)" xlink:href="#br"/><use transform="matrix(0.04938271604938272,0,0,0.04938271604938272,72.98765432098764,0)" xlink:href="#ba"/><use transform="matrix(0.04938271604938272,0,0,0.04938271604938272,82.86419753086419,0)" xlink:href="#bg"/></g><path fill="#333" d="M85 4C-2 5 27-109 22-190h50c7 57-23 150 33 157 60-5 35-97 40-157h50l1 190h-47c-2-12 1-28-3-38-12 25-28 42-61 42" id="bs"/><g id="L"><use transform="matrix(0.04938271604938272,0,0,0.04938271604938272,0,0)" xlink:href="#bl"/><use transform="matrix(0.04938271604938272,0,0,0.04938271604938272,6.913580246913581,0)" xlink:href="#ba"/><use transform="matrix(0.04938271604938272,0,0,0.04938271604938272,16.790123456790127,0)" xlink:href="#bn"/><use transform="matrix(0.04938271604938272,0,0,0.04938271604938272,26.666666666666668,0)" xlink:href="#aY"/><use transform="matrix(0.04938271604938272,0,0,0.04938271604938272,37.48148148148149,0)" xlink:href="#bs"/><use transform="matrix(0.04938271604938272,0,0,0.04938271604938272,48.296296296296305,0)" xlink:href="#bl"/><use transform="matrix(0.04938271604938272,0,0,0.04938271604938272,55.209876543209894,0)" xlink:href="#bb"/><use transform="matrix(0.04938271604938272,0,0,0.04938271604938272,65.08641975308643,0)" xlink:href="#ba"/></g><path fill="#333" d="M240-174c0 40-23 61-54 70L253 0h-59l-57-94H76V0H24v-248c93 4 217-23 216 74zM76-134c48-2 112 12 112-38 0-48-66-32-112-35v73" id="bt"/><g id="M"><use transform="matrix(0.04938271604938272,0,0,0.04938271604938272,0,0)" xlink:href="#bt"/><use transform="matrix(0.04938271604938272,0,0,0.04938271604938272,12.790123456790125,0)" xlink:href="#ba"/><use transform="matrix(0.04938271604938272,0,0,0.04938271604938272,22.66666666666667,0)" xlink:href="#bn"/><use transform="matrix(0.04938271604938272,0,0,0.04938271604938272,32.543209876543216,0)" xlink:href="#aY"/><use transform="matrix(0.04938271604938272,0,0,0.04938271604938272,43.35802469135803,0)" xlink:href="#bs"/><use transform="matrix(0.04938271604938272,0,0,0.04938271604938272,54.17283950617284,0)" xlink:href="#bl"/><use transform="matrix(0.04938271604938272,0,0,0.04938271604938272,61.08641975308644,0)" xlink:href="#bb"/><use transform="matrix(0.04938271604938272,0,0,0.04938271604938272,70.96296296296298,0)" xlink:href="#ba"/></g><g id="N"><use transform="matrix(0.04938271604938272,0,0,0.04938271604938272,0,0)" xlink:href="#aZ"/><use transform="matrix(0.04938271604938272,0,0,0.04938271604938272,4.938271604938272,0)" xlink:href="#bd"/><use transform="matrix(0.04938271604938272,0,0,0.04938271604938272,9.876543209876544,0)" xlink:href="#bq"/><use transform="matrix(0.04938271604938272,0,0,0.04938271604938272,25.679012345679016,0)" xlink:href="#bd"/><use transform="matrix(0.04938271604938272,0,0,0.04938271604938272,30.617283950617285,0)" xlink:href="#bc"/></g><path fill="#333" d="M114-157C55-157 80-60 75 0H25v-261h50l-1 109c12-26 28-41 61-42 86-1 58 113 63 194h-50c-7-57 23-157-34-157" id="bu"/><g id="O"><use transform="matrix(0.04938271604938272,0,0,0.04938271604938272,0,0)" xlink:href="#bl"/><use transform="matrix(0.04938271604938272,0,0,0.04938271604938272,6.913580246913581,0)" xlink:href="#ba"/><use transform="matrix(0.04938271604938272,0,0,0.04938271604938272,16.790123456790127,0)" xlink:href="#bh"/><use transform="matrix(0.04938271604938272,0,0,0.04938271604938272,26.666666666666668,0)" xlink:href="#bb"/><use transform="matrix(0.04938271604938272,0,0,0.04938271604938272,36.543209876543216,0)" xlink:href="#bu"/><use transform="matrix(0.04938271604938272,0,0,0.04938271604938272,47.35802469135803,0)" xlink:href="#ba"/><use transform="matrix(0.04938271604938272,0,0,0.04938271604938272,57.23456790123457,0)" xlink:href="#bg"/></g></defs></g></svg>